<svg width="20" height="20" viewBox="0 0 20 20" fill="none" xmlns="http://www.w3.org/2000/svg">
<path d="M10.2232 0.144409C4.7036 0.144409 0.638702 4.34481 0.638702 9.95921C0.638702 15.316 4.0178 19.7726 10.3932 19.7726C13.4737 19.7726 16.3842 18.5304 18.0102 16.6456C18.3088 16.3021 18.5231 15.9157 18.5231 15.4878C18.5293 15.2673 18.4904 15.0479 18.4089 14.843C18.3273 14.6381 18.2049 14.452 18.0491 14.2961C17.8932 14.1403 17.7072 14.018 17.5025 13.9367C17.2978 13.8554 17.0787 13.8168 16.8586 13.8233C16.3456 13.8233 15.8755 14.1239 15.5326 14.4659C14.121 15.7955 12.7936 16.5669 10.5689 16.5669C7.01831 16.5669 5.0065 14.3371 4.7936 11.3804H17.5858C18.7418 11.3804 19.1261 10.6948 19.1261 10.0093C19.1218 4.52081 15.6141 0.144409 10.2232 0.144409ZM4.8751 8.11591C5.2594 5.45971 7.2698 3.35871 10.2232 3.35871C13.1322 3.35871 15.0568 5.54411 15.3998 8.11591H4.8751Z" fill="#4F868E"/>
</svg>
