<svg width="29" height="20" viewBox="0 0 29 20" fill="none" xmlns="http://www.w3.org/2000/svg">
<path d="M20.3128 0.0999756C17.8495 0.0999756 15.6434 1.28358 14.1689 3.13978C12.6957 1.27928 10.4911 0.0999756 8.02491 0.0999756C3.59561 0.0999756 0.000709267 3.91688 0.000709267 8.60678V17.9093C-0.00619073 18.1613 0.0373083 18.4121 0.128808 18.6469C0.220308 18.8818 0.357909 19.0958 0.533409 19.2765C0.708809 19.4572 0.918709 19.6008 1.15061 19.6989C1.38241 19.797 1.63151 19.8475 1.88321 19.8475C2.13481 19.8475 2.38401 19.797 2.61581 19.6989C2.84761 19.6008 3.05751 19.4572 3.23301 19.2765C3.40851 19.0958 3.54601 18.8818 3.63751 18.6469C3.72901 18.4121 3.77261 18.1613 3.76561 17.9093V8.60678C3.76561 5.99638 5.67601 3.87248 8.02491 3.87248C10.3739 3.87248 12.2828 5.99488 12.2842 8.60528V17.9078C12.2842 18.4079 12.4825 18.8874 12.8353 19.2411C13.1882 19.5948 13.6668 19.7937 14.166 19.7941C14.5411 19.7937 14.9077 19.6816 15.219 19.4721C15.269 19.4377 15.3176 19.402 15.3619 19.3633C15.576 19.1862 15.7484 18.9639 15.8667 18.7123C15.985 18.4607 16.0463 18.186 16.0463 17.9078V8.60528C16.0463 5.99488 17.9567 3.87248 20.3056 3.87248C22.6546 3.87248 24.5692 5.99638 24.5692 8.60678V17.9093C24.5692 18.4095 24.7676 18.8893 25.1208 19.2431C25.4739 19.5968 25.9529 19.7955 26.4524 19.7955C26.9518 19.7955 27.4308 19.5968 27.784 19.2431C28.1372 18.8893 28.3356 18.4095 28.3356 17.9093V8.60678C28.337 3.91688 24.7364 0.0999756 20.3128 0.0999756Z" fill="#4F868E"/>
</svg>
