<svg width="233" height="215" viewBox="0 85 233 215" fill="none" xmlns="http://www.w3.org/2000/svg">
<g clip-path="url(#clip0_6063_3012)">
<g opacity="0.75" filter="url(#filter0_f_6063_3012)">
<path d="M218.5 174V172.5H217H16H14.5V174V284V285.5H16H217H218.5V284V174Z" stroke="url(#paint0_linear_6063_3012)" stroke-width="3"/>
</g>
<g filter="url(#filter1_b_6063_3012)">
<rect x="16" y="174" width="201" height="110" rx="12" fill="white" fill-opacity="0.15"/>
<rect x="15.5" y="173.5" width="202" height="111" rx="12.5" stroke="url(#paint1_linear_6063_3012)"/>
<g clip-path="url(#clip1_6063_3012)">
<g opacity="0.25" clip-path="url(#clip2_6063_3012)">
<path fill-rule="evenodd" clip-rule="evenodd" d="M36.2687 193.923H30.8925L33.2413 191.574C33.429 191.387 33.429 191.078 33.2413 190.891C33.0535 190.703 32.7503 190.703 32.5626 190.891L29.3908 194.063C29.2031 194.25 29.2031 194.554 29.3908 194.741L32.5626 197.913C32.7503 198.101 33.0535 198.101 33.2413 197.913C33.429 197.725 33.429 197.422 33.2413 197.234L30.8925 194.886H36.2687C36.5334 194.886 36.75 194.669 36.75 194.404C36.75 194.14 36.5334 193.923 36.2687 193.923Z" fill="#334155"/>
</g>
<path d="M46 194.5C46 187.596 51.5964 182 58.5 182H174.5C181.404 182 187 187.596 187 194.5C187 201.404 181.404 207 174.5 207H58.5C51.5964 207 46 201.404 46 194.5Z" fill="#020617" fill-opacity="0.05"/>
<path d="M46 194.5C46 187.596 51.5964 182 58.5 182H174.5C181.404 182 187 187.596 187 194.5C187 201.404 181.404 207 174.5 207H58.5C51.5964 207 46 201.404 46 194.5Z" stroke="#020617" stroke-opacity="0.07"/>
<g opacity="0.25">
<path fill-rule="evenodd" clip-rule="evenodd" d="M65.4998 192.833H65.0832V192C65.0832 190.85 64.1498 189.917 62.9998 189.917C61.8498 189.917 60.9165 190.85 60.9165 192V192.833H60.4998C60.0415 192.833 59.6665 193.208 59.6665 193.667V197.833C59.6665 198.292 60.0415 198.667 60.4998 198.667H65.4998C65.9582 198.667 66.3332 198.292 66.3332 197.833V193.667C66.3332 193.208 65.9582 192.833 65.4998 192.833ZM61.7498 192.833V192C61.7498 191.308 62.3082 190.75 62.9998 190.75C63.6915 190.75 64.2498 191.308 64.2498 192V192.833H61.7498Z" fill="#334155"/>
</g>
<g opacity="0.6">
<path d="M76.752 189.75H77.751V196.872L77.665 198H76.752V189.75ZM81.6772 195.046V195.159C81.6772 195.581 81.6271 195.973 81.5269 196.335C81.4266 196.693 81.2798 197.005 81.0864 197.27C80.8931 197.535 80.6567 197.74 80.3774 197.887C80.0981 198.034 79.7777 198.107 79.416 198.107C79.0472 198.107 78.7231 198.045 78.4438 197.919C78.1681 197.791 77.9354 197.606 77.7456 197.366C77.5558 197.126 77.4036 196.836 77.2891 196.496C77.1781 196.156 77.1011 195.773 77.0581 195.347V194.853C77.1011 194.423 77.1781 194.038 77.2891 193.698C77.4036 193.358 77.5558 193.068 77.7456 192.828C77.9354 192.584 78.1681 192.4 78.4438 192.274C78.7196 192.146 79.04 192.081 79.4053 192.081C79.7705 192.081 80.0946 192.153 80.3774 192.296C80.6603 192.436 80.8966 192.636 81.0864 192.897C81.2798 193.159 81.4266 193.472 81.5269 193.837C81.6271 194.199 81.6772 194.602 81.6772 195.046ZM80.6782 195.159V195.046C80.6782 194.756 80.6514 194.484 80.5977 194.229C80.5439 193.972 80.458 193.746 80.3398 193.553C80.2217 193.356 80.0659 193.202 79.8726 193.091C79.6792 192.976 79.4411 192.919 79.1582 192.919C78.9076 192.919 78.6891 192.962 78.5029 193.048C78.3203 193.134 78.1646 193.25 78.0356 193.397C77.9067 193.54 77.8011 193.705 77.7188 193.891C77.64 194.074 77.5809 194.264 77.5415 194.46V195.755C77.5988 196.006 77.6919 196.247 77.8208 196.48C77.9533 196.709 78.1287 196.897 78.3472 197.044C78.5692 197.191 78.8431 197.264 79.1689 197.264C79.4375 197.264 79.6667 197.21 79.8564 197.103C80.0498 196.992 80.2056 196.84 80.3237 196.646C80.4455 196.453 80.535 196.229 80.5923 195.975C80.6496 195.721 80.6782 195.449 80.6782 195.159ZM84.1777 193.102V198H83.1841V192.188H84.1509L84.1777 193.102ZM85.9932 192.156L85.9878 193.08C85.9054 193.062 85.8267 193.051 85.7515 193.048C85.6799 193.041 85.5975 193.037 85.5044 193.037C85.2752 193.037 85.0729 193.073 84.8975 193.145C84.722 193.216 84.5734 193.316 84.4517 193.445C84.3299 193.574 84.2332 193.728 84.1616 193.907C84.0936 194.083 84.0488 194.276 84.0273 194.487L83.748 194.648C83.748 194.298 83.7821 193.968 83.8501 193.66C83.9217 193.352 84.0309 193.08 84.1777 192.844C84.3245 192.604 84.5107 192.418 84.7363 192.285C84.9655 192.149 85.2376 192.081 85.5527 192.081C85.6243 192.081 85.7067 192.09 85.7998 192.108C85.8929 192.122 85.9574 192.138 85.9932 192.156ZM86.791 195.159V195.035C86.791 194.616 86.8519 194.228 86.9736 193.87C87.0954 193.508 87.2708 193.195 87.5 192.93C87.7292 192.661 88.0067 192.453 88.3325 192.307C88.6584 192.156 89.0236 192.081 89.4282 192.081C89.8364 192.081 90.2035 192.156 90.5293 192.307C90.8587 192.453 91.138 192.661 91.3672 192.93C91.5999 193.195 91.7772 193.508 91.8989 193.87C92.0207 194.228 92.0815 194.616 92.0815 195.035V195.159C92.0815 195.578 92.0207 195.966 91.8989 196.324C91.7772 196.682 91.5999 196.996 91.3672 197.264C91.138 197.529 90.8605 197.737 90.5347 197.887C90.2124 198.034 89.8472 198.107 89.439 198.107C89.0308 198.107 88.6637 198.034 88.3379 197.887C88.012 197.737 87.7327 197.529 87.5 197.264C87.2708 196.996 87.0954 196.682 86.9736 196.324C86.8519 195.966 86.791 195.578 86.791 195.159ZM87.7847 195.035V195.159C87.7847 195.449 87.8187 195.723 87.8867 195.98C87.9548 196.235 88.0568 196.46 88.1929 196.657C88.3325 196.854 88.5062 197.01 88.7139 197.125C88.9215 197.236 89.1632 197.291 89.439 197.291C89.7111 197.291 89.9492 197.236 90.1533 197.125C90.361 197.01 90.5329 196.854 90.6689 196.657C90.805 196.46 90.9071 196.235 90.9751 195.98C91.0467 195.723 91.0825 195.449 91.0825 195.159V195.035C91.0825 194.749 91.0467 194.478 90.9751 194.224C90.9071 193.966 90.8032 193.739 90.6636 193.542C90.5275 193.341 90.3556 193.184 90.1479 193.069C89.9438 192.955 89.7039 192.897 89.4282 192.897C89.1561 192.897 88.9162 192.955 88.7085 193.069C88.5044 193.184 88.3325 193.341 88.1929 193.542C88.0568 193.739 87.9548 193.966 87.8867 194.224C87.8187 194.478 87.7847 194.749 87.7847 195.035ZM95.0493 196.969L96.5425 192.188H97.1978L97.0688 193.139L95.5488 198H94.9097L95.0493 196.969ZM94.0449 192.188L95.3179 197.022L95.4092 198H94.7378L93.0513 192.188H94.0449ZM98.6265 196.985L99.8403 192.188H100.829L99.1421 198H98.4761L98.6265 196.985ZM97.3428 192.188L98.8037 196.888L98.9702 198H98.3364L96.7734 193.128L96.6445 192.188H97.3428ZM105.483 196.458C105.483 196.315 105.451 196.183 105.386 196.061C105.325 195.936 105.198 195.823 105.005 195.723C104.815 195.619 104.529 195.529 104.146 195.454C103.823 195.386 103.531 195.306 103.27 195.212C103.012 195.119 102.792 195.007 102.609 194.874C102.43 194.742 102.292 194.586 102.196 194.407C102.099 194.228 102.051 194.018 102.051 193.778C102.051 193.549 102.101 193.333 102.201 193.128C102.305 192.924 102.45 192.743 102.636 192.586C102.826 192.428 103.053 192.305 103.318 192.215C103.583 192.126 103.879 192.081 104.205 192.081C104.67 192.081 105.068 192.163 105.397 192.328C105.726 192.493 105.979 192.713 106.154 192.989C106.33 193.261 106.417 193.563 106.417 193.896H105.424C105.424 193.735 105.375 193.58 105.279 193.429C105.186 193.275 105.048 193.148 104.865 193.048C104.686 192.948 104.466 192.897 104.205 192.897C103.929 192.897 103.705 192.94 103.533 193.026C103.365 193.109 103.241 193.214 103.163 193.343C103.087 193.472 103.05 193.608 103.05 193.751C103.05 193.859 103.068 193.956 103.104 194.042C103.143 194.124 103.211 194.201 103.308 194.272C103.404 194.34 103.54 194.405 103.716 194.466C103.891 194.527 104.115 194.588 104.387 194.648C104.863 194.756 105.256 194.885 105.563 195.035C105.871 195.186 106.101 195.37 106.251 195.588C106.401 195.807 106.477 196.072 106.477 196.383C106.477 196.638 106.423 196.87 106.315 197.082C106.212 197.293 106.059 197.475 105.859 197.629C105.662 197.78 105.426 197.898 105.15 197.984C104.878 198.066 104.572 198.107 104.231 198.107C103.719 198.107 103.286 198.016 102.932 197.833C102.577 197.651 102.309 197.415 102.126 197.125C101.943 196.834 101.852 196.528 101.852 196.206H102.851C102.865 196.478 102.944 196.695 103.087 196.856C103.231 197.014 103.406 197.126 103.614 197.194C103.821 197.259 104.027 197.291 104.231 197.291C104.504 197.291 104.731 197.255 104.914 197.184C105.1 197.112 105.241 197.014 105.338 196.888C105.435 196.763 105.483 196.62 105.483 196.458ZM110.443 198.107C110.039 198.107 109.672 198.039 109.342 197.903C109.016 197.764 108.735 197.569 108.499 197.318C108.266 197.067 108.087 196.77 107.962 196.426C107.837 196.083 107.774 195.707 107.774 195.298V195.073C107.774 194.6 107.844 194.179 107.983 193.811C108.123 193.438 108.313 193.123 108.553 192.865C108.793 192.607 109.065 192.412 109.369 192.28C109.674 192.147 109.989 192.081 110.314 192.081C110.73 192.081 111.088 192.153 111.389 192.296C111.693 192.439 111.942 192.64 112.135 192.897C112.329 193.152 112.472 193.452 112.565 193.8C112.658 194.144 112.705 194.52 112.705 194.928V195.374H108.365V194.562H111.711V194.487C111.697 194.229 111.643 193.979 111.55 193.735C111.46 193.492 111.317 193.291 111.12 193.134C110.923 192.976 110.655 192.897 110.314 192.897C110.089 192.897 109.881 192.946 109.691 193.042C109.502 193.136 109.339 193.275 109.203 193.461C109.067 193.648 108.961 193.875 108.886 194.144C108.811 194.412 108.773 194.722 108.773 195.073V195.298C108.773 195.574 108.811 195.834 108.886 196.077C108.965 196.317 109.077 196.528 109.224 196.711C109.375 196.894 109.555 197.037 109.767 197.141C109.981 197.244 110.225 197.296 110.497 197.296C110.848 197.296 111.145 197.225 111.389 197.082C111.632 196.938 111.845 196.747 112.028 196.507L112.629 196.985C112.504 197.175 112.345 197.355 112.151 197.527C111.958 197.699 111.72 197.839 111.437 197.946C111.158 198.054 110.826 198.107 110.443 198.107ZM114.131 197.474C114.131 197.305 114.183 197.164 114.287 197.049C114.394 196.931 114.548 196.872 114.749 196.872C114.949 196.872 115.101 196.931 115.205 197.049C115.312 197.164 115.366 197.305 115.366 197.474C115.366 197.638 115.312 197.778 115.205 197.893C115.101 198.007 114.949 198.064 114.749 198.064C114.548 198.064 114.394 198.007 114.287 197.893C114.183 197.778 114.131 197.638 114.131 197.474ZM118.253 193.343V198H117.254V192.188H118.2L118.253 193.343ZM118.049 194.874L117.587 194.858C117.591 194.46 117.643 194.093 117.743 193.757C117.843 193.417 117.992 193.121 118.189 192.871C118.386 192.62 118.631 192.427 118.925 192.291C119.218 192.151 119.559 192.081 119.945 192.081C120.217 192.081 120.468 192.12 120.697 192.199C120.926 192.274 121.125 192.394 121.293 192.559C121.462 192.724 121.592 192.935 121.686 193.193C121.779 193.451 121.825 193.762 121.825 194.127V198H120.832V194.176C120.832 193.871 120.78 193.628 120.676 193.445C120.576 193.263 120.432 193.13 120.246 193.048C120.06 192.962 119.841 192.919 119.591 192.919C119.297 192.919 119.052 192.971 118.855 193.075C118.658 193.179 118.5 193.322 118.382 193.504C118.264 193.687 118.178 193.896 118.125 194.133C118.074 194.366 118.049 194.613 118.049 194.874ZM121.814 194.326L121.148 194.53C121.152 194.212 121.204 193.905 121.304 193.612C121.408 193.318 121.557 193.057 121.75 192.828C121.947 192.598 122.189 192.418 122.475 192.285C122.762 192.149 123.089 192.081 123.458 192.081C123.77 192.081 124.045 192.122 124.285 192.205C124.529 192.287 124.733 192.414 124.897 192.586C125.066 192.754 125.193 192.971 125.279 193.236C125.365 193.501 125.408 193.816 125.408 194.181V198H124.409V194.17C124.409 193.845 124.357 193.592 124.253 193.413C124.153 193.23 124.009 193.103 123.823 193.032C123.641 192.957 123.422 192.919 123.168 192.919C122.95 192.919 122.756 192.957 122.588 193.032C122.42 193.107 122.278 193.211 122.164 193.343C122.049 193.472 121.961 193.621 121.9 193.789C121.843 193.957 121.814 194.136 121.814 194.326ZM129.573 198.107C129.169 198.107 128.802 198.039 128.472 197.903C128.146 197.764 127.865 197.569 127.629 197.318C127.396 197.067 127.217 196.77 127.092 196.426C126.966 196.083 126.904 195.707 126.904 195.298V195.073C126.904 194.6 126.974 194.179 127.113 193.811C127.253 193.438 127.443 193.123 127.683 192.865C127.923 192.607 128.195 192.412 128.499 192.28C128.803 192.147 129.118 192.081 129.444 192.081C129.86 192.081 130.218 192.153 130.519 192.296C130.823 192.439 131.072 192.64 131.265 192.897C131.458 193.152 131.602 193.452 131.695 193.8C131.788 194.144 131.834 194.52 131.834 194.928V195.374H127.495V194.562H130.841V194.487C130.826 194.229 130.773 193.979 130.68 193.735C130.59 193.492 130.447 193.291 130.25 193.134C130.053 192.976 129.785 192.897 129.444 192.897C129.219 192.897 129.011 192.946 128.821 193.042C128.632 193.136 128.469 193.275 128.333 193.461C128.196 193.648 128.091 193.875 128.016 194.144C127.94 194.412 127.903 194.722 127.903 195.073V195.298C127.903 195.574 127.94 195.834 128.016 196.077C128.094 196.317 128.207 196.528 128.354 196.711C128.504 196.894 128.685 197.037 128.896 197.141C129.111 197.244 129.355 197.296 129.627 197.296C129.978 197.296 130.275 197.225 130.519 197.082C130.762 196.938 130.975 196.747 131.158 196.507L131.759 196.985C131.634 197.175 131.475 197.355 131.281 197.527C131.088 197.699 130.85 197.839 130.567 197.946C130.288 198.054 129.956 198.107 129.573 198.107ZM135.656 198.107C135.252 198.107 134.885 198.039 134.555 197.903C134.229 197.764 133.948 197.569 133.712 197.318C133.479 197.067 133.3 196.77 133.175 196.426C133.049 196.083 132.987 195.707 132.987 195.298V195.073C132.987 194.6 133.057 194.179 133.196 193.811C133.336 193.438 133.526 193.123 133.766 192.865C134.006 192.607 134.278 192.412 134.582 192.28C134.886 192.147 135.201 192.081 135.527 192.081C135.943 192.081 136.301 192.153 136.602 192.296C136.906 192.439 137.155 192.64 137.348 192.897C137.542 193.152 137.685 193.452 137.778 193.8C137.871 194.144 137.917 194.52 137.917 194.928V195.374H133.578V194.562H136.924V194.487C136.91 194.229 136.856 193.979 136.763 193.735C136.673 193.492 136.53 193.291 136.333 193.134C136.136 192.976 135.868 192.897 135.527 192.897C135.302 192.897 135.094 192.946 134.904 193.042C134.715 193.136 134.552 193.275 134.416 193.461C134.279 193.648 134.174 193.875 134.099 194.144C134.023 194.412 133.986 194.722 133.986 195.073V195.298C133.986 195.574 134.023 195.834 134.099 196.077C134.177 196.317 134.29 196.528 134.437 196.711C134.587 196.894 134.768 197.037 134.979 197.141C135.194 197.244 135.438 197.296 135.71 197.296C136.061 197.296 136.358 197.225 136.602 197.082C136.845 196.938 137.058 196.747 137.241 196.507L137.842 196.985C137.717 197.175 137.558 197.355 137.364 197.527C137.171 197.699 136.933 197.839 136.65 197.946C136.371 198.054 136.039 198.107 135.656 198.107Z" fill="#1E293B"/>
</g>
<g opacity="0.5">
<path fill-rule="evenodd" clip-rule="evenodd" d="M200.104 192.625C200.62 192.625 201.042 192.203 201.042 191.688C201.042 191.172 200.62 190.75 200.104 190.75C199.588 190.75 199.167 191.172 199.167 191.688C199.167 192.203 199.588 192.625 200.104 192.625ZM200.104 193.562C199.588 193.562 199.167 193.984 199.167 194.5C199.167 195.016 199.588 195.438 200.104 195.438C200.62 195.438 201.042 195.016 201.042 194.5C201.042 193.984 200.62 193.562 200.104 193.562ZM200.104 196.375C199.588 196.375 199.167 196.797 199.167 197.312C199.167 197.828 199.588 198.25 200.104 198.25C200.62 198.25 201.042 197.828 201.042 197.312C201.042 196.797 200.62 196.375 200.104 196.375Z" fill="#334155"/>
</g>
</g>
<g opacity="0.75" filter="url(#filter2_f_6063_3012)">
<mask id="path-9-outside-1_6063_3012" maskUnits="userSpaceOnUse" x="89.9175" y="216" width="52" height="58" fill="black">
<rect fill="white" x="89.9175" y="216" width="52" height="58"/>
<path d="M107.366 223.296C104.194 224.169 101.043 225.12 97.917 226.147C97.6313 226.239 97.3773 226.41 97.1841 226.639C96.9909 226.869 96.8663 227.149 96.8245 227.446C94.9792 241.292 99.2426 251.394 104.329 258.049C106.481 260.896 109.049 263.403 111.946 265.487C113.099 266.299 114.118 266.885 114.921 267.262C115.32 267.451 115.645 267.582 115.896 267.655C116.007 267.688 116.119 267.716 116.233 267.738C116.345 267.716 116.456 267.688 116.566 267.655C116.819 267.579 117.145 267.448 117.545 267.262C118.345 266.885 119.367 266.296 120.52 265.487C123.417 263.403 125.985 260.896 128.137 258.049C133.223 251.397 137.486 241.292 135.641 227.446C135.599 227.149 135.475 226.869 135.282 226.639C135.088 226.41 134.834 226.239 134.549 226.147C132.38 225.437 128.72 224.282 125.099 223.299C121.402 222.297 118.001 221.554 116.233 221.554C114.468 221.554 111.063 222.293 107.366 223.296ZM106.48 219.865C110.094 218.882 113.935 218 116.233 218C118.531 218 122.371 218.882 125.985 219.865C129.682 220.864 133.41 222.047 135.601 222.763C136.518 223.065 137.33 223.62 137.945 224.364C138.56 225.107 138.953 226.009 139.079 226.966C141.064 241.878 136.457 252.93 130.868 260.241C128.497 263.367 125.671 266.121 122.485 268.411C121.384 269.205 120.216 269.902 118.994 270.493C118.061 270.932 117.059 271.292 116.233 271.292C115.407 271.292 114.408 270.932 113.472 270.493C112.25 269.902 111.082 269.205 109.981 268.411C106.794 266.121 103.968 263.367 101.597 260.241C96.0084 252.93 91.402 241.878 93.3871 226.966C93.5127 226.009 93.9055 225.107 94.5206 224.364C95.1358 223.62 95.9481 223.065 96.8644 222.763C100.046 221.72 103.252 220.754 106.48 219.865Z"/>
</mask>
<path d="M107.366 223.296C104.194 224.169 101.043 225.12 97.917 226.147C97.6313 226.239 97.3773 226.41 97.1841 226.639C96.9909 226.869 96.8663 227.149 96.8245 227.446C94.9792 241.292 99.2426 251.394 104.329 258.049C106.481 260.896 109.049 263.403 111.946 265.487C113.099 266.299 114.118 266.885 114.921 267.262C115.32 267.451 115.645 267.582 115.896 267.655C116.007 267.688 116.119 267.716 116.233 267.738C116.345 267.716 116.456 267.688 116.566 267.655C116.819 267.579 117.145 267.448 117.545 267.262C118.345 266.885 119.367 266.296 120.52 265.487C123.417 263.403 125.985 260.896 128.137 258.049C133.223 251.397 137.486 241.292 135.641 227.446C135.599 227.149 135.475 226.869 135.282 226.639C135.088 226.41 134.834 226.239 134.549 226.147C132.38 225.437 128.72 224.282 125.099 223.299C121.402 222.297 118.001 221.554 116.233 221.554C114.468 221.554 111.063 222.293 107.366 223.296ZM106.48 219.865C110.094 218.882 113.935 218 116.233 218C118.531 218 122.371 218.882 125.985 219.865C129.682 220.864 133.41 222.047 135.601 222.763C136.518 223.065 137.33 223.62 137.945 224.364C138.56 225.107 138.953 226.009 139.079 226.966C141.064 241.878 136.457 252.93 130.868 260.241C128.497 263.367 125.671 266.121 122.485 268.411C121.384 269.205 120.216 269.902 118.994 270.493C118.061 270.932 117.059 271.292 116.233 271.292C115.407 271.292 114.408 270.932 113.472 270.493C112.25 269.902 111.082 269.205 109.981 268.411C106.794 266.121 103.968 263.367 101.597 260.241C96.0084 252.93 91.402 241.878 93.3871 226.966C93.5127 226.009 93.9055 225.107 94.5206 224.364C95.1358 223.62 95.9481 223.065 96.8644 222.763C100.046 221.72 103.252 220.754 106.48 219.865Z" fill="white"/>
<path d="M107.366 223.296L106.843 221.365L106.835 221.368L107.366 223.296ZM97.917 226.147L98.5308 228.05L98.541 228.047L97.917 226.147ZM96.8245 227.446L94.844 227.167L94.843 227.175L94.842 227.182L96.8245 227.446ZM104.329 258.049L105.924 256.843L105.918 256.834L104.329 258.049ZM111.946 265.487L110.778 267.11L110.786 267.116L110.794 267.121L111.946 265.487ZM114.921 267.262L115.775 265.453L115.77 265.451L114.921 267.262ZM115.896 267.655L116.477 265.741L116.467 265.738L116.457 265.735L115.896 267.655ZM116.233 267.738L115.854 269.702L116.236 269.776L116.617 269.701L116.233 267.738ZM116.566 267.655L115.994 265.738L115.981 265.742L116.566 267.655ZM117.545 267.262L118.391 269.074L118.397 269.071L117.545 267.262ZM120.52 265.487L121.669 267.123L121.678 267.117L121.687 267.11L120.52 265.487ZM128.137 258.049L126.548 256.834L126.542 256.843L128.137 258.049ZM135.641 227.446L137.624 227.182L137.623 227.175L137.622 227.167L135.641 227.446ZM134.549 226.147L133.927 228.048L133.935 228.05L134.549 226.147ZM125.099 223.299L125.623 221.369L125.623 221.369L125.099 223.299ZM106.48 219.865L105.956 217.935L105.949 217.937L106.48 219.865ZM125.985 219.865L125.461 221.795L125.463 221.796L125.985 219.865ZM135.601 222.763L136.228 220.864L136.222 220.862L135.601 222.763ZM139.079 226.966L137.096 227.226L137.096 227.23L139.079 226.966ZM130.868 260.241L129.279 259.026L129.275 259.032L130.868 260.241ZM122.485 268.411L121.318 266.787L121.314 266.789L122.485 268.411ZM118.994 270.493L119.847 272.302L119.856 272.297L119.865 272.293L118.994 270.493ZM113.472 270.493L112.601 272.293L112.611 272.298L112.621 272.303L113.472 270.493ZM109.981 268.411L111.151 266.789L111.148 266.787L109.981 268.411ZM101.597 260.241L103.191 259.032L103.186 259.026L101.597 260.241ZM93.3871 226.966L95.3696 227.23L95.3701 227.226L93.3871 226.966ZM96.8644 222.763L96.2417 220.862L96.2373 220.864L96.8644 222.763ZM106.835 221.368C103.632 222.25 100.45 223.21 97.2929 224.247L98.541 228.047C101.636 227.03 104.756 226.089 107.897 225.224L106.835 221.368ZM97.3031 224.243C96.6601 224.451 96.0884 224.835 95.6535 225.352L98.7147 227.927C98.6663 227.984 98.6025 228.027 98.5308 228.05L97.3031 224.243ZM95.6535 225.352C95.2186 225.869 94.938 226.498 94.844 227.167L98.805 227.724C98.7945 227.799 98.7632 227.869 98.7147 227.927L95.6535 225.352ZM94.842 227.182C92.9188 241.613 97.37 252.238 102.74 259.263L105.918 256.834C101.115 250.551 97.0397 240.971 98.807 227.71L94.842 227.182ZM102.733 259.255C105.007 262.262 107.719 264.909 110.778 267.11L113.114 263.863C110.379 261.896 107.956 259.53 105.924 256.843L102.733 259.255ZM110.794 267.121C112.024 267.989 113.145 268.638 114.071 269.073L115.77 265.451C115.091 265.133 114.173 264.61 113.099 263.852L110.794 267.121ZM114.066 269.07C114.506 269.278 114.939 269.459 115.336 269.575L116.457 265.735C116.352 265.704 116.135 265.623 115.775 265.453L114.066 269.07ZM115.316 269.569C115.493 269.622 115.672 269.667 115.854 269.702L116.612 265.774C116.566 265.766 116.521 265.754 116.477 265.741L115.316 269.569ZM116.617 269.701C116.797 269.666 116.975 269.621 117.15 269.568L115.981 265.742C115.938 265.755 115.893 265.767 115.848 265.775L116.617 269.701ZM117.138 269.571C117.526 269.456 117.953 269.279 118.391 269.074L116.699 265.449C116.338 265.618 116.112 265.703 115.994 265.738L117.138 269.571ZM118.397 269.071C119.319 268.637 120.441 267.986 121.669 267.123L119.37 263.85C118.293 264.606 117.37 265.134 116.693 265.452L118.397 269.071ZM121.687 267.11C124.747 264.909 127.459 262.262 129.732 259.255L126.542 256.843C124.51 259.53 122.086 261.896 119.352 263.863L121.687 267.11ZM129.726 259.264C135.096 252.241 139.547 241.613 137.624 227.182L133.659 227.71C135.426 240.971 131.35 250.554 126.548 256.834L129.726 259.264ZM137.622 227.167C137.528 226.498 137.247 225.869 136.812 225.352L133.751 227.927C133.702 227.869 133.671 227.799 133.661 227.724L137.622 227.167ZM136.812 225.352C136.377 224.835 135.806 224.451 135.163 224.243L133.935 228.05C133.863 228.027 133.799 227.984 133.751 227.927L136.812 225.352ZM135.171 224.246C132.986 223.531 129.29 222.364 125.623 221.369L124.575 225.229C128.15 226.199 131.775 227.344 133.927 228.048L135.171 224.246ZM125.623 221.369C121.975 220.38 118.314 219.554 116.233 219.554V223.554C117.689 223.554 120.829 224.213 124.576 225.229L125.623 221.369ZM116.233 219.554C114.156 219.554 110.493 220.376 106.843 221.365L107.89 225.226C111.634 224.211 114.779 223.554 116.233 223.554V219.554ZM107.005 221.795C110.664 220.8 114.246 220 116.233 220V216C113.623 216 109.524 216.965 105.956 217.935L107.005 221.795ZM116.233 220C118.219 220 121.801 220.8 125.461 221.795L126.51 217.935C122.942 216.965 118.843 216 116.233 216V220ZM125.463 221.796C129.112 222.782 132.801 223.952 134.98 224.664L136.222 220.862C134.018 220.141 130.253 218.947 126.507 217.934L125.463 221.796ZM134.974 224.662C135.533 224.847 136.029 225.185 136.404 225.639L139.486 223.089C138.631 222.056 137.502 221.284 136.228 220.864L134.974 224.662ZM136.404 225.639C136.779 226.092 137.019 226.643 137.096 227.226L141.062 226.706C140.887 225.376 140.341 224.123 139.486 223.089L136.404 225.639ZM137.096 227.23C139.003 241.557 134.585 252.086 129.279 259.026L132.457 261.455C138.33 253.773 143.124 242.199 141.061 226.702L137.096 227.23ZM129.275 259.032C127.024 262 124.342 264.614 121.318 266.787L123.652 270.035C127.001 267.629 129.97 264.735 132.462 261.449L129.275 259.032ZM121.314 266.789C120.308 267.515 119.24 268.152 118.123 268.692L119.865 272.293C121.192 271.651 122.46 270.895 123.655 270.033L121.314 266.789ZM118.141 268.684C117.248 269.105 116.587 269.292 116.233 269.292V273.292C117.53 273.292 118.875 272.76 119.847 272.302L118.141 268.684ZM116.233 269.292C115.879 269.292 115.223 269.106 114.322 268.682L112.621 272.303C113.592 272.759 114.935 273.292 116.233 273.292V269.292ZM114.342 268.692C113.225 268.152 112.158 267.515 111.151 266.789L108.811 270.033C110.006 270.895 111.274 271.651 112.601 272.293L114.342 268.692ZM111.148 266.787C108.123 264.614 105.441 262 103.191 259.032L100.004 261.449C102.495 264.735 105.465 267.629 108.814 270.035L111.148 266.787ZM103.186 259.026C97.8811 252.086 93.4624 241.557 95.3696 227.23L91.4046 226.702C89.3416 242.199 94.1358 253.773 100.009 261.455L103.186 259.026ZM95.3701 227.226C95.4467 226.643 95.6864 226.092 96.0617 225.639L92.9796 223.089C92.1247 224.123 91.5786 225.376 91.4041 226.706L95.3701 227.226ZM96.0617 225.639C96.437 225.185 96.9326 224.847 97.4916 224.662L96.2373 220.864C94.9637 221.284 93.8346 222.056 92.9796 223.089L96.0617 225.639ZM97.4872 224.663C100.639 223.631 103.814 222.674 107.011 221.793L105.949 217.937C102.691 218.834 99.4538 219.81 96.2417 220.862L97.4872 224.663Z" fill="url(#paint2_linear_6063_3012)" mask="url(#path-9-outside-1_6063_3012)"/>
</g>
<rect x="77" y="208" width="79" height="76" fill="url(#paint3_linear_6063_3012)"/>
<path d="M106.275 218.443L106.275 218.443C109.883 217.457 113.949 216.5 116.5 216.5C119.051 216.5 123.116 217.456 126.724 218.443C130.487 219.465 134.271 220.672 136.49 221.401L136.494 221.402C137.687 221.798 138.743 222.524 139.542 223.495C140.341 224.466 140.851 225.643 141.014 226.89C143.072 242.433 138.291 254.021 132.447 261.707C129.968 264.993 127.014 267.888 123.681 270.295M106.275 218.443L122.801 269.08M106.275 218.443L106.27 218.444C102.993 219.352 99.7387 220.338 96.5089 221.401L96.5089 221.401L96.5056 221.403C95.313 221.798 94.2567 222.524 93.4576 223.495L94.6159 224.448L93.4576 223.495C92.6591 224.466 92.1496 225.642 91.9864 226.888C89.928 242.433 94.7088 254.021 100.553 261.707C103.032 264.993 105.987 267.888 109.319 270.296M106.275 218.443L110.199 269.08M123.681 270.295C123.681 270.296 123.68 270.296 123.68 270.296L122.801 269.08M123.681 270.295C123.682 270.295 123.682 270.295 123.682 270.295L122.801 269.08M123.681 270.295C122.501 271.151 121.249 271.902 119.939 272.539L119.932 272.542L119.925 272.545C118.956 273.005 117.688 273.5 116.5 273.5C115.312 273.5 114.046 273.004 113.076 272.546L113.069 272.543L113.061 272.539C111.751 271.902 110.499 271.151 109.319 270.296M122.801 269.08C121.692 269.885 120.515 270.591 119.283 271.19C118.343 271.635 117.333 272 116.5 272C115.667 272 114.66 271.635 113.717 271.19C112.485 270.591 111.308 269.885 110.199 269.08M109.319 270.296C109.32 270.296 109.32 270.296 109.32 270.296L110.199 269.08M109.319 270.296C109.319 270.295 109.318 270.295 109.318 270.295L110.199 269.08" fill="white" stroke="white" stroke-width="3"/>
<mask id="path-13-outside-2_6063_3012" maskUnits="userSpaceOnUse" x="92" y="217" width="49" height="56" fill="black">
<rect fill="white" x="92" y="217" width="49" height="56"/>
<path fill-rule="evenodd" clip-rule="evenodd" d="M98.0391 226.255C101.19 225.215 104.366 224.251 107.563 223.366C111.29 222.35 114.721 221.601 116.5 221.601C118.283 221.601 121.71 222.354 125.437 223.369C129.086 224.365 132.775 225.536 134.961 226.255C135.249 226.348 135.505 226.521 135.7 226.754C135.894 226.987 136.02 227.27 136.062 227.571C137.922 241.601 133.625 251.841 128.498 258.581C126.329 261.465 123.741 264.006 120.821 266.117C119.659 266.937 118.628 267.535 117.823 267.916C117.42 268.105 117.091 268.238 116.836 268.314C116.725 268.348 116.613 268.376 116.5 268.399C116.386 268.377 116.272 268.348 116.161 268.314C115.908 268.24 115.58 268.107 115.177 267.916C114.368 267.535 113.341 266.941 112.179 266.117C109.259 264.006 106.671 261.465 104.502 258.581C99.3752 251.838 95.0781 241.601 96.9379 227.571C96.9801 227.27 97.1057 226.987 97.3004 226.754C97.4952 226.521 97.7511 226.348 98.0391 226.255ZM116.5 218C114.184 218 110.313 218.894 106.67 219.89C103.417 220.791 100.185 221.77 96.9782 222.826C96.0547 223.133 95.2358 223.695 94.6159 224.448C93.9959 225.202 93.5999 226.116 93.4734 227.085C91.4725 242.195 96.1154 253.393 101.749 260.802C104.138 263.97 106.987 266.76 110.199 269.08C111.308 269.885 112.485 270.591 113.717 271.19C114.66 271.635 115.667 272 116.5 272C117.333 272 118.343 271.635 119.283 271.19C120.515 270.591 121.692 269.885 122.801 269.08C126.013 266.76 128.862 263.97 131.251 260.802C136.885 253.393 141.527 242.195 139.527 227.085C139.4 226.116 139.004 225.202 138.384 224.448C137.764 223.695 136.945 223.133 136.022 222.826C133.813 222.1 130.056 220.902 126.33 219.89C122.687 218.894 118.816 218 116.5 218ZM116.462 226.027C112.358 226.032 108.423 227.673 105.52 230.59C102.618 233.507 100.985 237.462 100.98 241.587C100.985 245.712 102.618 249.666 105.52 252.583C108.423 255.5 112.358 257.141 116.462 257.146C120.567 257.142 124.502 255.501 127.405 252.584C130.307 249.667 131.94 245.712 131.944 241.587C131.939 237.462 130.307 233.507 127.404 230.59C124.502 227.673 120.567 226.032 116.462 226.027ZM120.491 235.106C119.713 235.111 118.946 235.294 118.248 235.64C117.55 235.987 116.939 236.488 116.462 237.106C115.985 236.488 115.374 235.987 114.677 235.64C113.979 235.294 113.212 235.111 112.434 235.106C109.532 235.106 107.172 237.616 107.172 240.707V246.831C107.172 247.161 107.303 247.478 107.535 247.711C107.767 247.945 108.082 248.076 108.411 248.076C108.739 248.076 109.054 247.945 109.287 247.711C109.519 247.478 109.65 247.161 109.65 246.831V240.703C109.65 238.985 110.903 237.591 112.442 237.591C113.982 237.591 115.235 238.989 115.235 240.703V246.827C115.235 247.157 115.366 247.474 115.598 247.707C115.83 247.941 116.146 248.072 116.474 248.072C116.802 248.072 117.117 247.941 117.35 247.707C117.582 247.474 117.713 247.157 117.713 246.827V240.703C117.713 238.985 118.966 237.591 120.505 237.591C122.045 237.591 123.298 238.989 123.298 240.703V246.827C123.298 247.157 123.429 247.474 123.661 247.707C123.893 247.941 124.208 248.072 124.537 248.072C124.865 248.072 125.18 247.941 125.413 247.707C125.645 247.474 125.776 247.157 125.776 246.827V240.703C125.753 237.616 123.393 235.106 120.491 235.106Z"/>
</mask>
<path fill-rule="evenodd" clip-rule="evenodd" d="M98.0391 226.255C101.19 225.215 104.366 224.251 107.563 223.366C111.29 222.35 114.721 221.601 116.5 221.601C118.283 221.601 121.71 222.354 125.437 223.369C129.086 224.365 132.775 225.536 134.961 226.255C135.249 226.348 135.505 226.521 135.7 226.754C135.894 226.987 136.02 227.27 136.062 227.571C137.922 241.601 133.625 251.841 128.498 258.581C126.329 261.465 123.741 264.006 120.821 266.117C119.659 266.937 118.628 267.535 117.823 267.916C117.42 268.105 117.091 268.238 116.836 268.314C116.725 268.348 116.613 268.376 116.5 268.399C116.386 268.377 116.272 268.348 116.161 268.314C115.908 268.24 115.58 268.107 115.177 267.916C114.368 267.535 113.341 266.941 112.179 266.117C109.259 264.006 106.671 261.465 104.502 258.581C99.3752 251.838 95.0781 241.601 96.9379 227.571C96.9801 227.27 97.1057 226.987 97.3004 226.754C97.4952 226.521 97.7511 226.348 98.0391 226.255ZM116.5 218C114.184 218 110.313 218.894 106.67 219.89C103.417 220.791 100.185 221.77 96.9782 222.826C96.0547 223.133 95.2358 223.695 94.6159 224.448C93.9959 225.202 93.5999 226.116 93.4734 227.085C91.4725 242.195 96.1154 253.393 101.749 260.802C104.138 263.97 106.987 266.76 110.199 269.08C111.308 269.885 112.485 270.591 113.717 271.19C114.66 271.635 115.667 272 116.5 272C117.333 272 118.343 271.635 119.283 271.19C120.515 270.591 121.692 269.885 122.801 269.08C126.013 266.76 128.862 263.97 131.251 260.802C136.885 253.393 141.527 242.195 139.527 227.085C139.4 226.116 139.004 225.202 138.384 224.448C137.764 223.695 136.945 223.133 136.022 222.826C133.813 222.1 130.056 220.902 126.33 219.89C122.687 218.894 118.816 218 116.5 218ZM116.462 226.027C112.358 226.032 108.423 227.673 105.52 230.59C102.618 233.507 100.985 237.462 100.98 241.587C100.985 245.712 102.618 249.666 105.52 252.583C108.423 255.5 112.358 257.141 116.462 257.146C120.567 257.142 124.502 255.501 127.405 252.584C130.307 249.667 131.94 245.712 131.944 241.587C131.939 237.462 130.307 233.507 127.404 230.59C124.502 227.673 120.567 226.032 116.462 226.027ZM120.491 235.106C119.713 235.111 118.946 235.294 118.248 235.64C117.55 235.987 116.939 236.488 116.462 237.106C115.985 236.488 115.374 235.987 114.677 235.64C113.979 235.294 113.212 235.111 112.434 235.106C109.532 235.106 107.172 237.616 107.172 240.707V246.831C107.172 247.161 107.303 247.478 107.535 247.711C107.767 247.945 108.082 248.076 108.411 248.076C108.739 248.076 109.054 247.945 109.287 247.711C109.519 247.478 109.65 247.161 109.65 246.831V240.703C109.65 238.985 110.903 237.591 112.442 237.591C113.982 237.591 115.235 238.989 115.235 240.703V246.827C115.235 247.157 115.366 247.474 115.598 247.707C115.83 247.941 116.146 248.072 116.474 248.072C116.802 248.072 117.117 247.941 117.35 247.707C117.582 247.474 117.713 247.157 117.713 246.827V240.703C117.713 238.985 118.966 237.591 120.505 237.591C122.045 237.591 123.298 238.989 123.298 240.703V246.827C123.298 247.157 123.429 247.474 123.661 247.707C123.893 247.941 124.208 248.072 124.537 248.072C124.865 248.072 125.18 247.941 125.413 247.707C125.645 247.474 125.776 247.157 125.776 246.827V240.703C125.753 237.616 123.393 235.106 120.491 235.106Z" fill="url(#paint4_linear_6063_3012)"/>
<path fill-rule="evenodd" clip-rule="evenodd" d="M98.0391 226.255C101.19 225.215 104.366 224.251 107.563 223.366C111.29 222.35 114.721 221.601 116.5 221.601C118.283 221.601 121.71 222.354 125.437 223.369C129.086 224.365 132.775 225.536 134.961 226.255C135.249 226.348 135.505 226.521 135.7 226.754C135.894 226.987 136.02 227.27 136.062 227.571C137.922 241.601 133.625 251.841 128.498 258.581C126.329 261.465 123.741 264.006 120.821 266.117C119.659 266.937 118.628 267.535 117.823 267.916C117.42 268.105 117.091 268.238 116.836 268.314C116.725 268.348 116.613 268.376 116.5 268.399C116.386 268.377 116.272 268.348 116.161 268.314C115.908 268.24 115.58 268.107 115.177 267.916C114.368 267.535 113.341 266.941 112.179 266.117C109.259 264.006 106.671 261.465 104.502 258.581C99.3752 251.838 95.0781 241.601 96.9379 227.571C96.9801 227.27 97.1057 226.987 97.3004 226.754C97.4952 226.521 97.7511 226.348 98.0391 226.255ZM116.5 218C114.184 218 110.313 218.894 106.67 219.89C103.417 220.791 100.185 221.77 96.9782 222.826C96.0547 223.133 95.2358 223.695 94.6159 224.448C93.9959 225.202 93.5999 226.116 93.4734 227.085C91.4725 242.195 96.1154 253.393 101.749 260.802C104.138 263.97 106.987 266.76 110.199 269.08C111.308 269.885 112.485 270.591 113.717 271.19C114.66 271.635 115.667 272 116.5 272C117.333 272 118.343 271.635 119.283 271.19C120.515 270.591 121.692 269.885 122.801 269.08C126.013 266.76 128.862 263.97 131.251 260.802C136.885 253.393 141.527 242.195 139.527 227.085C139.4 226.116 139.004 225.202 138.384 224.448C137.764 223.695 136.945 223.133 136.022 222.826C133.813 222.1 130.056 220.902 126.33 219.89C122.687 218.894 118.816 218 116.5 218ZM116.462 226.027C112.358 226.032 108.423 227.673 105.52 230.59C102.618 233.507 100.985 237.462 100.98 241.587C100.985 245.712 102.618 249.666 105.52 252.583C108.423 255.5 112.358 257.141 116.462 257.146C120.567 257.142 124.502 255.501 127.405 252.584C130.307 249.667 131.94 245.712 131.944 241.587C131.939 237.462 130.307 233.507 127.404 230.59C124.502 227.673 120.567 226.032 116.462 226.027ZM120.491 235.106C119.713 235.111 118.946 235.294 118.248 235.64C117.55 235.987 116.939 236.488 116.462 237.106C115.985 236.488 115.374 235.987 114.677 235.64C113.979 235.294 113.212 235.111 112.434 235.106C109.532 235.106 107.172 237.616 107.172 240.707V246.831C107.172 247.161 107.303 247.478 107.535 247.711C107.767 247.945 108.082 248.076 108.411 248.076C108.739 248.076 109.054 247.945 109.287 247.711C109.519 247.478 109.65 247.161 109.65 246.831V240.703C109.65 238.985 110.903 237.591 112.442 237.591C113.982 237.591 115.235 238.989 115.235 240.703V246.827C115.235 247.157 115.366 247.474 115.598 247.707C115.83 247.941 116.146 248.072 116.474 248.072C116.802 248.072 117.117 247.941 117.35 247.707C117.582 247.474 117.713 247.157 117.713 246.827V240.703C117.713 238.985 118.966 237.591 120.505 237.591C122.045 237.591 123.298 238.989 123.298 240.703V246.827C123.298 247.157 123.429 247.474 123.661 247.707C123.893 247.941 124.208 248.072 124.537 248.072C124.865 248.072 125.18 247.941 125.413 247.707C125.645 247.474 125.776 247.157 125.776 246.827V240.703C125.753 237.616 123.393 235.106 120.491 235.106Z" fill="url(#paint5_linear_6063_3012)"/>
<path d="M107.563 223.366L107.3 222.401L107.296 222.402L107.563 223.366ZM98.0391 226.255L98.3475 227.206L98.3526 227.205L98.0391 226.255ZM125.437 223.369L125.7 222.405L125.7 222.405L125.437 223.369ZM134.961 226.255L134.648 227.205L134.653 227.206L134.961 226.255ZM136.062 227.571L137.053 227.44L137.052 227.433L136.062 227.571ZM128.498 258.581L127.702 257.975L127.699 257.98L128.498 258.581ZM120.821 266.117L121.397 266.934L121.407 266.928L120.821 266.117ZM117.823 267.916L118.247 268.821L118.251 268.82L117.823 267.916ZM116.836 268.314L116.549 267.356L116.542 267.358L116.836 268.314ZM116.5 268.399L116.31 269.38L116.501 269.418L116.693 269.38L116.5 268.399ZM116.161 268.314L116.453 267.358L116.443 267.355L116.161 268.314ZM115.177 267.916L115.606 267.013L115.604 267.012L115.177 267.916ZM112.179 266.117L111.593 266.928L111.601 266.933L112.179 266.117ZM104.502 258.581L105.301 257.98L105.298 257.976L104.502 258.581ZM96.9379 227.571L95.9476 227.433L95.9466 227.44L96.9379 227.571ZM106.67 219.89L106.407 218.925L106.403 218.926L106.67 219.89ZM96.9782 222.826L96.6654 221.876L96.6631 221.877L96.9782 222.826ZM94.6159 224.448L93.8437 223.813L93.8437 223.813L94.6159 224.448ZM93.4734 227.085L94.4647 227.217L94.465 227.215L93.4734 227.085ZM101.749 260.802L102.547 260.199L102.545 260.196L101.749 260.802ZM110.199 269.08L110.786 268.271L110.784 268.27L110.199 269.08ZM113.717 271.19L113.28 272.089L113.29 272.094L113.717 271.19ZM119.283 271.19L119.711 272.094L119.72 272.089L119.283 271.19ZM122.801 269.08L122.216 268.27L122.214 268.271L122.801 269.08ZM131.251 260.802L130.455 260.196L130.453 260.199L131.251 260.802ZM139.527 227.085L138.535 227.215L138.535 227.217L139.527 227.085ZM138.384 224.448L139.156 223.813V223.813L138.384 224.448ZM136.022 222.826L136.337 221.877L136.334 221.876L136.022 222.826ZM126.33 219.89L126.066 220.854L126.068 220.855L126.33 219.89ZM105.52 230.59L104.811 229.885L104.811 229.885L105.52 230.59ZM116.462 226.027L116.463 225.027L116.461 225.027L116.462 226.027ZM100.98 241.587L99.9803 241.586L99.9803 241.588L100.98 241.587ZM105.52 252.583L104.811 253.289L104.811 253.289L105.52 252.583ZM116.462 257.146L116.461 258.146H116.463L116.462 257.146ZM127.405 252.584L128.114 253.289L128.114 253.289L127.405 252.584ZM131.944 241.587L132.944 241.588L132.944 241.586L131.944 241.587ZM127.404 230.59L128.113 229.885L128.113 229.885L127.404 230.59ZM118.248 235.64L118.692 236.536H118.692L118.248 235.64ZM120.491 235.106V234.106L120.484 234.106L120.491 235.106ZM116.462 237.106L115.67 237.717L116.461 238.742L117.253 237.717L116.462 237.106ZM114.677 235.64L115.121 234.745L115.121 234.745L114.677 235.64ZM112.434 235.106L112.441 234.106H112.434V235.106ZM107.535 247.711L108.244 247.006L108.244 247.006L107.535 247.711ZM109.287 247.711L109.996 248.417L109.996 248.417L109.287 247.711ZM115.598 247.707L116.307 247.002L116.307 247.002L115.598 247.707ZM117.35 247.707L118.059 248.413L118.059 248.413L117.35 247.707ZM123.661 247.707L124.37 247.002L124.37 247.002L123.661 247.707ZM125.413 247.707L124.704 247.002L124.704 247.002L125.413 247.707ZM125.776 240.703H126.776L126.775 240.696L125.776 240.703ZM107.296 222.402C104.083 223.292 100.892 224.26 97.7256 225.306L98.3526 227.205C101.488 226.169 104.648 225.211 107.83 224.33L107.296 222.402ZM116.5 220.601C114.564 220.601 111.003 221.392 107.3 222.401L107.826 224.331C111.577 223.309 114.877 222.601 116.5 222.601V220.601ZM125.7 222.405C121.998 221.396 118.44 220.601 116.5 220.601V222.601C118.126 222.601 121.422 223.312 125.174 224.334L125.7 222.405ZM135.273 225.305C133.08 224.584 129.372 223.407 125.7 222.405L125.173 224.334C128.8 225.324 132.471 226.489 134.648 227.205L135.273 225.305ZM136.467 226.113C136.151 225.736 135.737 225.455 135.269 225.304L134.653 227.206C134.761 227.242 134.858 227.307 134.933 227.396L136.467 226.113ZM137.052 227.433C136.984 226.947 136.782 226.489 136.467 226.113L134.933 227.396C135.007 227.485 135.055 227.594 135.072 227.71L137.052 227.433ZM129.294 259.186C134.562 252.261 138.952 241.761 137.053 227.44L135.071 227.703C136.892 241.442 132.688 251.421 127.702 257.975L129.294 259.186ZM121.407 266.928C124.408 264.757 127.068 262.146 129.298 259.182L127.699 257.98C125.59 260.784 123.074 263.254 120.235 265.307L121.407 266.928ZM118.251 268.82C119.118 268.409 120.198 267.781 121.397 266.934L120.244 265.3C119.12 266.094 118.139 266.66 117.395 267.012L118.251 268.82ZM117.123 269.272C117.446 269.175 117.825 269.019 118.247 268.821L117.398 267.011C117.014 267.191 116.736 267.3 116.549 267.356L117.123 269.272ZM116.693 269.38C116.84 269.351 116.986 269.314 117.129 269.27L116.542 267.358C116.465 267.382 116.386 267.402 116.307 267.418L116.693 269.38ZM115.869 269.271C116.014 269.315 116.161 269.352 116.31 269.38L116.69 267.417C116.61 267.401 116.531 267.382 116.453 267.358L115.869 269.271ZM114.748 268.819C115.171 269.02 115.553 269.178 115.879 269.274L116.443 267.355C116.263 267.302 115.989 267.195 115.606 267.013L114.748 268.819ZM111.601 266.933C112.802 267.784 113.88 268.41 114.751 268.821L115.604 267.012C114.857 266.659 113.88 266.097 112.758 265.301L111.601 266.933ZM103.702 259.182C105.932 262.146 108.592 264.757 111.593 266.928L112.765 265.307C109.926 263.254 107.41 260.784 105.301 257.98L103.702 259.182ZM95.9466 227.44C94.0482 241.761 98.4381 252.257 103.706 259.186L105.298 257.976C100.312 251.418 96.108 241.442 97.9293 227.703L95.9466 227.44ZM96.5334 226.113C96.2184 226.489 96.0156 226.947 95.9476 227.433L97.9283 227.71C97.9446 227.594 97.993 227.485 98.0674 227.396L96.5334 226.113ZM97.7307 225.304C97.2633 225.455 96.8485 225.736 96.5334 226.113L98.0674 227.396C98.1418 227.307 98.239 227.242 98.3475 227.206L97.7307 225.304ZM106.934 220.854C110.599 219.853 114.34 219 116.5 219V217C114.027 217 110.026 217.936 106.407 218.925L106.934 220.854ZM97.2911 223.776C100.483 222.725 103.699 221.75 106.937 220.854L106.403 218.926C103.134 219.831 99.8875 220.815 96.6654 221.876L97.2911 223.776ZM95.388 225.084C95.8886 224.476 96.5491 224.022 97.2933 223.775L96.6631 221.877C95.5602 222.243 94.5831 222.915 93.8437 223.813L95.388 225.084ZM94.465 227.215C94.5673 226.431 94.8875 225.692 95.388 225.084L93.8437 223.813C93.1043 224.712 92.6325 225.801 92.4818 226.956L94.465 227.215ZM102.545 260.196C97.0526 252.974 92.5024 242.036 94.4647 227.217L92.482 226.954C90.4427 242.355 95.1783 253.813 100.953 261.407L102.545 260.196ZM110.784 268.27C107.653 266.008 104.877 263.288 102.547 260.199L100.95 261.404C103.4 264.652 106.32 267.512 109.613 269.891L110.784 268.27ZM114.154 270.291C112.975 269.717 111.848 269.041 110.786 268.271L109.611 269.89C110.768 270.729 111.996 271.465 113.28 272.089L114.154 270.291ZM116.5 271C115.905 271 115.07 270.723 114.144 270.286L113.29 272.094C114.251 272.548 115.43 273 116.5 273V271ZM118.855 270.286C117.934 270.723 117.096 271 116.5 271V273C117.57 273 118.752 272.548 119.711 272.093L118.855 270.286ZM122.214 268.271C121.152 269.041 120.025 269.717 118.846 270.291L119.72 272.089C121.004 271.465 122.232 270.729 123.389 269.89L122.214 268.271ZM130.453 260.199C128.123 263.288 125.347 266.008 122.216 268.27L123.387 269.891C126.68 267.512 129.6 264.652 132.05 261.404L130.453 260.199ZM138.535 227.217C140.498 242.036 135.947 252.974 130.455 260.196L132.047 261.407C137.822 253.813 142.557 242.355 140.518 226.954L138.535 227.217ZM137.612 225.084C138.113 225.692 138.433 226.431 138.535 227.215L140.518 226.956C140.367 225.801 139.896 224.712 139.156 223.813L137.612 225.084ZM135.707 223.775C136.451 224.022 137.111 224.476 137.612 225.084L139.156 223.813C138.417 222.915 137.44 222.243 136.337 221.877L135.707 223.775ZM126.068 220.855C129.769 221.861 133.507 223.053 135.71 223.776L136.334 221.876C134.118 221.148 130.343 219.944 126.592 218.925L126.068 220.855ZM116.5 219C118.66 219 122.401 219.853 126.066 220.854L126.593 218.925C122.974 217.936 118.973 217 116.5 217V219ZM106.229 231.295C108.945 228.566 112.625 227.032 116.463 227.027L116.461 225.027C112.09 225.033 107.901 226.78 104.811 229.885L106.229 231.295ZM101.98 241.588C101.985 237.726 103.514 234.025 106.229 231.295L104.811 229.885C101.722 232.989 99.9855 237.197 99.9803 241.586L101.98 241.588ZM106.229 251.878C103.514 249.149 101.985 245.447 101.98 241.586L99.9803 241.588C99.9855 245.976 101.722 250.184 104.811 253.289L106.229 251.878ZM116.463 256.146C112.625 256.141 108.945 254.607 106.229 251.878L104.811 253.289C107.901 256.393 112.09 258.141 116.461 258.146L116.463 256.146ZM126.696 251.879C123.98 254.608 120.299 256.142 116.461 256.146L116.463 258.146C120.835 258.141 125.024 256.394 128.114 253.289L126.696 251.879ZM130.944 241.586C130.94 245.448 129.412 249.149 126.696 251.879L128.114 253.289C131.203 250.185 132.94 245.976 132.944 241.588L130.944 241.586ZM126.695 231.295C129.411 234.025 130.94 237.726 130.944 241.588L132.944 241.586C132.939 237.197 131.202 232.989 128.113 229.885L126.695 231.295ZM116.461 227.027C120.299 227.032 123.98 228.566 126.695 231.295L128.113 229.885C125.024 226.78 120.834 225.033 116.463 225.027L116.461 227.027ZM118.692 236.536C119.254 236.257 119.872 236.11 120.498 236.106L120.484 234.106C119.554 234.112 118.637 234.331 117.803 234.745L118.692 236.536ZM117.253 237.717C117.638 237.219 118.13 236.815 118.692 236.536L117.803 234.745C116.969 235.158 116.24 235.757 115.67 236.494L117.253 237.717ZM114.232 236.536C114.794 236.815 115.285 237.218 115.67 237.717L117.253 236.495C116.684 235.757 115.955 235.159 115.121 234.745L114.232 236.536ZM112.427 236.106C113.053 236.11 113.67 236.257 114.232 236.536L115.121 234.745C114.288 234.331 113.371 234.112 112.441 234.106L112.427 236.106ZM108.172 240.707C108.172 238.109 110.142 236.106 112.434 236.106V234.106C108.922 234.106 106.172 237.123 106.172 240.707H108.172ZM108.172 246.831V240.707H106.172V246.831H108.172ZM108.244 247.006C108.199 246.961 108.172 246.898 108.172 246.831H106.172C106.172 247.425 106.407 247.995 106.826 248.417L108.244 247.006ZM108.411 247.076C108.349 247.076 108.289 247.051 108.244 247.006L106.826 248.417C107.246 248.838 107.816 249.076 108.411 249.076V247.076ZM108.578 247.006C108.533 247.051 108.473 247.076 108.411 247.076V249.076C109.006 249.076 109.576 248.838 109.996 248.417L108.578 247.006ZM108.65 246.831C108.65 246.898 108.623 246.961 108.578 247.006L109.996 248.417C110.415 247.995 110.65 247.425 110.65 246.831H108.65ZM108.65 240.703V246.831H110.65V240.703H108.65ZM112.442 236.591C110.252 236.591 108.65 238.537 108.65 240.703H110.65C110.65 239.433 111.553 238.591 112.442 238.591V236.591ZM116.235 240.703C116.235 238.542 114.634 236.591 112.442 236.591V238.591C113.331 238.591 114.235 239.437 114.235 240.703H116.235ZM116.235 246.827V240.703H114.235V246.827H116.235ZM116.307 247.002C116.262 246.956 116.235 246.894 116.235 246.827H114.235C114.235 247.421 114.47 247.991 114.889 248.413L116.307 247.002ZM116.474 247.072C116.412 247.072 116.352 247.047 116.307 247.002L114.889 248.413C115.309 248.834 115.879 249.072 116.474 249.072V247.072ZM116.641 247.002C116.596 247.047 116.536 247.072 116.474 247.072V249.072C117.069 249.072 117.639 248.834 118.059 248.413L116.641 247.002ZM116.713 246.827C116.713 246.894 116.686 246.956 116.641 247.002L118.059 248.413C118.478 247.991 118.713 247.421 118.713 246.827H116.713ZM116.713 240.703V246.827H118.713V240.703H116.713ZM120.505 236.591C118.315 236.591 116.713 238.537 116.713 240.703H118.713C118.713 239.433 119.616 238.591 120.505 238.591V236.591ZM124.298 240.703C124.298 238.542 122.697 236.591 120.505 236.591V238.591C121.394 238.591 122.298 239.437 122.298 240.703H124.298ZM124.298 246.827V240.703H122.298V246.827H124.298ZM124.37 247.002C124.325 246.956 124.298 246.894 124.298 246.827H122.298C122.298 247.421 122.533 247.991 122.952 248.413L124.37 247.002ZM124.537 247.072C124.475 247.072 124.415 247.047 124.37 247.002L122.952 248.413C123.372 248.834 123.942 249.072 124.537 249.072V247.072ZM124.704 247.002C124.659 247.047 124.599 247.072 124.537 247.072V249.072C125.132 249.072 125.702 248.834 126.122 248.413L124.704 247.002ZM124.776 246.827C124.776 246.894 124.749 246.956 124.704 247.002L126.122 248.413C126.541 247.991 126.776 247.421 126.776 246.827H124.776ZM124.776 240.703V246.827H126.776V240.703H124.776ZM120.491 236.106C122.783 236.106 124.756 238.109 124.776 240.71L126.775 240.696C126.749 237.122 124.004 234.106 120.491 234.106V236.106Z" fill="white" mask="url(#path-13-outside-2_6063_3012)"/>
<path d="M106.282 218.406L106.282 218.406L106.277 218.407C103.001 219.298 99.7463 220.265 96.5168 221.309L96.5168 221.309L96.5135 221.311C95.3248 221.698 94.2681 222.409 93.4664 223.365C92.6652 224.321 92.1515 225.482 91.9868 226.717C89.9261 241.991 94.7134 253.377 100.561 260.926C103.042 264.153 105.998 266.995 109.33 269.357C110.51 270.197 111.762 270.934 113.071 271.559L113.078 271.562L113.086 271.566C114.056 272.015 115.318 272.5 116.5 272.5C117.682 272.5 118.946 272.016 119.916 271.565L119.922 271.562L119.929 271.559C121.238 270.934 122.49 270.197 123.67 269.357C127.002 266.995 129.958 264.153 132.439 260.926C138.286 253.377 143.074 241.991 141.013 226.718C140.849 225.483 140.335 224.321 139.534 223.365C138.732 222.409 137.675 221.698 136.486 221.311L136.482 221.309C134.264 220.594 130.48 219.409 126.717 218.406C123.109 217.438 119.047 216.5 116.5 216.5C113.953 216.5 109.891 217.438 106.282 218.406Z" fill="white" stroke="white" stroke-width="3"/>
<mask id="path-16-outside-3_6063_3012" maskUnits="userSpaceOnUse" x="92" y="217" width="49" height="55" fill="black">
<rect fill="white" x="92" y="217" width="49" height="55"/>
<path fill-rule="evenodd" clip-rule="evenodd" d="M98.0391 226.102C101.19 225.081 104.366 224.136 107.563 223.267C111.29 222.27 114.721 221.534 116.5 221.534C118.283 221.534 121.71 222.273 125.437 223.27C129.086 224.247 132.775 225.397 134.961 226.102C135.249 226.194 135.505 226.364 135.7 226.592C135.894 226.821 136.02 227.098 136.062 227.394C137.922 241.164 133.625 251.214 128.498 257.829C126.329 260.66 123.741 263.154 120.821 265.226C119.659 266.031 118.628 266.617 117.823 266.992C117.42 267.177 117.091 267.308 116.836 267.383C116.725 267.416 116.613 267.444 116.5 267.465C116.386 267.444 116.272 267.416 116.161 267.383C115.908 267.31 115.58 267.179 115.177 266.992C114.368 266.617 113.341 266.034 112.179 265.226C109.259 263.154 106.671 260.66 104.502 257.829C99.3752 251.211 95.0781 241.164 96.9379 227.394C96.9801 227.098 97.1057 226.821 97.3004 226.592C97.4952 226.364 97.7511 226.194 98.0391 226.102ZM116.5 218C114.184 218 110.313 218.878 106.67 219.855C103.417 220.739 100.185 221.7 96.9782 222.737C96.0547 223.038 95.2358 223.59 94.6159 224.329C93.9959 225.069 93.5999 225.966 93.4734 226.917C91.4725 241.747 96.1154 252.738 101.749 260.009C104.138 263.119 106.987 265.857 110.199 268.135C111.308 268.924 112.485 269.617 113.717 270.205C114.66 270.642 115.667 271 116.5 271C117.333 271 118.343 270.642 119.283 270.205C120.515 269.617 121.692 268.924 122.801 268.135C126.013 265.857 128.862 263.119 131.251 260.009C136.885 252.738 141.527 241.747 139.527 226.917C139.4 225.966 139.004 225.069 138.384 224.329C137.764 223.59 136.945 223.038 136.022 222.737C133.813 222.025 130.056 220.849 126.33 219.855C122.687 218.878 118.816 218 116.5 218ZM116.462 225.879C112.358 225.884 108.423 227.494 105.52 230.357C102.618 233.22 100.985 237.101 100.98 241.15C100.985 245.199 102.618 249.08 105.52 251.943C108.423 254.806 112.358 256.416 116.462 256.421C120.567 256.417 124.502 254.806 127.405 251.943C130.307 249.081 131.94 245.199 131.944 241.15C131.939 237.101 130.307 233.22 127.404 230.357C124.502 227.494 120.567 225.884 116.462 225.879ZM120.491 234.789C119.713 234.794 118.946 234.974 118.248 235.314C117.55 235.654 116.939 236.145 116.462 236.752C115.985 236.145 115.374 235.654 114.677 235.314C113.979 234.974 113.212 234.794 112.434 234.789C109.532 234.789 107.172 237.253 107.172 240.287V246.297C107.172 246.621 107.303 246.932 107.535 247.161C107.767 247.39 108.082 247.519 108.411 247.519C108.739 247.519 109.054 247.39 109.287 247.161C109.519 246.932 109.65 246.621 109.65 246.297V240.283C109.65 238.597 110.903 237.228 112.442 237.228C113.982 237.228 115.235 238.601 115.235 240.283V246.293C115.235 246.617 115.366 246.928 115.598 247.157C115.83 247.386 116.146 247.515 116.474 247.515C116.802 247.515 117.117 247.386 117.35 247.157C117.582 246.928 117.713 246.617 117.713 246.293V240.283C117.713 238.597 118.966 237.228 120.505 237.228C122.045 237.228 123.298 238.601 123.298 240.283V246.293C123.298 246.617 123.429 246.928 123.661 247.157C123.893 247.386 124.208 247.515 124.537 247.515C124.865 247.515 125.18 247.386 125.413 247.157C125.645 246.928 125.776 246.617 125.776 246.293V240.283C125.753 237.253 123.393 234.789 120.491 234.789Z"/>
</mask>
<path fill-rule="evenodd" clip-rule="evenodd" d="M98.0391 226.102C101.19 225.081 104.366 224.136 107.563 223.267C111.29 222.27 114.721 221.534 116.5 221.534C118.283 221.534 121.71 222.273 125.437 223.27C129.086 224.247 132.775 225.397 134.961 226.102C135.249 226.194 135.505 226.364 135.7 226.592C135.894 226.821 136.02 227.098 136.062 227.394C137.922 241.164 133.625 251.214 128.498 257.829C126.329 260.66 123.741 263.154 120.821 265.226C119.659 266.031 118.628 266.617 117.823 266.992C117.42 267.177 117.091 267.308 116.836 267.383C116.725 267.416 116.613 267.444 116.5 267.465C116.386 267.444 116.272 267.416 116.161 267.383C115.908 267.31 115.58 267.179 115.177 266.992C114.368 266.617 113.341 266.034 112.179 265.226C109.259 263.154 106.671 260.66 104.502 257.829C99.3752 251.211 95.0781 241.164 96.9379 227.394C96.9801 227.098 97.1057 226.821 97.3004 226.592C97.4952 226.364 97.7511 226.194 98.0391 226.102ZM116.5 218C114.184 218 110.313 218.878 106.67 219.855C103.417 220.739 100.185 221.7 96.9782 222.737C96.0547 223.038 95.2358 223.59 94.6159 224.329C93.9959 225.069 93.5999 225.966 93.4734 226.917C91.4725 241.747 96.1154 252.738 101.749 260.009C104.138 263.119 106.987 265.857 110.199 268.135C111.308 268.924 112.485 269.617 113.717 270.205C114.66 270.642 115.667 271 116.5 271C117.333 271 118.343 270.642 119.283 270.205C120.515 269.617 121.692 268.924 122.801 268.135C126.013 265.857 128.862 263.119 131.251 260.009C136.885 252.738 141.527 241.747 139.527 226.917C139.4 225.966 139.004 225.069 138.384 224.329C137.764 223.59 136.945 223.038 136.022 222.737C133.813 222.025 130.056 220.849 126.33 219.855C122.687 218.878 118.816 218 116.5 218ZM116.462 225.879C112.358 225.884 108.423 227.494 105.52 230.357C102.618 233.22 100.985 237.101 100.98 241.15C100.985 245.199 102.618 249.08 105.52 251.943C108.423 254.806 112.358 256.416 116.462 256.421C120.567 256.417 124.502 254.806 127.405 251.943C130.307 249.081 131.94 245.199 131.944 241.15C131.939 237.101 130.307 233.22 127.404 230.357C124.502 227.494 120.567 225.884 116.462 225.879ZM120.491 234.789C119.713 234.794 118.946 234.974 118.248 235.314C117.55 235.654 116.939 236.145 116.462 236.752C115.985 236.145 115.374 235.654 114.677 235.314C113.979 234.974 113.212 234.794 112.434 234.789C109.532 234.789 107.172 237.253 107.172 240.287V246.297C107.172 246.621 107.303 246.932 107.535 247.161C107.767 247.39 108.082 247.519 108.411 247.519C108.739 247.519 109.054 247.39 109.287 247.161C109.519 246.932 109.65 246.621 109.65 246.297V240.283C109.65 238.597 110.903 237.228 112.442 237.228C113.982 237.228 115.235 238.601 115.235 240.283V246.293C115.235 246.617 115.366 246.928 115.598 247.157C115.83 247.386 116.146 247.515 116.474 247.515C116.802 247.515 117.117 247.386 117.35 247.157C117.582 246.928 117.713 246.617 117.713 246.293V240.283C117.713 238.597 118.966 237.228 120.505 237.228C122.045 237.228 123.298 238.601 123.298 240.283V246.293C123.298 246.617 123.429 246.928 123.661 247.157C123.893 247.386 124.208 247.515 124.537 247.515C124.865 247.515 125.18 247.386 125.413 247.157C125.645 246.928 125.776 246.617 125.776 246.293V240.283C125.753 237.253 123.393 234.789 120.491 234.789Z" fill="url(#paint6_linear_6063_3012)"/>
<path fill-rule="evenodd" clip-rule="evenodd" d="M98.0391 226.102C101.19 225.081 104.366 224.136 107.563 223.267C111.29 222.27 114.721 221.534 116.5 221.534C118.283 221.534 121.71 222.273 125.437 223.27C129.086 224.247 132.775 225.397 134.961 226.102C135.249 226.194 135.505 226.364 135.7 226.592C135.894 226.821 136.02 227.098 136.062 227.394C137.922 241.164 133.625 251.214 128.498 257.829C126.329 260.66 123.741 263.154 120.821 265.226C119.659 266.031 118.628 266.617 117.823 266.992C117.42 267.177 117.091 267.308 116.836 267.383C116.725 267.416 116.613 267.444 116.5 267.465C116.386 267.444 116.272 267.416 116.161 267.383C115.908 267.31 115.58 267.179 115.177 266.992C114.368 266.617 113.341 266.034 112.179 265.226C109.259 263.154 106.671 260.66 104.502 257.829C99.3752 251.211 95.0781 241.164 96.9379 227.394C96.9801 227.098 97.1057 226.821 97.3004 226.592C97.4952 226.364 97.7511 226.194 98.0391 226.102ZM116.5 218C114.184 218 110.313 218.878 106.67 219.855C103.417 220.739 100.185 221.7 96.9782 222.737C96.0547 223.038 95.2358 223.59 94.6159 224.329C93.9959 225.069 93.5999 225.966 93.4734 226.917C91.4725 241.747 96.1154 252.738 101.749 260.009C104.138 263.119 106.987 265.857 110.199 268.135C111.308 268.924 112.485 269.617 113.717 270.205C114.66 270.642 115.667 271 116.5 271C117.333 271 118.343 270.642 119.283 270.205C120.515 269.617 121.692 268.924 122.801 268.135C126.013 265.857 128.862 263.119 131.251 260.009C136.885 252.738 141.527 241.747 139.527 226.917C139.4 225.966 139.004 225.069 138.384 224.329C137.764 223.59 136.945 223.038 136.022 222.737C133.813 222.025 130.056 220.849 126.33 219.855C122.687 218.878 118.816 218 116.5 218ZM116.462 225.879C112.358 225.884 108.423 227.494 105.52 230.357C102.618 233.22 100.985 237.101 100.98 241.15C100.985 245.199 102.618 249.08 105.52 251.943C108.423 254.806 112.358 256.416 116.462 256.421C120.567 256.417 124.502 254.806 127.405 251.943C130.307 249.081 131.94 245.199 131.944 241.15C131.939 237.101 130.307 233.22 127.404 230.357C124.502 227.494 120.567 225.884 116.462 225.879ZM120.491 234.789C119.713 234.794 118.946 234.974 118.248 235.314C117.55 235.654 116.939 236.145 116.462 236.752C115.985 236.145 115.374 235.654 114.677 235.314C113.979 234.974 113.212 234.794 112.434 234.789C109.532 234.789 107.172 237.253 107.172 240.287V246.297C107.172 246.621 107.303 246.932 107.535 247.161C107.767 247.39 108.082 247.519 108.411 247.519C108.739 247.519 109.054 247.39 109.287 247.161C109.519 246.932 109.65 246.621 109.65 246.297V240.283C109.65 238.597 110.903 237.228 112.442 237.228C113.982 237.228 115.235 238.601 115.235 240.283V246.293C115.235 246.617 115.366 246.928 115.598 247.157C115.83 247.386 116.146 247.515 116.474 247.515C116.802 247.515 117.117 247.386 117.35 247.157C117.582 246.928 117.713 246.617 117.713 246.293V240.283C117.713 238.597 118.966 237.228 120.505 237.228C122.045 237.228 123.298 238.601 123.298 240.283V246.293C123.298 246.617 123.429 246.928 123.661 247.157C123.893 247.386 124.208 247.515 124.537 247.515C124.865 247.515 125.18 247.386 125.413 247.157C125.645 246.928 125.776 246.617 125.776 246.293V240.283C125.753 237.253 123.393 234.789 120.491 234.789Z" fill="url(#paint7_linear_6063_3012)"/>
<path d="M107.563 223.267L107.305 222.301L107.301 222.302L107.563 223.267ZM98.0391 226.102L98.3423 227.055L98.3474 227.054L98.0391 226.102ZM125.437 223.27L125.695 222.304L125.695 222.304L125.437 223.27ZM134.961 226.102L134.654 227.054L134.658 227.055L134.961 226.102ZM136.062 227.394L137.053 227.26L137.052 227.253L136.062 227.394ZM128.498 257.829L127.708 257.217L127.705 257.221L128.498 257.829ZM120.821 265.226L121.39 266.048L121.399 266.042L120.821 265.226ZM117.823 266.992L118.241 267.9L118.244 267.899L117.823 266.992ZM116.836 267.383L116.553 266.423L116.547 266.425L116.836 267.383ZM116.5 267.465L116.313 268.448L116.501 268.484L116.69 268.447L116.5 267.465ZM116.161 267.383L116.448 266.425L116.438 266.422L116.161 267.383ZM115.177 266.992L115.6 266.085L115.597 266.084L115.177 266.992ZM112.179 265.226L111.601 266.042L111.608 266.047L112.179 265.226ZM104.502 257.829L105.295 257.221L105.292 257.217L104.502 257.829ZM96.9379 227.394L95.9479 227.253L95.9469 227.26L96.9379 227.394ZM106.67 219.855L106.411 218.889L106.408 218.89L106.67 219.855ZM96.9782 222.737L96.6706 221.785L96.6684 221.786L96.9782 222.737ZM94.6159 224.329L95.3822 224.972L95.3822 224.972L94.6159 224.329ZM93.4734 226.917L94.4644 227.051L94.4647 227.049L93.4734 226.917ZM101.749 260.009L102.542 259.4L102.539 259.397L101.749 260.009ZM110.199 268.135L110.779 267.32L110.777 267.319L110.199 268.135ZM113.717 270.205L113.286 271.107L113.296 271.112L113.717 270.205ZM119.283 270.205L119.705 271.112L119.714 271.107L119.283 270.205ZM122.801 268.135L122.223 267.319L122.221 267.32L122.801 268.135ZM131.251 260.009L130.461 259.397L130.458 259.4L131.251 260.009ZM139.527 226.917L138.535 227.049L138.536 227.051L139.527 226.917ZM138.384 224.329L137.618 224.972L138.384 224.329ZM136.022 222.737L136.332 221.786L136.329 221.785L136.022 222.737ZM126.33 219.855L126.071 220.821L126.072 220.821L126.33 219.855ZM105.52 230.357L104.818 229.645L104.818 229.645L105.52 230.357ZM116.462 225.879L116.463 224.879L116.461 224.879L116.462 225.879ZM100.98 241.15L99.9803 241.149L99.9803 241.151L100.98 241.15ZM105.52 251.943L104.818 252.655L104.818 252.655L105.52 251.943ZM116.462 256.421L116.461 257.421H116.463L116.462 256.421ZM127.405 251.943L128.107 252.655L128.107 252.655L127.405 251.943ZM131.944 241.15L132.944 241.151L132.944 241.149L131.944 241.15ZM127.404 230.357L128.106 229.645L128.106 229.645L127.404 230.357ZM118.248 235.314L117.81 234.415H117.81L118.248 235.314ZM120.491 234.789V233.789L120.484 233.789L120.491 234.789ZM116.462 236.752L115.676 237.37L116.461 238.369L117.247 237.37L116.462 236.752ZM114.677 235.314L115.115 234.415L115.115 234.415L114.677 235.314ZM112.434 234.789L112.441 233.789H112.434V234.789ZM107.535 247.161L108.237 246.449L108.237 246.449L107.535 247.161ZM109.287 247.161L109.989 247.873L109.989 247.873L109.287 247.161ZM115.598 247.157L116.3 246.445L116.3 246.445L115.598 247.157ZM117.35 247.157L116.648 246.445L116.648 246.445L117.35 247.157ZM123.661 247.157L124.363 246.445L124.363 246.445L123.661 247.157ZM125.413 247.157L124.711 246.445L124.71 246.445L125.413 247.157ZM125.776 240.283H126.776L126.775 240.275L125.776 240.283ZM107.301 222.302C104.088 223.175 100.897 224.125 97.7308 225.151L98.3474 227.054C101.483 226.037 104.643 225.096 107.826 224.232L107.301 222.302ZM116.5 220.534C114.567 220.534 111.008 221.31 107.305 222.301L107.822 224.233C111.572 223.229 114.875 222.534 116.5 222.534V220.534ZM125.695 222.304C121.993 221.313 118.437 220.534 116.5 220.534V222.534C118.128 222.534 121.427 223.232 125.178 224.236L125.695 222.304ZM135.268 225.151C133.075 224.442 129.367 223.287 125.695 222.304L125.178 224.236C128.804 225.207 132.476 226.351 134.654 227.054L135.268 225.151ZM136.461 225.943C136.144 225.572 135.729 225.297 135.264 225.149L134.658 227.055C134.769 227.091 134.866 227.155 134.939 227.241L136.461 225.943ZM137.052 227.253C136.983 226.769 136.778 226.315 136.461 225.943L134.939 227.241C135.011 227.326 135.057 227.428 135.072 227.535L137.052 227.253ZM129.289 258.442C134.559 251.641 138.953 241.327 137.053 227.26L135.071 227.528C136.891 241.001 132.691 250.787 127.708 257.217L129.289 258.442ZM121.399 266.042C124.401 263.912 127.062 261.348 129.292 258.438L127.705 257.221C125.596 259.972 123.081 262.396 120.242 264.411L121.399 266.042ZM118.244 267.899C119.111 267.496 120.191 266.879 121.39 266.048L120.251 264.404C119.127 265.183 118.146 265.739 117.401 266.085L118.244 267.899ZM117.118 268.342C117.44 268.247 117.819 268.094 118.241 267.9L117.404 266.083C117.021 266.26 116.742 266.368 116.553 266.423L117.118 268.342ZM116.69 268.447C116.836 268.419 116.981 268.383 117.124 268.34L116.547 266.425C116.469 266.449 116.39 266.468 116.31 266.484L116.69 268.447ZM115.874 268.341C116.018 268.384 116.165 268.42 116.313 268.448L116.687 266.483C116.606 266.468 116.526 266.448 116.448 266.425L115.874 268.341ZM114.755 267.898C115.178 268.095 115.559 268.25 115.884 268.343L116.438 266.422C116.257 266.37 115.983 266.264 115.6 266.085L114.755 267.898ZM111.608 266.047C112.809 266.882 113.887 267.496 114.757 267.899L115.597 266.084C114.85 265.738 113.873 265.186 112.751 264.405L111.608 266.047ZM103.708 258.438C105.938 261.348 108.599 263.912 111.601 266.042L112.758 264.411C109.919 262.396 107.404 259.972 105.295 257.221L103.708 258.438ZM95.9469 227.26C94.047 241.327 98.4411 251.638 103.711 258.442L105.292 257.217C100.309 250.784 96.1092 241.001 97.9289 227.528L95.9469 227.26ZM96.5394 225.943C96.2225 226.315 96.0169 226.769 95.9479 227.253L97.9279 227.535C97.9432 227.428 97.9889 227.326 98.0615 227.241L96.5394 225.943ZM97.7359 225.149C97.2711 225.297 96.8561 225.572 96.5394 225.943L98.0615 227.241C98.1342 227.155 98.2312 227.091 98.3423 227.055L97.7359 225.149ZM106.929 220.821C110.594 219.838 114.337 219 116.5 219V217C114.03 217 110.031 217.918 106.411 218.889L106.929 220.821ZM97.2858 223.688C100.478 222.656 103.694 221.7 106.933 220.82L106.408 218.89C103.139 219.778 99.8926 220.744 96.6706 221.785L97.2858 223.688ZM95.3822 224.972C95.881 224.377 96.5412 223.931 97.288 223.688L96.6684 221.786C95.5681 222.144 94.5907 222.803 93.8496 223.687L95.3822 224.972ZM94.4647 227.049C94.566 226.287 94.8834 225.566 95.3822 224.972L93.8496 223.687C93.1083 224.571 92.6338 225.645 92.4821 226.785L94.4647 227.049ZM102.539 259.397C97.0496 252.311 92.5036 241.584 94.4644 227.051L92.4824 226.783C90.4414 241.91 95.1813 253.165 100.958 260.621L102.539 259.397ZM110.777 267.319C107.646 265.099 104.87 262.43 102.542 259.4L100.956 260.618C103.407 263.807 106.327 266.616 109.62 268.95L110.777 267.319ZM114.148 269.302C112.968 268.739 111.841 268.076 110.779 267.32L109.619 268.949C110.775 269.773 112.003 270.495 113.286 271.107L114.148 269.302ZM116.5 270C115.9 270 115.063 269.727 114.137 269.298L113.296 271.112C114.258 271.558 115.434 272 116.5 272V270ZM118.861 269.298C117.941 269.726 117.1 270 116.5 270V272C117.565 272 118.745 271.558 119.705 271.112L118.861 269.298ZM122.221 267.32C121.159 268.076 120.032 268.739 118.852 269.302L119.714 271.107C120.997 270.495 122.225 269.773 123.381 268.949L122.221 267.32ZM130.458 259.4C128.13 262.43 125.354 265.099 122.223 267.319L123.38 268.95C126.673 266.616 129.593 263.807 132.044 260.618L130.458 259.4ZM138.536 227.051C140.496 241.584 135.95 252.311 130.461 259.397L132.042 260.621C137.819 253.165 142.559 241.91 140.518 226.783L138.536 227.051ZM137.618 224.972C138.117 225.566 138.434 226.287 138.535 227.049L140.518 226.785C140.366 225.645 139.892 224.571 139.15 223.687L137.618 224.972ZM135.712 223.688C136.459 223.931 137.119 224.377 137.618 224.972L139.15 223.687C138.409 222.803 137.432 222.144 136.332 221.786L135.712 223.688ZM126.072 220.821C129.774 221.808 133.512 222.978 135.715 223.688L136.329 221.785C134.113 221.071 130.338 219.889 126.587 218.889L126.072 220.821ZM116.5 219C118.663 219 122.406 219.838 126.071 220.821L126.589 218.889C122.969 217.918 118.97 217 116.5 217V219ZM106.223 231.069C108.937 228.392 112.619 226.883 116.463 226.879L116.461 224.879C112.096 224.884 107.909 226.596 104.818 229.645L106.223 231.069ZM101.98 241.151C101.985 237.372 103.509 233.746 106.223 231.069L104.818 229.645C101.727 232.694 99.9856 236.831 99.9803 241.149L101.98 241.151ZM106.223 251.231C103.509 248.554 101.985 244.928 101.98 241.149L99.9803 241.151C99.9856 245.469 101.727 249.606 104.818 252.655L106.223 251.231ZM116.463 255.421C112.619 255.417 108.937 253.908 106.223 251.231L104.818 252.655C107.909 255.703 112.096 257.416 116.461 257.421L116.463 255.421ZM126.703 251.232C123.988 253.909 120.305 255.417 116.461 255.421L116.463 257.421C120.828 257.417 125.016 255.704 128.107 252.655L126.703 251.232ZM130.944 241.149C130.94 244.928 129.416 248.555 126.703 251.232L128.107 252.655C131.198 249.606 132.94 245.469 132.944 241.151L130.944 241.149ZM126.702 231.069C129.416 233.746 130.94 237.372 130.944 241.151L132.944 241.149C132.939 236.831 131.198 232.694 128.106 229.645L126.702 231.069ZM116.461 226.879C120.305 226.883 123.988 228.392 126.702 231.069L128.106 229.645C125.016 226.596 120.828 224.884 116.463 224.879L116.461 226.879ZM118.686 236.213C119.249 235.938 119.868 235.793 120.498 235.789L120.484 233.789C119.557 233.795 118.642 234.009 117.81 234.415L118.686 236.213ZM117.247 237.37C117.631 236.883 118.122 236.487 118.686 236.213L117.81 234.415C116.977 234.82 116.247 235.408 115.676 236.133L117.247 237.37ZM114.239 236.213C114.801 236.487 115.292 236.883 115.676 237.37L117.248 236.134C116.677 235.408 115.947 234.82 115.115 234.415L114.239 236.213ZM112.427 235.789C113.056 235.793 113.676 235.938 114.239 236.213L115.115 234.415C114.282 234.009 113.368 233.795 112.441 233.789L112.427 235.789ZM108.172 240.287C108.172 237.763 110.125 235.789 112.434 235.789V233.789C108.939 233.789 106.172 236.742 106.172 240.287H108.172ZM108.172 246.297V240.287H106.172V246.297H108.172ZM108.237 246.449C108.194 246.407 108.172 246.352 108.172 246.297H106.172C106.172 246.891 106.412 247.458 106.833 247.873L108.237 246.449ZM108.411 246.519C108.343 246.519 108.281 246.492 108.237 246.449L106.833 247.873C107.254 248.288 107.822 248.519 108.411 248.519V246.519ZM108.585 246.449C108.541 246.492 108.479 246.519 108.411 246.519V248.519C109 248.519 109.568 248.288 109.989 247.873L108.585 246.449ZM108.65 246.297C108.65 246.352 108.628 246.407 108.585 246.449L109.989 247.873C110.41 247.458 110.65 246.891 110.65 246.297H108.65ZM108.65 240.283V246.297H110.65V240.283H108.65ZM112.442 236.228C110.268 236.228 108.65 238.13 108.65 240.283H110.65C110.65 239.063 111.537 238.228 112.442 238.228V236.228ZM116.235 240.283C116.235 238.135 114.617 236.228 112.442 236.228V238.228C113.347 238.228 114.235 239.066 114.235 240.283H116.235ZM116.235 246.293V240.283H114.235V246.293H116.235ZM116.3 246.445C116.257 246.403 116.235 246.348 116.235 246.293H114.235C114.235 246.887 114.475 247.453 114.896 247.869L116.3 246.445ZM116.474 246.515C116.406 246.515 116.344 246.488 116.3 246.445L114.896 247.869C115.317 248.284 115.885 248.515 116.474 248.515V246.515ZM116.648 246.445C116.604 246.488 116.542 246.515 116.474 246.515V248.515C117.063 248.515 117.631 248.284 118.052 247.869L116.648 246.445ZM116.713 246.293C116.713 246.348 116.691 246.402 116.648 246.445L118.052 247.869C118.473 247.454 118.713 246.887 118.713 246.293H116.713ZM116.713 240.283V246.293H118.713V240.283H116.713ZM120.505 236.228C118.331 236.228 116.713 238.13 116.713 240.283H118.713C118.713 239.063 119.6 238.228 120.505 238.228V236.228ZM124.298 240.283C124.298 238.135 122.68 236.228 120.505 236.228V238.228C121.41 238.228 122.298 239.066 122.298 240.283H124.298ZM124.298 246.293V240.283H122.298V246.293H124.298ZM124.363 246.445C124.32 246.403 124.298 246.348 124.298 246.293H122.298C122.298 246.887 122.538 247.453 122.959 247.869L124.363 246.445ZM124.537 246.515C124.469 246.515 124.407 246.488 124.363 246.445L122.959 247.869C123.38 248.284 123.948 248.515 124.537 248.515V246.515ZM124.71 246.445C124.667 246.488 124.605 246.515 124.537 246.515V248.515C125.126 248.515 125.694 248.284 126.115 247.869L124.71 246.445ZM124.776 246.293C124.776 246.348 124.754 246.403 124.711 246.445L126.115 247.869C126.536 247.453 126.776 246.887 126.776 246.293H124.776ZM124.776 240.283V246.293H126.776V240.283H124.776ZM120.491 235.789C122.8 235.789 124.757 237.764 124.776 240.29L126.775 240.275C126.749 236.741 123.987 233.789 120.491 233.789V235.789Z" fill="white" mask="url(#path-16-outside-3_6063_3012)"/>
</g>
</g>
<defs>
<filter id="filter0_f_6063_3012" x="-7" y="151" width="247" height="156" filterUnits="userSpaceOnUse" color-interpolation-filters="sRGB">
<feFlood flood-opacity="0" result="BackgroundImageFix"/>
<feBlend mode="normal" in="SourceGraphic" in2="BackgroundImageFix" result="shape"/>
<feGaussianBlur stdDeviation="10" result="effect1_foregroundBlur_6063_3012"/>
</filter>
<filter id="filter1_b_6063_3012" x="-15" y="143" width="263" height="172" filterUnits="userSpaceOnUse" color-interpolation-filters="sRGB">
<feFlood flood-opacity="0" result="BackgroundImageFix"/>
<feGaussianBlur in="BackgroundImageFix" stdDeviation="15"/>
<feComposite in2="SourceAlpha" operator="in" result="effect1_backgroundBlur_6063_3012"/>
<feBlend mode="normal" in="SourceGraphic" in2="effect1_backgroundBlur_6063_3012" result="shape"/>
</filter>
<filter id="filter2_f_6063_3012" x="70.9175" y="196" width="90.6309" height="97.2922" filterUnits="userSpaceOnUse" color-interpolation-filters="sRGB">
<feFlood flood-opacity="0" result="BackgroundImageFix"/>
<feBlend mode="normal" in="SourceGraphic" in2="BackgroundImageFix" result="shape"/>
<feGaussianBlur stdDeviation="10" result="effect1_foregroundBlur_6063_3012"/>
</filter>
<linearGradient id="paint0_linear_6063_3012" x1="16.2026" y1="174" x2="229.243" y2="209.675" gradientUnits="userSpaceOnUse">
<stop stop-color="#F4B62B"/>
<stop offset="0.5" stop-color="#BC52AD"/>
<stop offset="1" stop-color="#668E4F"/>
</linearGradient>
<linearGradient id="paint1_linear_6063_3012" x1="16.2026" y1="174" x2="229.243" y2="209.675" gradientUnits="userSpaceOnUse">
<stop stop-color="#F4B62B"/>
<stop offset="0.5" stop-color="#BC52AD"/>
<stop offset="1" stop-color="#4F868E"/>
</linearGradient>
<linearGradient id="paint2_linear_6063_3012" x1="92.9645" y1="218" x2="143.45" y2="222.048" gradientUnits="userSpaceOnUse">
<stop stop-color="#668E4F"/>
<stop offset="0.5" stop-color="#BC52AD"/>
<stop offset="1" stop-color="#F4B62B"/>
</linearGradient>
<linearGradient id="paint3_linear_6063_3012" x1="77" y1="235.667" x2="156" y2="235.667" gradientUnits="userSpaceOnUse">
<stop offset="0.005" stop-color="white" stop-opacity="0"/>
<stop offset="0.49" stop-color="white" stop-opacity="0"/>
<stop offset="0.495" stop-color="white"/>
<stop offset="0.985" stop-color="white" stop-opacity="0"/>
</linearGradient>
<linearGradient id="paint4_linear_6063_3012" x1="93" y1="235.28" x2="140.269" y2="235.28" gradientUnits="userSpaceOnUse">
<stop stop-color="#9AC2C6"/>
<stop offset="0.5" stop-color="#69A0A7"/>
<stop offset="0.5" stop-color="#4F868E"/>
<stop offset="1" stop-color="#69A0A7"/>
</linearGradient>
<linearGradient id="paint5_linear_6063_3012" x1="116.5" y1="242.816" x2="116.5" y2="272" gradientUnits="userSpaceOnUse">
<stop stop-color="#4F868E" stop-opacity="0"/>
<stop offset="1" stop-color="#BC52AD"/>
</linearGradient>
<linearGradient id="paint6_linear_6063_3012" x1="93" y1="234.96" x2="140.269" y2="234.96" gradientUnits="userSpaceOnUse">
<stop stop-color="#9AC2C6"/>
<stop offset="0.5" stop-color="#69A0A7"/>
<stop offset="0.5" stop-color="#4F868E"/>
<stop offset="1" stop-color="#69A0A7"/>
</linearGradient>
<linearGradient id="paint7_linear_6063_3012" x1="116.5" y1="242.357" x2="116.5" y2="271" gradientUnits="userSpaceOnUse">
<stop stop-color="#4F868E" stop-opacity="0"/>
<stop offset="1" stop-color="#BC52AD"/>
</linearGradient>
<clipPath id="clip0_6063_3012">
<rect width="233" height="300" fill="white"/>
</clipPath>
<clipPath id="clip1_6063_3012">
<rect width="201" height="41" fill="white" transform="translate(16 174)"/>
</clipPath>
<clipPath id="clip2_6063_3012">
<rect width="10" height="10" fill="white" transform="translate(28 189.5)"/>
</clipPath>
</defs>
</svg>
