<svg width="233" height="215" viewBox="0 90 233 215" fill="none" xmlns="http://www.w3.org/2000/svg">
<g clip-path="url(#clip0_6063_2879)">
<rect x="14" y="172" width="161" height="28" rx="14" fill="#020617" fill-opacity="0.05"/>
<rect x="14" y="172" width="161" height="28" rx="14" stroke="#020617" stroke-opacity="0.07"/>
<path fill-rule="evenodd" clip-rule="evenodd" d="M31 184H30.5V183C30.5 181.62 29.38 180.5 28 180.5C26.62 180.5 25.5 181.62 25.5 183V184H25C24.45 184 24 184.45 24 185V190C24 190.55 24.45 191 25 191H31C31.55 191 32 190.55 32 190V185C32 184.45 31.55 184 31 184ZM26.5 184V183C26.5 182.17 27.17 181.5 28 181.5C28.83 181.5 29.5 182.17 29.5 183V184H26.5Z" fill="#020617" fill-opacity="0.15"/>
<g opacity="0.6">
<path d="M43.7456 184.843V189.5H42.7466V183.688H43.6919L43.7456 184.843ZM43.5415 186.374L43.0796 186.358C43.0832 185.96 43.1351 185.593 43.2354 185.257C43.3356 184.917 43.4842 184.621 43.6812 184.371C43.8781 184.12 44.1234 183.927 44.417 183.791C44.7106 183.651 45.0508 183.581 45.4375 183.581C45.7096 183.581 45.9603 183.62 46.1895 183.699C46.4186 183.774 46.6174 183.894 46.7856 184.059C46.9539 184.224 47.0846 184.435 47.1777 184.693C47.2708 184.951 47.3174 185.262 47.3174 185.627V189.5H46.3237V185.676C46.3237 185.371 46.2718 185.128 46.168 184.945C46.0677 184.763 45.9245 184.63 45.7383 184.548C45.5521 184.462 45.3337 184.419 45.083 184.419C44.7894 184.419 44.5441 184.471 44.3472 184.575C44.1502 184.679 43.9927 184.822 43.8745 185.004C43.7563 185.187 43.6704 185.396 43.6167 185.633C43.5666 185.866 43.5415 186.113 43.5415 186.374ZM47.3066 185.826L46.6406 186.03C46.6442 185.712 46.6961 185.405 46.7964 185.112C46.9002 184.818 47.0488 184.557 47.2422 184.328C47.4391 184.098 47.6808 183.918 47.9673 183.785C48.2537 183.649 48.5814 183.581 48.9502 183.581C49.2617 183.581 49.5374 183.622 49.7773 183.705C50.0208 183.787 50.2249 183.914 50.3896 184.086C50.5579 184.254 50.6851 184.471 50.771 184.736C50.8569 185.001 50.8999 185.316 50.8999 185.681V189.5H49.9009V185.67C49.9009 185.345 49.849 185.092 49.7451 184.913C49.6449 184.73 49.5016 184.603 49.3154 184.532C49.1328 184.457 48.9144 184.419 48.6602 184.419C48.4417 184.419 48.2484 184.457 48.0801 184.532C47.9118 184.607 47.7703 184.711 47.6558 184.843C47.5412 184.972 47.4535 185.121 47.3926 185.289C47.3353 185.457 47.3066 185.636 47.3066 185.826ZM55.0654 189.607C54.6608 189.607 54.2938 189.539 53.9644 189.403C53.6385 189.264 53.3574 189.069 53.1211 188.818C52.8883 188.567 52.7093 188.27 52.584 187.926C52.4587 187.583 52.396 187.207 52.396 186.798V186.573C52.396 186.1 52.4658 185.679 52.6055 185.311C52.7451 184.938 52.9349 184.623 53.1748 184.365C53.4147 184.107 53.6868 183.912 53.9912 183.78C54.2956 183.647 54.6107 183.581 54.9365 183.581C55.3519 183.581 55.71 183.653 56.0107 183.796C56.3151 183.939 56.564 184.14 56.7573 184.397C56.9507 184.652 57.0939 184.952 57.187 185.3C57.2801 185.644 57.3267 186.02 57.3267 186.428V186.874H52.9868V186.062H56.333V185.987C56.3187 185.729 56.265 185.479 56.1719 185.235C56.0824 184.992 55.9391 184.791 55.7422 184.634C55.5452 184.476 55.2767 184.397 54.9365 184.397C54.7109 184.397 54.5033 184.446 54.3135 184.542C54.1237 184.636 53.9608 184.775 53.8247 184.961C53.6886 185.148 53.583 185.375 53.5078 185.644C53.4326 185.912 53.395 186.222 53.395 186.573V186.798C53.395 187.074 53.4326 187.334 53.5078 187.577C53.5866 187.817 53.6994 188.028 53.8462 188.211C53.9966 188.394 54.1774 188.537 54.3887 188.641C54.6035 188.744 54.847 188.796 55.1191 188.796C55.4701 188.796 55.7673 188.725 56.0107 188.582C56.2542 188.438 56.4673 188.247 56.6499 188.007L57.2515 188.485C57.1261 188.675 56.9668 188.855 56.7734 189.027C56.5801 189.199 56.342 189.339 56.0591 189.446C55.7798 189.554 55.4486 189.607 55.0654 189.607ZM61.1484 189.607C60.7438 189.607 60.3768 189.539 60.0474 189.403C59.7215 189.264 59.4404 189.069 59.2041 188.818C58.9714 188.567 58.7923 188.27 58.667 187.926C58.5417 187.583 58.479 187.207 58.479 186.798V186.573C58.479 186.1 58.5488 185.679 58.6885 185.311C58.8281 184.938 59.0179 184.623 59.2578 184.365C59.4977 184.107 59.7699 183.912 60.0742 183.78C60.3786 183.647 60.6937 183.581 61.0195 183.581C61.4349 183.581 61.793 183.653 62.0938 183.796C62.3981 183.939 62.647 184.14 62.8403 184.397C63.0337 184.652 63.1769 184.952 63.27 185.3C63.3631 185.644 63.4097 186.02 63.4097 186.428V186.874H59.0698V186.062H62.416V185.987C62.4017 185.729 62.348 185.479 62.2549 185.235C62.1654 184.992 62.0221 184.791 61.8252 184.634C61.6283 184.476 61.3597 184.397 61.0195 184.397C60.7939 184.397 60.5863 184.446 60.3965 184.542C60.2067 184.636 60.0438 184.775 59.9077 184.961C59.7716 185.148 59.666 185.375 59.5908 185.644C59.5156 185.912 59.478 186.222 59.478 186.573V186.798C59.478 187.074 59.5156 187.334 59.5908 187.577C59.6696 187.817 59.7824 188.028 59.9292 188.211C60.0796 188.394 60.2604 188.537 60.4717 188.641C60.6865 188.744 60.93 188.796 61.2021 188.796C61.5531 188.796 61.8503 188.725 62.0938 188.582C62.3372 188.438 62.5503 188.247 62.7329 188.007L63.3345 188.485C63.2091 188.675 63.0498 188.855 62.8564 189.027C62.6631 189.199 62.425 189.339 62.1421 189.446C61.8628 189.554 61.5316 189.607 61.1484 189.607ZM65.4912 183.688L66.7642 185.805L68.0532 183.688H69.2188L67.3174 186.557L69.2778 189.5H68.1284L66.7856 187.319L65.4429 189.5H64.2881L66.2432 186.557L64.3472 183.688H65.4912ZM72.96 183.688V184.451H69.8179V183.688H72.96ZM70.8813 182.276H71.875V188.061C71.875 188.257 71.9054 188.406 71.9663 188.506C72.0272 188.607 72.106 188.673 72.2026 188.705C72.2993 188.737 72.4032 188.753 72.5142 188.753C72.5965 188.753 72.6825 188.746 72.772 188.732C72.8651 188.714 72.9349 188.7 72.9814 188.689L72.9868 189.5C72.908 189.525 72.8042 189.548 72.6753 189.57C72.55 189.595 72.3978 189.607 72.2188 189.607C71.9753 189.607 71.7515 189.559 71.5474 189.462C71.3433 189.366 71.1803 189.205 71.0586 188.979C70.9404 188.75 70.8813 188.442 70.8813 188.055V182.276ZM76.7871 189.607C76.3825 189.607 76.0155 189.539 75.686 189.403C75.3602 189.264 75.0791 189.069 74.8428 188.818C74.61 188.567 74.431 188.27 74.3057 187.926C74.1803 187.583 74.1177 187.207 74.1177 186.798V186.573C74.1177 186.1 74.1875 185.679 74.3271 185.311C74.4668 184.938 74.6566 184.623 74.8965 184.365C75.1364 184.107 75.4085 183.912 75.7129 183.78C76.0173 183.647 76.3324 183.581 76.6582 183.581C77.0736 183.581 77.4316 183.653 77.7324 183.796C78.0368 183.939 78.2856 184.14 78.479 184.397C78.6724 184.652 78.8156 184.952 78.9087 185.3C79.0018 185.644 79.0483 186.02 79.0483 186.428V186.874H74.7085V186.062H78.0547V185.987C78.0404 185.729 77.9867 185.479 77.8936 185.235C77.804 184.992 77.6608 184.791 77.4639 184.634C77.2669 184.476 76.9984 184.397 76.6582 184.397C76.4326 184.397 76.2249 184.446 76.0352 184.542C75.8454 184.636 75.6825 184.775 75.5464 184.961C75.4103 185.148 75.3047 185.375 75.2295 185.644C75.1543 185.912 75.1167 186.222 75.1167 186.573V186.798C75.1167 187.074 75.1543 187.334 75.2295 187.577C75.3083 187.817 75.4211 188.028 75.5679 188.211C75.7183 188.394 75.8991 188.537 76.1104 188.641C76.3252 188.744 76.5687 188.796 76.8408 188.796C77.1917 188.796 77.4889 188.725 77.7324 188.582C77.9759 188.438 78.189 188.247 78.3716 188.007L78.9731 188.485C78.8478 188.675 78.6885 188.855 78.4951 189.027C78.3018 189.199 78.0636 189.339 77.7808 189.446C77.5015 189.554 77.1702 189.607 76.7871 189.607ZM81.4521 184.929V189.5H80.4585V183.688H81.3984L81.4521 184.929ZM81.2158 186.374L80.8022 186.358C80.8058 185.96 80.8649 185.593 80.9795 185.257C81.0941 184.917 81.2552 184.621 81.4629 184.371C81.6706 184.12 81.9176 183.927 82.2041 183.791C82.4941 183.651 82.8146 183.581 83.1655 183.581C83.452 183.581 83.7098 183.62 83.939 183.699C84.1681 183.774 84.3633 183.896 84.5244 184.064C84.6891 184.233 84.8145 184.451 84.9004 184.72C84.9863 184.985 85.0293 185.309 85.0293 185.692V189.5H84.0303V185.681C84.0303 185.377 83.9855 185.133 83.896 184.951C83.8065 184.764 83.6758 184.63 83.5039 184.548C83.332 184.462 83.1208 184.419 82.8701 184.419C82.623 184.419 82.3975 184.471 82.1934 184.575C81.9928 184.679 81.8192 184.822 81.6724 185.004C81.5291 185.187 81.4163 185.396 81.334 185.633C81.2552 185.866 81.2158 186.113 81.2158 186.374ZM90.1724 187.958C90.1724 187.815 90.1401 187.683 90.0757 187.561C90.0148 187.436 89.8877 187.323 89.6943 187.223C89.5046 187.119 89.2181 187.029 88.835 186.954C88.5127 186.886 88.2209 186.806 87.9595 186.712C87.7017 186.619 87.4814 186.507 87.2988 186.374C87.1198 186.242 86.9819 186.086 86.8853 185.907C86.7886 185.728 86.7402 185.518 86.7402 185.278C86.7402 185.049 86.7904 184.833 86.8906 184.628C86.9945 184.424 87.1395 184.243 87.3257 184.086C87.5155 183.928 87.7428 183.805 88.0078 183.715C88.2728 183.626 88.5682 183.581 88.894 183.581C89.3595 183.581 89.757 183.663 90.0864 183.828C90.4159 183.993 90.6683 184.213 90.8438 184.489C91.0192 184.761 91.1069 185.063 91.1069 185.396H90.1133C90.1133 185.235 90.0649 185.08 89.9683 184.929C89.8752 184.775 89.7373 184.648 89.5547 184.548C89.3757 184.448 89.1554 184.397 88.894 184.397C88.6183 184.397 88.3945 184.44 88.2227 184.526C88.0544 184.609 87.9308 184.714 87.8521 184.843C87.7769 184.972 87.7393 185.108 87.7393 185.251C87.7393 185.359 87.7572 185.456 87.793 185.542C87.8324 185.624 87.9004 185.701 87.9971 185.772C88.0938 185.84 88.2298 185.905 88.4053 185.966C88.5807 186.027 88.8045 186.088 89.0767 186.148C89.5529 186.256 89.945 186.385 90.2529 186.535C90.5609 186.686 90.79 186.87 90.9404 187.088C91.0908 187.307 91.166 187.572 91.166 187.883C91.166 188.138 91.1123 188.37 91.0049 188.582C90.901 188.793 90.7489 188.975 90.5483 189.129C90.3514 189.28 90.1151 189.398 89.8394 189.484C89.5672 189.566 89.2611 189.607 88.9209 189.607C88.4089 189.607 87.9756 189.516 87.6211 189.333C87.2666 189.151 86.998 188.915 86.8154 188.625C86.6328 188.334 86.5415 188.028 86.5415 187.706H87.5405C87.5549 187.978 87.6336 188.195 87.7769 188.356C87.9201 188.514 88.0955 188.626 88.3032 188.694C88.5109 188.759 88.7168 188.791 88.9209 188.791C89.193 188.791 89.4204 188.755 89.603 188.684C89.7892 188.612 89.9307 188.514 90.0273 188.388C90.124 188.263 90.1724 188.12 90.1724 187.958ZM93.8008 183.688V189.5H92.8018V183.688H93.8008ZM92.7266 182.147C92.7266 181.986 92.7749 181.85 92.8716 181.739C92.9718 181.628 93.1187 181.572 93.312 181.572C93.5018 181.572 93.6468 181.628 93.7471 181.739C93.8509 181.85 93.9028 181.986 93.9028 182.147C93.9028 182.301 93.8509 182.433 93.7471 182.544C93.6468 182.652 93.5018 182.706 93.312 182.706C93.1187 182.706 92.9718 182.652 92.8716 182.544C92.7749 182.433 92.7266 182.301 92.7266 182.147ZM95.3828 186.659V186.535C95.3828 186.116 95.4437 185.728 95.5654 185.37C95.6872 185.008 95.8626 184.695 96.0918 184.43C96.321 184.161 96.5985 183.953 96.9243 183.807C97.2502 183.656 97.6154 183.581 98.02 183.581C98.4282 183.581 98.7952 183.656 99.1211 183.807C99.4505 183.953 99.7298 184.161 99.959 184.43C100.192 184.695 100.369 185.008 100.491 185.37C100.612 185.728 100.673 186.116 100.673 186.535V186.659C100.673 187.078 100.612 187.466 100.491 187.824C100.369 188.182 100.192 188.496 99.959 188.764C99.7298 189.029 99.4523 189.237 99.1265 189.387C98.8042 189.534 98.439 189.607 98.0308 189.607C97.6226 189.607 97.2555 189.534 96.9297 189.387C96.6038 189.237 96.3245 189.029 96.0918 188.764C95.8626 188.496 95.6872 188.182 95.5654 187.824C95.4437 187.466 95.3828 187.078 95.3828 186.659ZM96.3765 186.535V186.659C96.3765 186.949 96.4105 187.223 96.4785 187.48C96.5465 187.735 96.6486 187.96 96.7847 188.157C96.9243 188.354 97.098 188.51 97.3057 188.625C97.5133 188.736 97.755 188.791 98.0308 188.791C98.3029 188.791 98.541 188.736 98.7451 188.625C98.9528 188.51 99.1247 188.354 99.2607 188.157C99.3968 187.96 99.4989 187.735 99.5669 187.48C99.6385 187.223 99.6743 186.949 99.6743 186.659V186.535C99.6743 186.249 99.6385 185.978 99.5669 185.724C99.4989 185.466 99.395 185.239 99.2554 185.042C99.1193 184.841 98.9474 184.684 98.7397 184.569C98.5356 184.455 98.2957 184.397 98.02 184.397C97.7479 184.397 97.508 184.455 97.3003 184.569C97.0962 184.684 96.9243 184.841 96.7847 185.042C96.6486 185.239 96.5465 185.466 96.4785 185.724C96.4105 185.978 96.3765 186.249 96.3765 186.535ZM103.163 184.929V189.5H102.169V183.688H103.109L103.163 184.929ZM102.927 186.374L102.513 186.358C102.517 185.96 102.576 185.593 102.69 185.257C102.805 184.917 102.966 184.621 103.174 184.371C103.382 184.12 103.629 183.927 103.915 183.791C104.205 183.651 104.526 183.581 104.876 183.581C105.163 183.581 105.421 183.62 105.65 183.699C105.879 183.774 106.074 183.896 106.235 184.064C106.4 184.233 106.525 184.451 106.611 184.72C106.697 184.985 106.74 185.309 106.74 185.692V189.5H105.741V185.681C105.741 185.377 105.696 185.133 105.607 184.951C105.517 184.764 105.387 184.63 105.215 184.548C105.043 184.462 104.832 184.419 104.581 184.419C104.334 184.419 104.108 184.471 103.904 184.575C103.704 184.679 103.53 184.822 103.383 185.004C103.24 185.187 103.127 185.396 103.045 185.633C102.966 185.866 102.927 186.113 102.927 186.374ZM108.516 188.974C108.516 188.805 108.568 188.664 108.671 188.549C108.779 188.431 108.933 188.372 109.133 188.372C109.334 188.372 109.486 188.431 109.59 188.549C109.697 188.664 109.751 188.805 109.751 188.974C109.751 189.138 109.697 189.278 109.59 189.393C109.486 189.507 109.334 189.564 109.133 189.564C108.933 189.564 108.779 189.507 108.671 189.393C108.568 189.278 108.516 189.138 108.516 188.974ZM111.387 186.659V186.535C111.387 186.116 111.448 185.728 111.569 185.37C111.691 185.008 111.867 184.695 112.096 184.43C112.325 184.161 112.602 183.953 112.928 183.807C113.254 183.656 113.619 183.581 114.024 183.581C114.432 183.581 114.799 183.656 115.125 183.807C115.454 183.953 115.734 184.161 115.963 184.43C116.196 184.695 116.373 185.008 116.495 185.37C116.616 185.728 116.677 186.116 116.677 186.535V186.659C116.677 187.078 116.616 187.466 116.495 187.824C116.373 188.182 116.196 188.496 115.963 188.764C115.734 189.029 115.456 189.237 115.13 189.387C114.808 189.534 114.443 189.607 114.035 189.607C113.626 189.607 113.259 189.534 112.934 189.387C112.608 189.237 112.328 189.029 112.096 188.764C111.867 188.496 111.691 188.182 111.569 187.824C111.448 187.466 111.387 187.078 111.387 186.659ZM112.38 186.535V186.659C112.38 186.949 112.414 187.223 112.482 187.48C112.55 187.735 112.653 187.96 112.789 188.157C112.928 188.354 113.102 188.51 113.31 188.625C113.517 188.736 113.759 188.791 114.035 188.791C114.307 188.791 114.545 188.736 114.749 188.625C114.957 188.51 115.129 188.354 115.265 188.157C115.401 187.96 115.503 187.735 115.571 187.48C115.642 187.223 115.678 186.949 115.678 186.659V186.535C115.678 186.249 115.642 185.978 115.571 185.724C115.503 185.466 115.399 185.239 115.259 185.042C115.123 184.841 114.951 184.684 114.744 184.569C114.54 184.455 114.3 184.397 114.024 184.397C113.752 184.397 113.512 184.455 113.304 184.569C113.1 184.684 112.928 184.841 112.789 185.042C112.653 185.239 112.55 185.466 112.482 185.724C112.414 185.978 112.38 186.249 112.38 186.535ZM119.167 184.602V189.5H118.173V183.688H119.14L119.167 184.602ZM120.982 183.656L120.977 184.58C120.895 184.562 120.816 184.551 120.741 184.548C120.669 184.541 120.587 184.537 120.494 184.537C120.264 184.537 120.062 184.573 119.887 184.645C119.711 184.716 119.563 184.816 119.441 184.945C119.319 185.074 119.222 185.228 119.151 185.407C119.083 185.583 119.038 185.776 119.017 185.987L118.737 186.148C118.737 185.798 118.771 185.468 118.839 185.16C118.911 184.852 119.02 184.58 119.167 184.344C119.314 184.104 119.5 183.918 119.726 183.785C119.955 183.649 120.227 183.581 120.542 183.581C120.614 183.581 120.696 183.59 120.789 183.608C120.882 183.622 120.947 183.638 120.982 183.656ZM125.809 183.688H126.711V189.376C126.711 189.889 126.607 190.325 126.399 190.687C126.192 191.049 125.902 191.323 125.529 191.509C125.16 191.699 124.734 191.793 124.251 191.793C124.05 191.793 123.814 191.761 123.542 191.697C123.273 191.636 123.008 191.53 122.747 191.38C122.489 191.233 122.273 191.034 122.097 190.784L122.618 190.193C122.862 190.486 123.116 190.691 123.381 190.805C123.649 190.92 123.914 190.977 124.176 190.977C124.491 190.977 124.763 190.918 124.992 190.8C125.221 190.682 125.399 190.506 125.524 190.273C125.653 190.044 125.717 189.761 125.717 189.425V184.967L125.809 183.688ZM121.807 186.659V186.546C121.807 186.102 121.859 185.699 121.963 185.337C122.07 184.972 122.222 184.659 122.419 184.397C122.62 184.136 122.862 183.936 123.145 183.796C123.427 183.653 123.746 183.581 124.101 183.581C124.466 183.581 124.785 183.646 125.057 183.774C125.332 183.9 125.565 184.084 125.755 184.328C125.948 184.568 126.1 184.858 126.211 185.198C126.322 185.538 126.399 185.923 126.442 186.353V186.847C126.403 187.273 126.326 187.656 126.211 187.996C126.1 188.336 125.948 188.626 125.755 188.866C125.565 189.106 125.332 189.291 125.057 189.419C124.781 189.545 124.459 189.607 124.09 189.607C123.743 189.607 123.427 189.534 123.145 189.387C122.865 189.24 122.625 189.035 122.425 188.77C122.224 188.505 122.07 188.193 121.963 187.835C121.859 187.473 121.807 187.081 121.807 186.659ZM122.801 186.546V186.659C122.801 186.949 122.829 187.221 122.887 187.475C122.948 187.729 123.039 187.953 123.161 188.146C123.286 188.34 123.445 188.492 123.639 188.603C123.832 188.71 124.063 188.764 124.332 188.764C124.661 188.764 124.933 188.694 125.148 188.555C125.363 188.415 125.533 188.231 125.658 188.001C125.787 187.772 125.887 187.523 125.959 187.255V185.96C125.92 185.764 125.859 185.574 125.776 185.391C125.698 185.205 125.594 185.04 125.465 184.897C125.34 184.75 125.184 184.634 124.998 184.548C124.811 184.462 124.593 184.419 124.342 184.419C124.07 184.419 123.836 184.476 123.639 184.591C123.445 184.702 123.286 184.856 123.161 185.053C123.039 185.246 122.948 185.472 122.887 185.729C122.829 185.984 122.801 186.256 122.801 186.546Z" fill="#1E293B"/>
</g>
<path fill-rule="evenodd" clip-rule="evenodd" d="M164.362 183.84L160.969 183.546L159.644 180.426C159.406 179.858 158.592 179.858 158.354 180.426L157.029 183.553L153.643 183.84C153.026 183.889 152.774 184.66 153.243 185.067L155.816 187.296L155.045 190.605C154.905 191.208 155.557 191.685 156.09 191.362L158.999 189.61L161.908 191.37C162.441 191.692 163.093 191.215 162.953 190.612L162.182 187.296L164.755 185.067C165.224 184.66 164.979 183.889 164.362 183.84ZM158.999 188.299L156.363 189.89L157.064 186.89L154.737 184.871L157.807 184.604L158.999 181.779L160.198 184.611L163.268 184.878L160.941 186.897L161.642 189.897L158.999 188.299Z" fill="#020617" fill-opacity="0.15"/>
<rect x="185" y="172" width="28" height="28" rx="14" stroke="#E2E8F0" stroke-width="4"/>
<path d="M199 173.969C195.813 173.973 192.758 175.24 190.505 177.493C188.252 179.745 186.985 182.799 186.981 185.985C186.985 189.17 188.252 192.224 190.505 194.477C192.758 196.729 195.813 197.996 199 198C202.187 197.997 205.242 196.73 207.495 194.477C209.748 192.224 211.016 189.17 211.019 185.985C211.015 182.799 209.748 179.745 207.495 177.493C205.241 175.24 202.186 173.973 199 173.969ZM199 197.519C195.941 197.516 193.008 196.3 190.845 194.137C188.682 191.975 187.465 189.043 187.461 185.985C187.465 182.926 188.682 179.995 190.845 177.832C193.008 175.67 195.941 174.453 199 174.45C202.059 174.453 204.992 175.67 207.155 177.832C209.318 179.995 210.535 182.926 210.538 185.985C210.535 189.043 209.318 191.975 207.155 194.137C204.992 196.3 202.059 197.516 199 197.519Z" fill="#4F868E"/>
<path d="M199 197.519C195.941 197.516 193.008 196.3 190.845 194.137C188.682 191.975 187.465 189.043 187.461 185.985C187.465 182.926 188.682 179.995 190.845 177.832C193.008 175.67 195.941 174.453 199 174.45C202.059 174.453 204.992 175.67 207.155 177.832C209.318 179.995 210.535 182.926 210.538 185.985C210.535 189.043 209.318 191.975 207.155 194.137C204.992 196.3 202.059 197.516 199 197.519Z" fill="#4F868E"/>
<path d="M202.128 180.98C201.524 180.984 200.929 181.125 200.387 181.393C199.845 181.66 199.371 182.047 199 182.524C198.63 182.047 198.156 181.66 197.614 181.393C197.073 181.125 196.478 180.984 195.873 180.98C193.62 180.98 191.789 182.918 191.789 185.305V190.035C191.789 190.29 191.89 190.534 192.07 190.714C192.251 190.895 192.495 190.996 192.75 190.996C193.005 190.996 193.25 190.895 193.43 190.714C193.61 190.534 193.712 190.29 193.712 190.035V185.302C193.712 183.976 194.684 182.899 195.88 182.899C197.075 182.899 198.048 183.979 198.048 185.302V190.031C198.048 190.286 198.149 190.531 198.33 190.711C198.51 190.891 198.755 190.993 199.01 190.993C199.265 190.993 199.509 190.891 199.69 190.711C199.87 190.531 199.971 190.286 199.971 190.031V185.302C199.971 183.976 200.944 182.899 202.14 182.899C203.335 182.899 204.308 183.979 204.308 185.302V190.031C204.308 190.286 204.409 190.531 204.589 190.711C204.77 190.891 205.014 190.993 205.269 190.993C205.524 190.993 205.769 190.891 205.949 190.711C206.13 190.531 206.231 190.286 206.231 190.031V185.302C206.213 182.918 204.382 180.98 202.128 180.98Z" fill="#F3F8F8"/>
<g opacity="0.75" filter="url(#filter0_f_6063_2879)">
<path d="M14 219.17C14 214.105 18.1053 210 23.1695 210H207.83C212.895 210 217 214.105 217 219.17V252.83C217 257.895 212.895 262 207.83 262H23.1695C18.1053 262 14 257.895 14 252.83V219.17Z" fill="white"/>
<path d="M23.1695 209C17.5531 209 13 213.553 13 219.17V252.83C13 258.447 17.553 263 23.1695 263H207.83C213.447 263 218 258.447 218 252.83V219.17C218 213.553 213.447 209 207.83 209H23.1695Z" stroke="url(#paint0_linear_6063_2879)" stroke-width="2"/>
</g>
<g clip-path="url(#clip1_6063_2879)">
<path d="M14 219.17C14 214.105 18.1053 210 23.1695 210H207.83C212.895 210 217 214.105 217 219.17V252.339C217 257.403 212.895 261.509 207.83 261.509H23.1695C18.1053 261.509 14 257.403 14 252.339V219.17Z" fill="white"/>
<g opacity="0.8">
<mask id="path-12-inside-1_6063_2879" fill="white">
<path d="M14 210H217V235.754H14V210Z"/>
</mask>
<path d="M217 234.99H14V236.518H217V234.99Z" fill="#F1F5F9" mask="url(#path-12-inside-1_6063_2879)"/>
<path d="M22.8595 225.377V218.87C22.8805 218.87 22.9435 218.872 23.0485 218.875C23.1565 218.875 23.287 218.875 23.44 218.875C23.593 218.872 23.752 218.872 23.917 218.875C24.082 218.875 24.2335 218.876 24.3715 218.879C25.1695 218.891 25.816 219.022 26.311 219.271C26.809 219.517 27.1735 219.875 27.4045 220.346C27.6385 220.817 27.7555 221.396 27.7555 222.083C27.7555 222.803 27.6295 223.408 27.3775 223.897C27.1285 224.386 26.7475 224.755 26.2345 225.004C25.7245 225.253 25.075 225.377 24.286 225.377H22.8595ZM23.7145 224.662H24.286C24.823 224.662 25.285 224.579 25.672 224.414C26.059 224.246 26.356 223.975 26.563 223.6C26.773 223.225 26.878 222.724 26.878 222.097C26.878 221.47 26.776 220.973 26.572 220.607C26.371 220.241 26.08 219.98 25.699 219.824C25.318 219.665 24.859 219.586 24.322 219.586H23.7145V224.662ZM30.8367 225.467C30.4077 225.467 30.0327 225.376 29.7117 225.193C29.3937 225.007 29.1462 224.735 28.9692 224.378C28.7922 224.021 28.7037 223.585 28.7037 223.069C28.7037 222.583 28.7862 222.157 28.9512 221.791C29.1162 221.425 29.3577 221.141 29.6757 220.94C29.9937 220.736 30.3822 220.634 30.8412 220.634C31.2702 220.634 31.6422 220.729 31.9572 220.918C32.2722 221.104 32.5167 221.378 32.6907 221.741C32.8677 222.104 32.9562 222.547 32.9562 223.069C32.9562 223.543 32.8752 223.96 32.7132 224.32C32.5512 224.68 32.3127 224.962 31.9977 225.166C31.6857 225.367 31.2987 225.467 30.8367 225.467ZM30.8412 224.81C31.1172 224.81 31.3512 224.74 31.5432 224.599C31.7352 224.458 31.8807 224.255 31.9797 223.991C32.0817 223.727 32.1327 223.414 32.1327 223.051C32.1327 222.718 32.0877 222.419 31.9977 222.155C31.9107 221.888 31.7727 221.677 31.5837 221.521C31.3947 221.365 31.1472 221.287 30.8412 221.287C30.5592 221.287 30.3207 221.357 30.1257 221.498C29.9307 221.636 29.7822 221.837 29.6802 222.101C29.5812 222.365 29.5317 222.682 29.5317 223.051C29.5317 223.378 29.5752 223.675 29.6622 223.942C29.7522 224.209 29.8932 224.42 30.0852 224.576C30.2802 224.732 30.5322 224.81 30.8412 224.81ZM36.2883 225.377V220.724H37.0938V221.399C37.1688 221.27 37.2723 221.149 37.4043 221.035C37.5393 220.921 37.7013 220.829 37.8903 220.76C38.0823 220.691 38.3028 220.657 38.5518 220.657C38.8458 220.657 39.1158 220.715 39.3618 220.832C39.6108 220.949 39.8088 221.132 39.9558 221.381C40.1058 221.627 40.1808 221.945 40.1808 222.335V225.377H39.3483V222.416C39.3483 222.053 39.2523 221.785 39.0603 221.611C38.8713 221.434 38.6253 221.345 38.3223 221.345C38.1123 221.345 37.9158 221.38 37.7328 221.449C37.5498 221.515 37.4013 221.617 37.2873 221.755C37.1733 221.89 37.1163 222.061 37.1163 222.268V225.377H36.2883ZM43.3907 225.467C42.9617 225.467 42.5867 225.376 42.2657 225.193C41.9477 225.007 41.7002 224.735 41.5232 224.378C41.3462 224.021 41.2577 223.585 41.2577 223.069C41.2577 222.583 41.3402 222.157 41.5052 221.791C41.6702 221.425 41.9117 221.141 42.2297 220.94C42.5477 220.736 42.9362 220.634 43.3952 220.634C43.8242 220.634 44.1962 220.729 44.5112 220.918C44.8262 221.104 45.0707 221.378 45.2447 221.741C45.4217 222.104 45.5102 222.547 45.5102 223.069C45.5102 223.543 45.4292 223.96 45.2672 224.32C45.1052 224.68 44.8667 224.962 44.5517 225.166C44.2397 225.367 43.8527 225.467 43.3907 225.467ZM43.3952 224.81C43.6712 224.81 43.9052 224.74 44.0972 224.599C44.2892 224.458 44.4347 224.255 44.5337 223.991C44.6357 223.727 44.6867 223.414 44.6867 223.051C44.6867 222.718 44.6417 222.419 44.5517 222.155C44.4647 221.888 44.3267 221.677 44.1377 221.521C43.9487 221.365 43.7012 221.287 43.3952 221.287C43.1132 221.287 42.8747 221.357 42.6797 221.498C42.4847 221.636 42.3362 221.837 42.2342 222.101C42.1352 222.365 42.0857 222.682 42.0857 223.051C42.0857 223.378 42.1292 223.675 42.2162 223.942C42.3062 224.209 42.4472 224.42 42.6392 224.576C42.8342 224.732 43.0862 224.81 43.3952 224.81ZM48.1561 225.4C47.8351 225.4 47.5861 225.356 47.4091 225.269C47.2321 225.182 47.1076 225.053 47.0356 224.882C46.9666 224.711 46.9321 224.501 46.9321 224.252V221.332H46.1761V220.724H46.9546L47.1571 219.37H47.7691V220.72H48.8176V221.332H47.7691V224.225C47.7691 224.39 47.7856 224.512 47.8186 224.59C47.8546 224.665 47.9131 224.713 47.9941 224.734C48.0751 224.755 48.1891 224.765 48.3361 224.765H48.8446V225.323C48.7876 225.344 48.7006 225.362 48.5836 225.377C48.4696 225.392 48.3271 225.4 48.1561 225.4ZM53.9011 225.467C53.5771 225.467 53.2756 225.418 52.9966 225.319C52.7206 225.217 52.4911 225.059 52.3081 224.846C52.1251 224.63 52.0111 224.356 51.9661 224.023H52.7221C52.7611 224.206 52.8361 224.359 52.9471 224.482C53.0581 224.602 53.1946 224.693 53.3566 224.756C53.5216 224.816 53.7016 224.846 53.8966 224.846C54.2116 224.846 54.4651 224.788 54.6571 224.671C54.8491 224.554 54.9451 224.374 54.9451 224.131C54.9451 223.96 54.8941 223.823 54.7921 223.721C54.6931 223.616 54.5371 223.54 54.3241 223.492L53.3611 223.253C52.9861 223.163 52.6861 223.022 52.4611 222.83C52.2391 222.638 52.1266 222.37 52.1236 222.025C52.1236 221.752 52.1896 221.512 52.3216 221.305C52.4536 221.098 52.6501 220.934 52.9111 220.814C53.1751 220.694 53.5036 220.634 53.8966 220.634C54.4036 220.634 54.8116 220.748 55.1206 220.976C55.4296 221.201 55.5916 221.533 55.6066 221.971H54.8686C54.8386 221.749 54.7396 221.573 54.5716 221.444C54.4036 221.312 54.1756 221.246 53.8876 221.246C53.5936 221.246 53.3521 221.306 53.1631 221.426C52.9771 221.543 52.8841 221.726 52.8841 221.975C52.8841 222.14 52.9501 222.271 53.0821 222.367C53.2171 222.46 53.4121 222.538 53.6671 222.601L54.6031 222.835C54.8161 222.892 54.9931 222.967 55.1341 223.06C55.2751 223.153 55.3861 223.256 55.4671 223.37C55.5481 223.484 55.6051 223.604 55.6381 223.73C55.6741 223.853 55.6921 223.972 55.6921 224.086C55.6921 224.371 55.6216 224.617 55.4806 224.824C55.3396 225.028 55.1356 225.187 54.8686 225.301C54.6016 225.412 54.2791 225.467 53.9011 225.467ZM58.7914 225.467C58.3594 225.467 57.9784 225.373 57.6484 225.184C57.3184 224.995 57.0604 224.723 56.8744 224.369C56.6884 224.015 56.5954 223.591 56.5954 223.096C56.5954 222.607 56.6794 222.178 56.8474 221.809C57.0154 221.44 57.2584 221.152 57.5764 220.945C57.8974 220.738 58.2829 220.634 58.7329 220.634C59.1709 220.634 59.5414 220.729 59.8444 220.918C60.1474 221.107 60.3769 221.374 60.5329 221.719C60.6919 222.061 60.7714 222.467 60.7714 222.938V223.244H57.4369C57.4369 223.538 57.4849 223.805 57.5809 224.045C57.6799 224.282 57.8284 224.471 58.0264 224.612C58.2244 224.753 58.4749 224.824 58.7779 224.824C59.0749 224.824 59.3299 224.755 59.5429 224.617C59.7589 224.479 59.8969 224.279 59.9569 224.018H60.7399C60.6859 224.333 60.5599 224.599 60.3619 224.815C60.1669 225.031 59.9314 225.194 59.6554 225.305C59.3824 225.413 59.0944 225.467 58.7914 225.467ZM57.4414 222.682H59.9704C59.9704 222.415 59.9254 222.175 59.8354 221.962C59.7454 221.746 59.6074 221.576 59.4214 221.453C59.2384 221.327 59.0074 221.264 58.7284 221.264C58.4374 221.264 58.1959 221.335 58.0039 221.476C57.8119 221.614 57.6694 221.792 57.5764 222.011C57.4834 222.227 57.4384 222.451 57.4414 222.682ZM63.142 225.436C62.89 225.436 62.686 225.401 62.53 225.332C62.377 225.263 62.2585 225.17 62.1745 225.053C62.0935 224.936 62.038 224.803 62.008 224.653C61.981 224.5 61.9675 224.342 61.9675 224.18V218.69H62.7865V224.099C62.7865 224.333 62.8315 224.509 62.9215 224.626C63.0145 224.743 63.1435 224.807 63.3085 224.819L63.5605 224.824V225.364C63.4915 225.385 63.4195 225.401 63.3445 225.413C63.2695 225.428 63.202 225.436 63.142 225.436ZM65.7798 225.436C65.5278 225.436 65.3238 225.401 65.1678 225.332C65.0148 225.263 64.8963 225.17 64.8123 225.053C64.7313 224.936 64.6758 224.803 64.6458 224.653C64.6188 224.5 64.6053 224.342 64.6053 224.18V218.69H65.4243V224.099C65.4243 224.333 65.4693 224.509 65.5593 224.626C65.6523 224.743 65.7813 224.807 65.9463 224.819L66.1983 224.824V225.364C66.1293 225.385 66.0573 225.401 65.9823 225.413C65.9073 225.428 65.8398 225.436 65.7798 225.436ZM66.8079 225.724L69.0579 218.87H69.7059L67.4514 225.724H66.8079ZM72.2492 225.467C71.9252 225.467 71.6237 225.418 71.3447 225.319C71.0687 225.217 70.8392 225.059 70.6562 224.846C70.4732 224.63 70.3592 224.356 70.3142 224.023H71.0702C71.1092 224.206 71.1842 224.359 71.2952 224.482C71.4062 224.602 71.5427 224.693 71.7047 224.756C71.8697 224.816 72.0497 224.846 72.2447 224.846C72.5597 224.846 72.8132 224.788 73.0052 224.671C73.1972 224.554 73.2932 224.374 73.2932 224.131C73.2932 223.96 73.2422 223.823 73.1402 223.721C73.0412 223.616 72.8852 223.54 72.6722 223.492L71.7092 223.253C71.3342 223.163 71.0342 223.022 70.8092 222.83C70.5872 222.638 70.4747 222.37 70.4717 222.025C70.4717 221.752 70.5377 221.512 70.6697 221.305C70.8017 221.098 70.9982 220.934 71.2592 220.814C71.5232 220.694 71.8517 220.634 72.2447 220.634C72.7517 220.634 73.1597 220.748 73.4687 220.976C73.7777 221.201 73.9397 221.533 73.9547 221.971H73.2167C73.1867 221.749 73.0877 221.573 72.9197 221.444C72.7517 221.312 72.5237 221.246 72.2357 221.246C71.9417 221.246 71.7002 221.306 71.5112 221.426C71.3252 221.543 71.2322 221.726 71.2322 221.975C71.2322 222.14 71.2982 222.271 71.4302 222.367C71.5652 222.46 71.7602 222.538 72.0152 222.601L72.9512 222.835C73.1642 222.892 73.3412 222.967 73.4822 223.06C73.6232 223.153 73.7342 223.256 73.8152 223.37C73.8962 223.484 73.9532 223.604 73.9862 223.73C74.0222 223.853 74.0402 223.972 74.0402 224.086C74.0402 224.371 73.9697 224.617 73.8287 224.824C73.6877 225.028 73.4837 225.187 73.2167 225.301C72.9497 225.412 72.6272 225.467 72.2492 225.467ZM75.1729 225.377V218.69H75.9829V221.408C76.0609 221.279 76.1659 221.159 76.2979 221.048C76.4299 220.934 76.5904 220.843 76.7794 220.774C76.9684 220.702 77.1874 220.666 77.4364 220.666C77.7394 220.666 78.0139 220.723 78.2599 220.837C78.5059 220.948 78.7009 221.107 78.8449 221.314C78.9889 221.521 79.0609 221.767 79.0609 222.052V225.377H78.2284V222.218C78.2284 221.939 78.1324 221.725 77.9404 221.575C77.7514 221.422 77.5039 221.345 77.1979 221.345C76.9909 221.345 76.7959 221.38 76.6129 221.449C76.4299 221.515 76.2814 221.617 76.1674 221.755C76.0564 221.89 76.0009 222.062 76.0009 222.272V225.377H75.1729ZM81.6909 225.467C81.3879 225.467 81.1209 225.415 80.8899 225.31C80.6619 225.202 80.4819 225.047 80.3499 224.846C80.2209 224.645 80.1564 224.402 80.1564 224.117C80.1564 223.601 80.3364 223.217 80.6964 222.965C81.0564 222.713 81.6339 222.578 82.4289 222.56L83.2569 222.538V222.173C83.2569 221.888 83.1714 221.663 83.0004 221.498C82.8294 221.33 82.5654 221.246 82.2084 221.246C81.9414 221.249 81.7059 221.312 81.5019 221.435C81.2979 221.558 81.1674 221.759 81.1104 222.038H80.3769C80.3949 221.735 80.4789 221.48 80.6289 221.273C80.7819 221.063 80.9964 220.904 81.2724 220.796C81.5484 220.688 81.8739 220.634 82.2489 220.634C82.6539 220.634 82.9899 220.691 83.2569 220.805C83.5269 220.919 83.7279 221.087 83.8599 221.309C83.9949 221.531 84.0624 221.804 84.0624 222.128V225.377H83.3514L83.2884 224.504C83.1114 224.867 82.8834 225.119 82.6044 225.26C82.3284 225.398 82.0239 225.467 81.6909 225.467ZM81.9384 224.869C82.0974 224.869 82.2534 224.84 82.4064 224.783C82.5624 224.726 82.7034 224.65 82.8294 224.554C82.9584 224.455 83.0619 224.345 83.1399 224.225C83.2179 224.102 83.2569 223.976 83.2569 223.847V223.051L82.5684 223.064C82.2114 223.07 81.9144 223.106 81.6774 223.172C81.4404 223.238 81.2619 223.342 81.1419 223.483C81.0219 223.624 80.9619 223.808 80.9619 224.036C80.9619 224.297 81.0534 224.501 81.2364 224.648C81.4194 224.795 81.6534 224.869 81.9384 224.869ZM85.4055 225.377V220.724H86.1975V221.62C86.2755 221.398 86.385 221.215 86.526 221.071C86.667 220.924 86.8275 220.814 87.0075 220.742C87.1905 220.67 87.3795 220.634 87.5745 220.634C87.6435 220.634 87.711 220.639 87.777 220.648C87.843 220.657 87.894 220.672 87.93 220.693V221.498C87.885 221.477 87.8265 221.464 87.7545 221.458C87.6855 221.449 87.627 221.444 87.579 221.444C87.393 221.432 87.219 221.444 87.057 221.48C86.895 221.513 86.7525 221.572 86.6295 221.656C86.5065 221.74 86.409 221.851 86.337 221.989C86.268 222.124 86.2335 222.289 86.2335 222.484V225.377H85.4055ZM90.8623 225.467C90.4303 225.467 90.0493 225.373 89.7193 225.184C89.3893 224.995 89.1313 224.723 88.9453 224.369C88.7593 224.015 88.6663 223.591 88.6663 223.096C88.6663 222.607 88.7503 222.178 88.9183 221.809C89.0863 221.44 89.3293 221.152 89.6473 220.945C89.9683 220.738 90.3538 220.634 90.8038 220.634C91.2418 220.634 91.6123 220.729 91.9153 220.918C92.2183 221.107 92.4478 221.374 92.6038 221.719C92.7628 222.061 92.8423 222.467 92.8423 222.938V223.244H89.5078C89.5078 223.538 89.5558 223.805 89.6518 224.045C89.7508 224.282 89.8993 224.471 90.0973 224.612C90.2953 224.753 90.5458 224.824 90.8488 224.824C91.1458 224.824 91.4008 224.755 91.6138 224.617C91.8298 224.479 91.9678 224.279 92.0278 224.018H92.8108C92.7568 224.333 92.6308 224.599 92.4328 224.815C92.2378 225.031 92.0023 225.194 91.7263 225.305C91.4533 225.413 91.1653 225.467 90.8623 225.467ZM89.5123 222.682H92.0413C92.0413 222.415 91.9963 222.175 91.9063 221.962C91.8163 221.746 91.6783 221.576 91.4923 221.453C91.3093 221.327 91.0783 221.264 90.7993 221.264C90.5083 221.264 90.2668 221.335 90.0748 221.476C89.8828 221.614 89.7403 221.792 89.6473 222.011C89.5543 222.227 89.5093 222.451 89.5123 222.682ZM96.2192 225.377V220.724H97.0202V221.399C97.1492 221.195 97.3262 221.017 97.5512 220.864C97.7762 220.711 98.0687 220.634 98.4287 220.634C98.5967 220.634 98.7677 220.663 98.9417 220.72C99.1187 220.777 99.2807 220.862 99.4277 220.976C99.5747 221.09 99.6887 221.23 99.7697 221.395C99.9137 221.167 100.109 220.984 100.355 220.846C100.601 220.705 100.878 220.634 101.187 220.634C101.349 220.634 101.519 220.66 101.696 220.711C101.873 220.759 102.036 220.846 102.186 220.972C102.339 221.095 102.464 221.267 102.56 221.489C102.656 221.708 102.704 221.99 102.704 222.335V225.377H101.867V222.416C101.867 222.134 101.822 221.917 101.732 221.764C101.642 221.608 101.523 221.498 101.376 221.435C101.232 221.372 101.078 221.341 100.913 221.341C100.769 221.341 100.616 221.369 100.454 221.426C100.292 221.483 100.154 221.579 100.04 221.714C99.9257 221.849 99.8687 222.034 99.8687 222.268V225.377H99.0407V222.173C99.0407 221.99 98.9912 221.837 98.8922 221.714C98.7962 221.591 98.6747 221.498 98.5277 221.435C98.3837 221.372 98.2397 221.341 98.0957 221.341C97.9367 221.341 97.7762 221.372 97.6142 221.435C97.4552 221.498 97.3202 221.599 97.2092 221.737C97.1012 221.872 97.0472 222.049 97.0472 222.268V225.377H96.2192ZM104.365 226.862C104.092 226.862 103.905 226.843 103.803 226.804C103.701 226.765 103.65 226.745 103.65 226.745V226.205L104.127 226.214C104.298 226.22 104.44 226.208 104.554 226.178C104.668 226.148 104.76 226.108 104.829 226.057C104.898 226.006 104.95 225.949 104.986 225.886C105.025 225.823 105.057 225.763 105.081 225.706L105.243 225.265L103.425 220.724H104.266L105.639 224.315L107.002 220.724H107.817L105.859 225.728C105.736 226.022 105.6 226.252 105.45 226.417C105.303 226.582 105.138 226.697 104.955 226.763C104.775 226.829 104.578 226.862 104.365 226.862ZM110.962 226.826V220.724H111.79L111.799 221.534C111.853 221.438 111.922 221.338 112.006 221.233C112.093 221.128 112.198 221.03 112.321 220.94C112.447 220.85 112.592 220.777 112.757 220.72C112.925 220.663 113.116 220.634 113.329 220.634C113.701 220.634 114.028 220.72 114.31 220.891C114.595 221.059 114.817 221.317 114.976 221.665C115.135 222.013 115.214 222.454 115.214 222.988C115.214 223.522 115.136 223.973 114.98 224.342C114.827 224.708 114.605 224.987 114.314 225.179C114.023 225.371 113.672 225.467 113.261 225.467C113.054 225.467 112.87 225.437 112.708 225.377C112.549 225.32 112.409 225.245 112.289 225.152C112.172 225.056 112.073 224.954 111.992 224.846C111.914 224.738 111.85 224.635 111.799 224.536V226.826H110.962ZM113.104 224.819C113.488 224.819 113.801 224.674 114.044 224.383C114.287 224.089 114.409 223.633 114.409 223.015C114.409 222.484 114.298 222.062 114.076 221.75C113.854 221.438 113.53 221.282 113.104 221.282C112.672 221.282 112.345 221.443 112.123 221.764C111.901 222.082 111.79 222.499 111.79 223.015C111.79 223.348 111.839 223.651 111.938 223.924C112.037 224.197 112.184 224.414 112.379 224.576C112.574 224.738 112.816 224.819 113.104 224.819ZM118.334 225.467C117.902 225.467 117.521 225.373 117.191 225.184C116.861 224.995 116.603 224.723 116.417 224.369C116.231 224.015 116.138 223.591 116.138 223.096C116.138 222.607 116.222 222.178 116.39 221.809C116.558 221.44 116.801 221.152 117.119 220.945C117.44 220.738 117.826 220.634 118.276 220.634C118.714 220.634 119.084 220.729 119.387 220.918C119.69 221.107 119.92 221.374 120.076 221.719C120.235 222.061 120.314 222.467 120.314 222.938V223.244H116.98C116.98 223.538 117.028 223.805 117.124 224.045C117.223 224.282 117.371 224.471 117.569 224.612C117.767 224.753 118.018 224.824 118.321 224.824C118.618 224.824 118.873 224.755 119.086 224.617C119.302 224.479 119.44 224.279 119.5 224.018H120.283C120.229 224.333 120.103 224.599 119.905 224.815C119.71 225.031 119.474 225.194 119.198 225.305C118.925 225.413 118.637 225.467 118.334 225.467ZM116.984 222.682H119.513C119.513 222.415 119.468 222.175 119.378 221.962C119.288 221.746 119.15 221.576 118.964 221.453C118.781 221.327 118.55 221.264 118.271 221.264C117.98 221.264 117.739 221.335 117.547 221.476C117.355 221.614 117.212 221.792 117.119 222.011C117.026 222.227 116.981 222.451 116.984 222.682ZM121.511 225.377V220.724H122.303V221.62C122.381 221.398 122.49 221.215 122.631 221.071C122.772 220.924 122.933 220.814 123.113 220.742C123.296 220.67 123.485 220.634 123.68 220.634C123.749 220.634 123.816 220.639 123.882 220.648C123.948 220.657 123.999 220.672 124.035 220.693V221.498C123.99 221.477 123.932 221.464 123.86 221.458C123.791 221.449 123.732 221.444 123.684 221.444C123.498 221.432 123.324 221.444 123.162 221.48C123 221.513 122.858 221.572 122.735 221.656C122.612 221.74 122.514 221.851 122.442 221.989C122.373 222.124 122.339 222.289 122.339 222.484V225.377H121.511ZM126.719 225.467C126.395 225.467 126.093 225.418 125.814 225.319C125.538 225.217 125.309 225.059 125.126 224.846C124.943 224.63 124.829 224.356 124.784 224.023H125.54C125.579 224.206 125.654 224.359 125.765 224.482C125.876 224.602 126.012 224.693 126.174 224.756C126.339 224.816 126.519 224.846 126.714 224.846C127.029 224.846 127.283 224.788 127.475 224.671C127.667 224.554 127.763 224.374 127.763 224.131C127.763 223.96 127.712 223.823 127.61 223.721C127.511 223.616 127.355 223.54 127.142 223.492L126.179 223.253C125.804 223.163 125.504 223.022 125.279 222.83C125.057 222.638 124.944 222.37 124.941 222.025C124.941 221.752 125.007 221.512 125.139 221.305C125.271 221.098 125.468 220.934 125.729 220.814C125.993 220.694 126.321 220.634 126.714 220.634C127.221 220.634 127.629 220.748 127.938 220.976C128.247 221.201 128.409 221.533 128.424 221.971H127.686C127.656 221.749 127.557 221.573 127.389 221.444C127.221 221.312 126.993 221.246 126.705 221.246C126.411 221.246 126.17 221.306 125.981 221.426C125.795 221.543 125.702 221.726 125.702 221.975C125.702 222.14 125.768 222.271 125.9 222.367C126.035 222.46 126.23 222.538 126.485 222.601L127.421 222.835C127.634 222.892 127.811 222.967 127.952 223.06C128.093 223.153 128.204 223.256 128.285 223.37C128.366 223.484 128.423 223.604 128.456 223.73C128.492 223.853 128.51 223.972 128.51 224.086C128.51 224.371 128.439 224.617 128.298 224.824C128.157 225.028 127.953 225.187 127.686 225.301C127.419 225.412 127.097 225.467 126.719 225.467ZM131.506 225.467C131.077 225.467 130.702 225.376 130.381 225.193C130.063 225.007 129.815 224.735 129.638 224.378C129.461 224.021 129.373 223.585 129.373 223.069C129.373 222.583 129.455 222.157 129.62 221.791C129.785 221.425 130.027 221.141 130.345 220.94C130.663 220.736 131.051 220.634 131.51 220.634C131.939 220.634 132.311 220.729 132.626 220.918C132.941 221.104 133.186 221.378 133.36 221.741C133.537 222.104 133.625 222.547 133.625 223.069C133.625 223.543 133.544 223.96 133.382 224.32C133.22 224.68 132.982 224.962 132.667 225.166C132.355 225.367 131.968 225.467 131.506 225.467ZM131.51 224.81C131.786 224.81 132.02 224.74 132.212 224.599C132.404 224.458 132.55 224.255 132.649 223.991C132.751 223.727 132.802 223.414 132.802 223.051C132.802 222.718 132.757 222.419 132.667 222.155C132.58 221.888 132.442 221.677 132.253 221.521C132.064 221.365 131.816 221.287 131.51 221.287C131.228 221.287 130.99 221.357 130.795 221.498C130.6 221.636 130.451 221.837 130.349 222.101C130.25 222.365 130.201 222.682 130.201 223.051C130.201 223.378 130.244 223.675 130.331 223.942C130.421 224.209 130.562 224.42 130.754 224.576C130.949 224.732 131.201 224.81 131.51 224.81ZM134.776 225.377V220.724H135.582V221.399C135.657 221.27 135.76 221.149 135.892 221.035C136.027 220.921 136.189 220.829 136.378 220.76C136.57 220.691 136.791 220.657 137.04 220.657C137.334 220.657 137.604 220.715 137.85 220.832C138.099 220.949 138.297 221.132 138.444 221.381C138.594 221.627 138.669 221.945 138.669 222.335V225.377H137.836V222.416C137.836 222.053 137.74 221.785 137.548 221.611C137.359 221.434 137.113 221.345 136.81 221.345C136.6 221.345 136.404 221.38 136.221 221.449C136.038 221.515 135.889 221.617 135.775 221.755C135.661 221.89 135.604 222.061 135.604 222.268V225.377H134.776ZM141.303 225.467C141 225.467 140.733 225.415 140.502 225.31C140.274 225.202 140.094 225.047 139.962 224.846C139.833 224.645 139.769 224.402 139.769 224.117C139.769 223.601 139.949 223.217 140.309 222.965C140.669 222.713 141.246 222.578 142.041 222.56L142.869 222.538V222.173C142.869 221.888 142.784 221.663 142.613 221.498C142.442 221.33 142.178 221.246 141.821 221.246C141.554 221.249 141.318 221.312 141.114 221.435C140.91 221.558 140.78 221.759 140.723 222.038H139.989C140.007 221.735 140.091 221.48 140.241 221.273C140.394 221.063 140.609 220.904 140.885 220.796C141.161 220.688 141.486 220.634 141.861 220.634C142.266 220.634 142.602 220.691 142.869 220.805C143.139 220.919 143.34 221.087 143.472 221.309C143.607 221.531 143.675 221.804 143.675 222.128V225.377H142.964L142.901 224.504C142.724 224.867 142.496 225.119 142.217 225.26C141.941 225.398 141.636 225.467 141.303 225.467ZM141.551 224.869C141.71 224.869 141.866 224.84 142.019 224.783C142.175 224.726 142.316 224.65 142.442 224.554C142.571 224.455 142.674 224.345 142.752 224.225C142.83 224.102 142.869 223.976 142.869 223.847V223.051L142.181 223.064C141.824 223.07 141.527 223.106 141.29 223.172C141.053 223.238 140.874 223.342 140.754 223.483C140.634 223.624 140.574 223.808 140.574 224.036C140.574 224.297 140.666 224.501 140.849 224.648C141.032 224.795 141.266 224.869 141.551 224.869ZM146.192 225.436C145.94 225.436 145.736 225.401 145.58 225.332C145.427 225.263 145.309 225.17 145.225 225.053C145.144 224.936 145.088 224.803 145.058 224.653C145.031 224.5 145.018 224.342 145.018 224.18V218.69H145.837V224.099C145.837 224.333 145.882 224.509 145.972 224.626C146.065 224.743 146.194 224.807 146.359 224.819L146.611 224.824V225.364C146.542 225.385 146.47 225.401 146.395 225.413C146.32 225.428 146.252 225.436 146.192 225.436ZM151.603 225.467C150.997 225.467 150.517 225.26 150.163 224.846C149.812 224.432 149.637 223.828 149.637 223.033C149.637 222.55 149.707 222.128 149.848 221.768C149.989 221.408 150.201 221.129 150.483 220.931C150.765 220.733 151.116 220.634 151.536 220.634C151.761 220.634 151.959 220.663 152.13 220.72C152.301 220.777 152.449 220.849 152.575 220.936C152.701 221.023 152.803 221.113 152.881 221.206C152.962 221.299 153.022 221.384 153.061 221.462V218.69H153.903V225.377H153.264L153.174 224.423C153.144 224.513 153.096 224.618 153.03 224.738C152.964 224.855 152.871 224.971 152.751 225.085C152.634 225.196 152.481 225.287 152.292 225.359C152.103 225.431 151.873 225.467 151.603 225.467ZM151.752 224.828C152.22 224.828 152.554 224.686 152.755 224.401C152.959 224.113 153.061 223.643 153.061 222.992C153.058 222.629 153.013 222.32 152.926 222.065C152.839 221.81 152.701 221.617 152.512 221.485C152.326 221.35 152.077 221.282 151.765 221.282C151.384 221.282 151.074 221.419 150.834 221.692C150.594 221.965 150.474 222.398 150.474 222.992C150.474 223.574 150.582 224.026 150.798 224.347C151.014 224.668 151.332 224.828 151.752 224.828ZM156.627 225.467C156.324 225.467 156.057 225.415 155.826 225.31C155.598 225.202 155.418 225.047 155.286 224.846C155.157 224.645 155.092 224.402 155.092 224.117C155.092 223.601 155.272 223.217 155.632 222.965C155.992 222.713 156.57 222.578 157.365 222.56L158.193 222.538V222.173C158.193 221.888 158.107 221.663 157.936 221.498C157.765 221.33 157.501 221.246 157.144 221.246C156.877 221.249 156.642 221.312 156.438 221.435C156.234 221.558 156.103 221.759 156.046 222.038H155.313C155.331 221.735 155.415 221.48 155.565 221.273C155.718 221.063 155.932 220.904 156.208 220.796C156.484 220.688 156.81 220.634 157.185 220.634C157.59 220.634 157.926 220.691 158.193 220.805C158.463 220.919 158.664 221.087 158.796 221.309C158.931 221.531 158.998 221.804 158.998 222.128V225.377H158.287L158.224 224.504C158.047 224.867 157.819 225.119 157.54 225.26C157.264 225.398 156.96 225.467 156.627 225.467ZM156.874 224.869C157.033 224.869 157.189 224.84 157.342 224.783C157.498 224.726 157.639 224.65 157.765 224.554C157.894 224.455 157.998 224.345 158.076 224.225C158.154 224.102 158.193 223.976 158.193 223.847V223.051L157.504 223.064C157.147 223.07 156.85 223.106 156.613 223.172C156.376 223.238 156.198 223.342 156.078 223.483C155.958 223.624 155.898 223.808 155.898 224.036C155.898 224.297 155.989 224.501 156.172 224.648C156.355 224.795 156.589 224.869 156.874 224.869ZM161.854 225.4C161.533 225.4 161.284 225.356 161.107 225.269C160.93 225.182 160.805 225.053 160.733 224.882C160.664 224.711 160.63 224.501 160.63 224.252V221.332H159.874V220.724H160.652L160.855 219.37H161.467V220.72H162.515V221.332H161.467V224.225C161.467 224.39 161.483 224.512 161.516 224.59C161.552 224.665 161.611 224.713 161.692 224.734C161.773 224.755 161.887 224.765 162.034 224.765H162.542V225.323C162.485 225.344 162.398 225.362 162.281 225.377C162.167 225.392 162.025 225.4 161.854 225.4ZM164.97 225.467C164.667 225.467 164.4 225.415 164.169 225.31C163.941 225.202 163.761 225.047 163.629 224.846C163.5 224.645 163.435 224.402 163.435 224.117C163.435 223.601 163.615 223.217 163.975 222.965C164.335 222.713 164.913 222.578 165.708 222.56L166.536 222.538V222.173C166.536 221.888 166.45 221.663 166.279 221.498C166.108 221.33 165.844 221.246 165.487 221.246C165.22 221.249 164.985 221.312 164.781 221.435C164.577 221.558 164.446 221.759 164.389 222.038H163.656C163.674 221.735 163.758 221.48 163.908 221.273C164.061 221.063 164.275 220.904 164.551 220.796C164.827 220.688 165.153 220.634 165.528 220.634C165.933 220.634 166.269 220.691 166.536 220.805C166.806 220.919 167.007 221.087 167.139 221.309C167.274 221.531 167.341 221.804 167.341 222.128V225.377H166.63L166.567 224.504C166.39 224.867 166.162 225.119 165.883 225.26C165.607 225.398 165.303 225.467 164.97 225.467ZM165.217 224.869C165.376 224.869 165.532 224.84 165.685 224.783C165.841 224.726 165.982 224.65 166.108 224.554C166.237 224.455 166.341 224.345 166.419 224.225C166.497 224.102 166.536 223.976 166.536 223.847V223.051L165.847 223.064C165.49 223.07 165.193 223.106 164.956 223.172C164.719 223.238 164.541 223.342 164.421 223.483C164.301 223.624 164.241 223.808 164.241 224.036C164.241 224.297 164.332 224.501 164.515 224.648C164.698 224.795 164.932 224.869 165.217 224.869Z" fill="#1E293B"/>
<path d="M184.07 222.877C184.07 219.237 187.021 216.287 190.661 216.287H202.123C205.763 216.287 208.713 219.237 208.713 222.877C208.713 226.517 205.763 229.468 202.123 229.468H190.661C187.021 229.468 184.07 226.517 184.07 222.877Z" fill="#3B5B63"/>
<path d="M184.07 222.877C184.07 219.237 187.021 216.287 190.661 216.287H202.123C205.763 216.287 208.713 219.237 208.713 222.877C208.713 226.517 205.763 229.468 202.123 229.468H190.661C187.021 229.468 184.07 226.517 184.07 222.877Z" stroke="#374E53" stroke-width="0.573096"/>
<g filter="url(#filter1_dd_6063_2879)">
<path d="M196.392 222.877C196.392 219.712 198.958 217.146 202.123 217.146C205.288 217.146 207.854 219.712 207.854 222.877C207.854 226.042 205.288 228.608 202.123 228.608C198.958 228.608 196.392 226.042 196.392 222.877Z" fill="white" shape-rendering="crispEdges"/>
<path fill-rule="evenodd" clip-rule="evenodd" d="M204.414 220.996C204.503 221.074 204.512 221.21 204.434 221.299L201.425 224.738C201.386 224.783 201.33 224.809 201.271 224.811C201.211 224.813 201.154 224.79 201.111 224.748L199.822 223.459C199.738 223.375 199.738 223.239 199.822 223.155C199.906 223.071 200.042 223.071 200.126 223.155L201.253 224.282L204.11 221.016C204.189 220.927 204.324 220.918 204.414 220.996Z" fill="#374E53"/>
</g>
</g>
<g opacity="0.6">
<path d="M22.8595 251.131V244.624H26.9635L26.959 245.358H23.6965V247.482H26.635V248.211H23.692V250.38L27.049 250.389V251.131H22.8595ZM28.2003 251.131V246.478H29.0058V247.153C29.0808 247.024 29.1843 246.903 29.3163 246.789C29.4513 246.675 29.6133 246.583 29.8023 246.514C29.9943 246.445 30.2148 246.411 30.4638 246.411C30.7578 246.411 31.0278 246.469 31.2738 246.586C31.5228 246.703 31.7208 246.886 31.8678 247.135C32.0178 247.381 32.0928 247.699 32.0928 248.089V251.131H31.2603V248.17C31.2603 247.807 31.1643 247.539 30.9723 247.365C30.7833 247.188 30.5373 247.099 30.2343 247.099C30.0243 247.099 29.8278 247.134 29.6448 247.203C29.4618 247.269 29.3133 247.371 29.1993 247.509C29.0853 247.644 29.0283 247.815 29.0283 248.022V251.131H28.2003ZM34.7271 251.221C34.4241 251.221 34.1571 251.169 33.9261 251.064C33.6981 250.956 33.5181 250.801 33.3861 250.6C33.2571 250.399 33.1926 250.156 33.1926 249.871C33.1926 249.355 33.3726 248.971 33.7326 248.719C34.0926 248.467 34.6701 248.332 35.4651 248.314L36.2931 248.292V247.927C36.2931 247.642 36.2076 247.417 36.0366 247.252C35.8656 247.084 35.6016 247 35.2446 247C34.9776 247.003 34.7421 247.066 34.5381 247.189C34.3341 247.312 34.2036 247.513 34.1466 247.792H33.4131C33.4311 247.489 33.5151 247.234 33.6651 247.027C33.8181 246.817 34.0326 246.658 34.3086 246.55C34.5846 246.442 34.9101 246.388 35.2851 246.388C35.6901 246.388 36.0261 246.445 36.2931 246.559C36.5631 246.673 36.7641 246.841 36.8961 247.063C37.0311 247.285 37.0986 247.558 37.0986 247.882V251.131H36.3876L36.3246 250.258C36.1476 250.621 35.9196 250.873 35.6406 251.014C35.3646 251.152 35.0601 251.221 34.7271 251.221ZM34.9746 250.623C35.1336 250.623 35.2896 250.594 35.4426 250.537C35.5986 250.48 35.7396 250.404 35.8656 250.308C35.9946 250.209 36.0981 250.099 36.1761 249.979C36.2541 249.856 36.2931 249.73 36.2931 249.601V248.805L35.6046 248.818C35.2476 248.824 34.9506 248.86 34.7136 248.926C34.4766 248.992 34.2981 249.096 34.1781 249.237C34.0581 249.378 33.9981 249.562 33.9981 249.79C33.9981 250.051 34.0896 250.255 34.2726 250.402C34.4556 250.549 34.6896 250.623 34.9746 250.623ZM40.7412 251.221C40.4682 251.221 40.2372 251.185 40.0482 251.113C39.8622 251.041 39.7092 250.95 39.5892 250.839C39.4692 250.725 39.3762 250.609 39.3102 250.492C39.2442 250.372 39.1962 250.267 39.1662 250.177L39.0762 251.131H38.4417V244.444H39.2787V247.216C39.3177 247.138 39.3762 247.053 39.4542 246.96C39.5352 246.867 39.6387 246.777 39.7647 246.69C39.8907 246.603 40.0392 246.531 40.2102 246.474C40.3842 246.417 40.5822 246.388 40.8042 246.388C41.3862 246.388 41.8482 246.591 42.1902 246.996C42.5352 247.401 42.7077 247.998 42.7077 248.787C42.7077 249.276 42.6342 249.703 42.4872 250.069C42.3402 250.432 42.1212 250.716 41.8302 250.92C41.5392 251.121 41.1762 251.221 40.7412 251.221ZM40.5927 250.582C40.9707 250.582 41.2782 250.437 41.5152 250.146C41.7522 249.852 41.8707 249.385 41.8707 248.746C41.8707 248.203 41.7597 247.783 41.5377 247.486C41.3187 247.186 40.9977 247.036 40.5747 247.036C40.2657 247.036 40.0167 247.104 39.8277 247.239C39.6417 247.371 39.5037 247.564 39.4137 247.819C39.3267 248.074 39.2817 248.383 39.2787 248.746C39.2787 249.397 39.3792 249.867 39.5802 250.155C39.7842 250.44 40.1217 250.582 40.5927 250.582ZM45.0313 251.19C44.7793 251.19 44.5753 251.155 44.4193 251.086C44.2663 251.017 44.1478 250.924 44.0638 250.807C43.9828 250.69 43.9273 250.557 43.8973 250.407C43.8703 250.254 43.8568 250.096 43.8568 249.934V244.444H44.6758V249.853C44.6758 250.087 44.7208 250.263 44.8108 250.38C44.9038 250.497 45.0328 250.561 45.1978 250.573L45.4498 250.578V251.118C45.3808 251.139 45.3088 251.155 45.2338 251.167C45.1588 251.182 45.0913 251.19 45.0313 251.19ZM48.3732 251.221C47.9412 251.221 47.5602 251.127 47.2302 250.938C46.9002 250.749 46.6422 250.477 46.4562 250.123C46.2702 249.769 46.1772 249.345 46.1772 248.85C46.1772 248.361 46.2612 247.932 46.4292 247.563C46.5972 247.194 46.8402 246.906 47.1582 246.699C47.4792 246.492 47.8647 246.388 48.3147 246.388C48.7527 246.388 49.1232 246.483 49.4262 246.672C49.7292 246.861 49.9587 247.128 50.1147 247.473C50.2737 247.815 50.3532 248.221 50.3532 248.692V248.998H47.0187C47.0187 249.292 47.0667 249.559 47.1627 249.799C47.2617 250.036 47.4102 250.225 47.6082 250.366C47.8062 250.507 48.0567 250.578 48.3597 250.578C48.6567 250.578 48.9117 250.509 49.1247 250.371C49.3407 250.233 49.4787 250.033 49.5387 249.772H50.3217C50.2677 250.087 50.1417 250.353 49.9437 250.569C49.7487 250.785 49.5132 250.948 49.2372 251.059C48.9642 251.167 48.6762 251.221 48.3732 251.221ZM47.0232 248.436H49.5522C49.5522 248.169 49.5072 247.929 49.4172 247.716C49.3272 247.5 49.1892 247.33 49.0032 247.207C48.8202 247.081 48.5892 247.018 48.3102 247.018C48.0192 247.018 47.7777 247.089 47.5857 247.23C47.3937 247.368 47.2512 247.546 47.1582 247.765C47.0652 247.981 47.0202 248.205 47.0232 248.436ZM53.2458 251.221C52.6398 251.221 52.1598 251.014 51.8058 250.6C51.4548 250.186 51.2793 249.582 51.2793 248.787C51.2793 248.304 51.3498 247.882 51.4908 247.522C51.6318 247.162 51.8433 246.883 52.1253 246.685C52.4073 246.487 52.7583 246.388 53.1783 246.388C53.4033 246.388 53.6013 246.417 53.7723 246.474C53.9433 246.531 54.0918 246.603 54.2178 246.69C54.3438 246.777 54.4458 246.867 54.5238 246.96C54.6048 247.053 54.6648 247.138 54.7038 247.216V244.444H55.5453V251.131H54.9063L54.8163 250.177C54.7863 250.267 54.7383 250.372 54.6723 250.492C54.6063 250.609 54.5133 250.725 54.3933 250.839C54.2763 250.95 54.1233 251.041 53.9343 251.113C53.7453 251.185 53.5158 251.221 53.2458 251.221ZM53.3943 250.582C53.8623 250.582 54.1968 250.44 54.3978 250.155C54.6018 249.867 54.7038 249.397 54.7038 248.746C54.7008 248.383 54.6558 248.074 54.5688 247.819C54.4818 247.564 54.3438 247.371 54.1548 247.239C53.9688 247.104 53.7198 247.036 53.4078 247.036C53.0268 247.036 52.7163 247.173 52.4763 247.446C52.2363 247.719 52.1163 248.152 52.1163 248.746C52.1163 249.328 52.2243 249.78 52.4403 250.101C52.6563 250.422 52.9743 250.582 53.3943 250.582ZM60.9467 251.221C60.5177 251.221 60.1427 251.13 59.8217 250.947C59.5037 250.761 59.2562 250.489 59.0792 250.132C58.9022 249.775 58.8137 249.339 58.8137 248.823C58.8137 248.337 58.8962 247.911 59.0612 247.545C59.2262 247.179 59.4677 246.895 59.7857 246.694C60.1037 246.49 60.4922 246.388 60.9512 246.388C61.3802 246.388 61.7522 246.483 62.0672 246.672C62.3822 246.858 62.6267 247.132 62.8007 247.495C62.9777 247.858 63.0662 248.301 63.0662 248.823C63.0662 249.297 62.9852 249.714 62.8232 250.074C62.6612 250.434 62.4227 250.716 62.1077 250.92C61.7957 251.121 61.4087 251.221 60.9467 251.221ZM60.9512 250.564C61.2272 250.564 61.4612 250.494 61.6532 250.353C61.8452 250.212 61.9907 250.009 62.0897 249.745C62.1917 249.481 62.2427 249.168 62.2427 248.805C62.2427 248.472 62.1977 248.173 62.1077 247.909C62.0207 247.642 61.8827 247.431 61.6937 247.275C61.5047 247.119 61.2572 247.041 60.9512 247.041C60.6692 247.041 60.4307 247.111 60.2357 247.252C60.0407 247.39 59.8922 247.591 59.7902 247.855C59.6912 248.119 59.6417 248.436 59.6417 248.805C59.6417 249.132 59.6852 249.429 59.7722 249.696C59.8622 249.963 60.0032 250.174 60.1952 250.33C60.3902 250.486 60.6422 250.564 60.9512 250.564ZM64.2175 251.131V246.478H65.023V247.153C65.098 247.024 65.2015 246.903 65.3335 246.789C65.4685 246.675 65.6305 246.583 65.8195 246.514C66.0115 246.445 66.232 246.411 66.481 246.411C66.775 246.411 67.045 246.469 67.291 246.586C67.54 246.703 67.738 246.886 67.885 247.135C68.035 247.381 68.11 247.699 68.11 248.089V251.131H67.2775V248.17C67.2775 247.807 67.1815 247.539 66.9895 247.365C66.8005 247.188 66.5545 247.099 66.2515 247.099C66.0415 247.099 65.845 247.134 65.662 247.203C65.479 247.269 65.3305 247.371 65.2165 247.509C65.1025 247.644 65.0455 247.815 65.0455 248.022V251.131H64.2175ZM73.3958 251.154C73.0748 251.154 72.8258 251.11 72.6488 251.023C72.4718 250.936 72.3473 250.807 72.2753 250.636C72.2063 250.465 72.1718 250.255 72.1718 250.006V247.086H71.4158V246.478H72.1943L72.3968 245.124H73.0088V246.474H74.0573V247.086H73.0088V249.979C73.0088 250.144 73.0253 250.266 73.0583 250.344C73.0943 250.419 73.1528 250.467 73.2338 250.488C73.3148 250.509 73.4288 250.519 73.5758 250.519H74.0843V251.077C74.0273 251.098 73.9403 251.116 73.8233 251.131C73.7093 251.146 73.5668 251.154 73.3958 251.154ZM75.2334 251.131V244.444H76.0434V247.162C76.1214 247.033 76.2264 246.913 76.3584 246.802C76.4904 246.688 76.6509 246.597 76.8399 246.528C77.0289 246.456 77.2479 246.42 77.4969 246.42C77.7999 246.42 78.0744 246.477 78.3204 246.591C78.5664 246.702 78.7614 246.861 78.9054 247.068C79.0494 247.275 79.1214 247.521 79.1214 247.806V251.131H78.2889V247.972C78.2889 247.693 78.1929 247.479 78.0009 247.329C77.8119 247.176 77.5644 247.099 77.2584 247.099C77.0514 247.099 76.8564 247.134 76.6734 247.203C76.4904 247.269 76.3419 247.371 76.2279 247.509C76.1169 247.644 76.0614 247.816 76.0614 248.026V251.131H75.2334ZM80.4864 251.131V246.478H81.2919V251.131H80.4864ZM80.4639 245.493V244.629H81.3144V245.493H80.4639ZM84.4066 251.221C84.0826 251.221 83.7811 251.172 83.5021 251.073C83.2261 250.971 82.9966 250.813 82.8136 250.6C82.6306 250.384 82.5166 250.11 82.4716 249.777H83.2276C83.2666 249.96 83.3416 250.113 83.4526 250.236C83.5636 250.356 83.7001 250.447 83.8621 250.51C84.0271 250.57 84.2071 250.6 84.4021 250.6C84.7171 250.6 84.9706 250.542 85.1626 250.425C85.3546 250.308 85.4506 250.128 85.4506 249.885C85.4506 249.714 85.3996 249.577 85.2976 249.475C85.1986 249.37 85.0426 249.294 84.8296 249.246L83.8666 249.007C83.4916 248.917 83.1916 248.776 82.9666 248.584C82.7446 248.392 82.6321 248.124 82.6291 247.779C82.6291 247.506 82.6951 247.266 82.8271 247.059C82.9591 246.852 83.1556 246.688 83.4166 246.568C83.6806 246.448 84.0091 246.388 84.4021 246.388C84.9091 246.388 85.3171 246.502 85.6261 246.73C85.9351 246.955 86.0971 247.287 86.1121 247.725H85.3741C85.3441 247.503 85.2451 247.327 85.0771 247.198C84.9091 247.066 84.6811 247 84.3931 247C84.0991 247 83.8576 247.06 83.6686 247.18C83.4826 247.297 83.3896 247.48 83.3896 247.729C83.3896 247.894 83.4556 248.025 83.5876 248.121C83.7226 248.214 83.9176 248.292 84.1726 248.355L85.1086 248.589C85.3216 248.646 85.4986 248.721 85.6396 248.814C85.7806 248.907 85.8916 249.01 85.9726 249.124C86.0536 249.238 86.1106 249.358 86.1436 249.484C86.1796 249.607 86.1976 249.726 86.1976 249.84C86.1976 250.125 86.1271 250.371 85.9861 250.578C85.8451 250.782 85.6411 250.941 85.3741 251.055C85.1071 251.166 84.7846 251.221 84.4066 251.221ZM90.4614 251.131L89.0214 246.478H89.7954L90.8574 250.056H90.9294L91.9779 246.478H92.6079L93.6969 250.047H93.7734L94.7904 246.478H95.5734L94.1604 251.131H93.3414L92.2839 247.698L91.2714 251.131H90.4614ZM98.422 251.221C97.99 251.221 97.609 251.127 97.279 250.938C96.949 250.749 96.691 250.477 96.505 250.123C96.319 249.769 96.226 249.345 96.226 248.85C96.226 248.361 96.31 247.932 96.478 247.563C96.646 247.194 96.889 246.906 97.207 246.699C97.528 246.492 97.9135 246.388 98.3635 246.388C98.8015 246.388 99.172 246.483 99.475 246.672C99.778 246.861 100.007 247.128 100.163 247.473C100.322 247.815 100.402 248.221 100.402 248.692V248.998H97.0675C97.0675 249.292 97.1155 249.559 97.2115 249.799C97.3105 250.036 97.459 250.225 97.657 250.366C97.855 250.507 98.1055 250.578 98.4085 250.578C98.7055 250.578 98.9605 250.509 99.1735 250.371C99.3895 250.233 99.5275 250.033 99.5875 249.772H100.37C100.316 250.087 100.19 250.353 99.9925 250.569C99.7975 250.785 99.562 250.948 99.286 251.059C99.013 251.167 98.725 251.221 98.422 251.221ZM97.072 248.436H99.601C99.601 248.169 99.556 247.929 99.466 247.716C99.376 247.5 99.238 247.33 99.052 247.207C98.869 247.081 98.638 247.018 98.359 247.018C98.068 247.018 97.8265 247.089 97.6345 247.23C97.4425 247.368 97.3 247.546 97.207 247.765C97.114 247.981 97.069 248.205 97.072 248.436ZM103.898 251.221C103.625 251.221 103.394 251.185 103.205 251.113C103.019 251.041 102.866 250.95 102.746 250.839C102.626 250.725 102.533 250.609 102.467 250.492C102.401 250.372 102.353 250.267 102.323 250.177L102.233 251.131H101.598V244.444H102.435V247.216C102.474 247.138 102.533 247.053 102.611 246.96C102.692 246.867 102.795 246.777 102.921 246.69C103.047 246.603 103.196 246.531 103.367 246.474C103.541 246.417 103.739 246.388 103.961 246.388C104.543 246.388 105.005 246.591 105.347 246.996C105.692 247.401 105.864 247.998 105.864 248.787C105.864 249.276 105.791 249.703 105.644 250.069C105.497 250.432 105.278 250.716 104.987 250.92C104.696 251.121 104.333 251.221 103.898 251.221ZM103.749 250.582C104.127 250.582 104.435 250.437 104.672 250.146C104.909 249.852 105.027 249.385 105.027 248.746C105.027 248.203 104.916 247.783 104.694 247.486C104.475 247.186 104.154 247.036 103.731 247.036C103.422 247.036 103.173 247.104 102.984 247.239C102.798 247.371 102.66 247.564 102.57 247.819C102.483 248.074 102.438 248.383 102.435 248.746C102.435 249.397 102.536 249.867 102.737 250.155C102.941 250.44 103.278 250.582 103.749 250.582ZM108.661 251.221C108.337 251.221 108.035 251.172 107.756 251.073C107.48 250.971 107.251 250.813 107.068 250.6C106.885 250.384 106.771 250.11 106.726 249.777H107.482C107.521 249.96 107.596 250.113 107.707 250.236C107.818 250.356 107.954 250.447 108.116 250.51C108.281 250.57 108.461 250.6 108.656 250.6C108.971 250.6 109.225 250.542 109.417 250.425C109.609 250.308 109.705 250.128 109.705 249.885C109.705 249.714 109.654 249.577 109.552 249.475C109.453 249.37 109.297 249.294 109.084 249.246L108.121 249.007C107.746 248.917 107.446 248.776 107.221 248.584C106.999 248.392 106.886 248.124 106.883 247.779C106.883 247.506 106.949 247.266 107.081 247.059C107.213 246.852 107.41 246.688 107.671 246.568C107.935 246.448 108.263 246.388 108.656 246.388C109.163 246.388 109.571 246.502 109.88 246.73C110.189 246.955 110.351 247.287 110.366 247.725H109.628C109.598 247.503 109.499 247.327 109.331 247.198C109.163 247.066 108.935 247 108.647 247C108.353 247 108.112 247.06 107.923 247.18C107.737 247.297 107.644 247.48 107.644 247.729C107.644 247.894 107.71 248.025 107.842 248.121C107.977 248.214 108.172 248.292 108.427 248.355L109.363 248.589C109.576 248.646 109.753 248.721 109.894 248.814C110.035 248.907 110.146 249.01 110.227 249.124C110.308 249.238 110.365 249.358 110.398 249.484C110.434 249.607 110.452 249.726 110.452 249.84C110.452 250.125 110.381 250.371 110.24 250.578C110.099 250.782 109.895 250.941 109.628 251.055C109.361 251.166 109.039 251.221 108.661 251.221ZM111.607 251.131V246.478H112.413V251.131H111.607ZM111.585 245.493V244.629H112.435V245.493H111.585ZM115.559 251.154C115.238 251.154 114.989 251.11 114.812 251.023C114.635 250.936 114.51 250.807 114.438 250.636C114.369 250.465 114.335 250.255 114.335 250.006V247.086H113.579V246.478H114.357L114.56 245.124H115.172V246.474H116.22V247.086H115.172V249.979C115.172 250.144 115.188 250.266 115.221 250.344C115.257 250.419 115.316 250.467 115.397 250.488C115.478 250.509 115.592 250.519 115.739 250.519H116.247V251.077C116.19 251.098 116.103 251.116 115.986 251.131C115.872 251.146 115.73 251.154 115.559 251.154ZM119.24 251.221C118.808 251.221 118.427 251.127 118.097 250.938C117.767 250.749 117.509 250.477 117.323 250.123C117.137 249.769 117.044 249.345 117.044 248.85C117.044 248.361 117.128 247.932 117.296 247.563C117.464 247.194 117.707 246.906 118.025 246.699C118.346 246.492 118.731 246.388 119.181 246.388C119.619 246.388 119.99 246.483 120.293 246.672C120.596 246.861 120.825 247.128 120.981 247.473C121.14 247.815 121.22 248.221 121.22 248.692V248.998H117.885C117.885 249.292 117.933 249.559 118.029 249.799C118.128 250.036 118.277 250.225 118.475 250.366C118.673 250.507 118.923 250.578 119.226 250.578C119.523 250.578 119.778 250.509 119.991 250.371C120.207 250.233 120.345 250.033 120.405 249.772H121.188C121.134 250.087 121.008 250.353 120.81 250.569C120.615 250.785 120.38 250.948 120.104 251.059C119.831 251.167 119.543 251.221 119.24 251.221ZM117.89 248.436H120.419C120.419 248.169 120.374 247.929 120.284 247.716C120.194 247.5 120.056 247.33 119.87 247.207C119.687 247.081 119.456 247.018 119.177 247.018C118.886 247.018 118.644 247.089 118.452 247.23C118.26 247.368 118.118 247.546 118.025 247.765C117.932 247.981 117.887 248.205 117.89 248.436Z" fill="#1E293B"/>
<path d="M184.07 248.631C184.07 244.992 187.021 242.041 190.661 242.041H202.123C205.763 242.041 208.713 244.992 208.713 248.631C208.713 252.271 205.763 255.222 202.123 255.222H190.661C187.021 255.222 184.07 252.271 184.07 248.631Z" fill="#3B5B63"/>
<path d="M184.07 248.631C184.07 244.992 187.021 242.041 190.661 242.041H202.123C205.763 242.041 208.713 244.992 208.713 248.631C208.713 252.271 205.763 255.222 202.123 255.222H190.661C187.021 255.222 184.07 252.271 184.07 248.631Z" stroke="#374E53" stroke-width="0.573096"/>
<g filter="url(#filter2_dd_6063_2879)">
<path d="M196.392 248.631C196.392 245.466 198.958 242.9 202.123 242.9C205.288 242.9 207.854 245.466 207.854 248.631C207.854 251.797 205.288 254.362 202.123 254.362C198.958 254.362 196.392 251.797 196.392 248.631Z" fill="white" shape-rendering="crispEdges"/>
<path fill-rule="evenodd" clip-rule="evenodd" d="M204.414 246.75C204.503 246.829 204.512 246.964 204.434 247.054L201.425 250.492C201.386 250.537 201.33 250.563 201.271 250.565C201.211 250.567 201.154 250.545 201.111 250.503L199.822 249.213C199.738 249.129 199.738 248.993 199.822 248.909C199.906 248.825 200.042 248.825 200.126 248.909L201.253 250.036L204.11 246.771C204.189 246.681 204.324 246.672 204.414 246.75Z" fill="#374E53"/>
</g>
</g>
</g>
<path d="M23.1695 209.618C17.8943 209.618 13.6179 213.894 13.6179 219.17V252.339C13.6179 257.614 17.8943 261.891 23.1695 261.891H207.83C213.106 261.891 217.382 257.614 217.382 252.339V219.17C217.382 213.894 213.106 209.618 207.83 209.618H23.1695Z" stroke="url(#paint1_linear_6063_2879)" stroke-width="0.764128"/>
<rect x="89" y="294" width="32" height="0.999999" transform="rotate(-90 89 294)" fill="url(#paint2_linear_6063_2879)"/>
<rect x="104" y="300" width="38" height="0.999999" transform="rotate(-90 104 300)" fill="url(#paint3_linear_6063_2879)"/>
<rect x="119" y="307" width="45" height="0.999998" transform="rotate(-90 119 307)" fill="url(#paint4_linear_6063_2879)"/>
<rect x="134" y="287" width="25" height="0.999999" transform="rotate(-90 134 287)" fill="url(#paint5_linear_6063_2879)"/>
</g>
<defs>
<filter id="filter0_f_6063_2879" x="-3" y="193" width="237" height="86" filterUnits="userSpaceOnUse" color-interpolation-filters="sRGB">
<feFlood flood-opacity="0" result="BackgroundImageFix"/>
<feBlend mode="normal" in="SourceGraphic" in2="BackgroundImageFix" result="shape"/>
<feGaussianBlur stdDeviation="7.5" result="effect1_foregroundBlur_6063_2879"/>
</filter>
<filter id="filter1_dd_6063_2879" x="194.392" y="216.146" width="15.4619" height="15.4619" filterUnits="userSpaceOnUse" color-interpolation-filters="sRGB">
<feFlood flood-opacity="0" result="BackgroundImageFix"/>
<feColorMatrix in="SourceAlpha" type="matrix" values="0 0 0 0 0 0 0 0 0 0 0 0 0 0 0 0 0 0 127 0" result="hardAlpha"/>
<feOffset dy="1"/>
<feGaussianBlur stdDeviation="0.5"/>
<feComposite in2="hardAlpha" operator="out"/>
<feColorMatrix type="matrix" values="0 0 0 0 0 0 0 0 0 0 0 0 0 0 0 0 0 0 0.06 0"/>
<feBlend mode="normal" in2="BackgroundImageFix" result="effect1_dropShadow_6063_2879"/>
<feColorMatrix in="SourceAlpha" type="matrix" values="0 0 0 0 0 0 0 0 0 0 0 0 0 0 0 0 0 0 127 0" result="hardAlpha"/>
<feOffset dy="1"/>
<feGaussianBlur stdDeviation="1"/>
<feComposite in2="hardAlpha" operator="out"/>
<feColorMatrix type="matrix" values="0 0 0 0 0 0 0 0 0 0 0 0 0 0 0 0 0 0 0.1 0"/>
<feBlend mode="normal" in2="effect1_dropShadow_6063_2879" result="effect2_dropShadow_6063_2879"/>
<feBlend mode="normal" in="SourceGraphic" in2="effect2_dropShadow_6063_2879" result="shape"/>
</filter>
<filter id="filter2_dd_6063_2879" x="194.392" y="241.9" width="15.4619" height="15.4619" filterUnits="userSpaceOnUse" color-interpolation-filters="sRGB">
<feFlood flood-opacity="0" result="BackgroundImageFix"/>
<feColorMatrix in="SourceAlpha" type="matrix" values="0 0 0 0 0 0 0 0 0 0 0 0 0 0 0 0 0 0 127 0" result="hardAlpha"/>
<feOffset dy="1"/>
<feGaussianBlur stdDeviation="0.5"/>
<feComposite in2="hardAlpha" operator="out"/>
<feColorMatrix type="matrix" values="0 0 0 0 0 0 0 0 0 0 0 0 0 0 0 0 0 0 0.06 0"/>
<feBlend mode="normal" in2="BackgroundImageFix" result="effect1_dropShadow_6063_2879"/>
<feColorMatrix in="SourceAlpha" type="matrix" values="0 0 0 0 0 0 0 0 0 0 0 0 0 0 0 0 0 0 127 0" result="hardAlpha"/>
<feOffset dy="1"/>
<feGaussianBlur stdDeviation="1"/>
<feComposite in2="hardAlpha" operator="out"/>
<feColorMatrix type="matrix" values="0 0 0 0 0 0 0 0 0 0 0 0 0 0 0 0 0 0 0.1 0"/>
<feBlend mode="normal" in2="effect1_dropShadow_6063_2879" result="effect2_dropShadow_6063_2879"/>
<feBlend mode="normal" in="SourceGraphic" in2="effect2_dropShadow_6063_2879" result="shape"/>
</filter>
<linearGradient id="paint0_linear_6063_2879" x1="14.2046" y1="210" x2="210.3" y2="280.155" gradientUnits="userSpaceOnUse">
<stop stop-color="#F4B62B"/>
<stop offset="0.5" stop-color="#BC52AD"/>
<stop offset="1" stop-color="#4F868E"/>
</linearGradient>
<linearGradient id="paint1_linear_6063_2879" x1="14.2046" y1="210" x2="209.875" y2="280.67" gradientUnits="userSpaceOnUse">
<stop stop-color="#F4B62B"/>
<stop offset="0.5" stop-color="#BC52AD"/>
<stop offset="1" stop-color="#4F868E"/>
</linearGradient>
<linearGradient id="paint2_linear_6063_2879" x1="89" y1="294.5" x2="121" y2="294.5" gradientUnits="userSpaceOnUse">
<stop stop-color="white" stop-opacity="0"/>
<stop offset="1" stop-color="#020617" stop-opacity="0.15"/>
</linearGradient>
<linearGradient id="paint3_linear_6063_2879" x1="104" y1="300.5" x2="142" y2="300.5" gradientUnits="userSpaceOnUse">
<stop stop-color="white" stop-opacity="0"/>
<stop offset="1" stop-color="#020617" stop-opacity="0.25"/>
</linearGradient>
<linearGradient id="paint4_linear_6063_2879" x1="119" y1="307.5" x2="164" y2="307.5" gradientUnits="userSpaceOnUse">
<stop stop-color="white" stop-opacity="0"/>
<stop offset="1" stop-color="#020617" stop-opacity="0.35"/>
</linearGradient>
<linearGradient id="paint5_linear_6063_2879" x1="134" y1="287.5" x2="159" y2="287.5" gradientUnits="userSpaceOnUse">
<stop stop-color="white" stop-opacity="0"/>
<stop offset="1" stop-color="#020617" stop-opacity="0.15"/>
</linearGradient>
<clipPath id="clip0_6063_2879">
<rect width="233" height="300" fill="white"/>
</clipPath>
<clipPath id="clip1_6063_2879">
<path d="M14 219.17C14 214.105 18.1053 210 23.1695 210H207.83C212.895 210 217 214.105 217 219.17V252.339C217 257.403 212.895 261.509 207.83 261.509H23.1695C18.1053 261.509 14 257.403 14 252.339V219.17Z" fill="white"/>
</clipPath>
</defs>
</svg>
