<svg width="233" height="215" viewBox="0 85 233 215" fill="none" xmlns="http://www.w3.org/2000/svg">
<g clip-path="url(#clip0_6063_2798)">
<g clip-path="url(#clip1_6063_2798)">
<g filter="url(#filter0_d_6063_2798)">
<g clip-path="url(#clip2_6063_2798)">
<path d="M35 234C35 229.582 38.5817 226 43 226H260C264.418 226 268 229.582 268 234V254C268 258.418 264.418 262 260 262H43C38.5817 262 35 258.418 35 254V234Z" fill="#F3F8F8"/>
<path d="M53.1406 245.287H54.2656C54.207 245.826 54.0527 246.308 53.8027 246.734C53.5527 247.16 53.1992 247.498 52.7422 247.748C52.2852 247.994 51.7148 248.117 51.0312 248.117C50.5312 248.117 50.0762 248.023 49.666 247.836C49.2598 247.648 48.9102 247.383 48.6172 247.039C48.3242 246.691 48.0977 246.275 47.9375 245.791C47.7812 245.303 47.7031 244.76 47.7031 244.162V243.312C47.7031 242.715 47.7812 242.174 47.9375 241.689C48.0977 241.201 48.3262 240.783 48.623 240.435C48.9238 240.088 49.2852 239.82 49.707 239.633C50.1289 239.445 50.6035 239.351 51.1309 239.351C51.7754 239.351 52.3203 239.473 52.7656 239.715C53.2109 239.957 53.5566 240.293 53.8027 240.723C54.0527 241.148 54.207 241.642 54.2656 242.205H53.1406C53.0859 241.807 52.9844 241.465 52.8359 241.18C52.6875 240.891 52.4766 240.668 52.2031 240.512C51.9297 240.355 51.5723 240.277 51.1309 240.277C50.752 240.277 50.418 240.349 50.1289 240.494C49.8438 240.639 49.6035 240.844 49.4082 241.109C49.2168 241.375 49.0723 241.693 48.9746 242.064C48.877 242.435 48.8281 242.848 48.8281 243.301V244.162C48.8281 244.58 48.8711 244.973 48.957 245.34C49.0469 245.707 49.1816 246.029 49.3613 246.307C49.541 246.584 49.7695 246.803 50.0469 246.963C50.3242 247.119 50.6523 247.197 51.0312 247.197C51.5117 247.197 51.8945 247.121 52.1797 246.969C52.4648 246.816 52.6797 246.598 52.8242 246.312C52.9727 246.027 53.0781 245.685 53.1406 245.287ZM59.3809 246.916V243.652C59.3809 243.402 59.3301 243.185 59.2285 243.002C59.1309 242.814 58.9824 242.67 58.7832 242.568C58.584 242.467 58.3379 242.416 58.0449 242.416C57.7715 242.416 57.5312 242.463 57.3242 242.557C57.1211 242.65 56.9609 242.773 56.8438 242.926C56.7305 243.078 56.6738 243.242 56.6738 243.418H55.5898C55.5898 243.191 55.6484 242.967 55.7656 242.744C55.8828 242.521 56.0508 242.32 56.2695 242.141C56.4922 241.957 56.7578 241.812 57.0664 241.707C57.3789 241.598 57.7266 241.543 58.1094 241.543C58.5703 241.543 58.9766 241.621 59.3281 241.777C59.6836 241.933 59.9609 242.17 60.1602 242.486C60.3633 242.799 60.4648 243.191 60.4648 243.664V246.617C60.4648 246.828 60.4824 247.053 60.5176 247.291C60.5566 247.529 60.6133 247.734 60.6875 247.906V248H59.5566C59.502 247.875 59.459 247.709 59.4277 247.502C59.3965 247.291 59.3809 247.096 59.3809 246.916ZM59.5684 244.156L59.5801 244.918H58.4844C58.1758 244.918 57.9004 244.943 57.6582 244.994C57.416 245.041 57.2129 245.113 57.0488 245.211C56.8848 245.308 56.7598 245.432 56.6738 245.58C56.5879 245.724 56.5449 245.894 56.5449 246.09C56.5449 246.289 56.5898 246.471 56.6797 246.635C56.7695 246.799 56.9043 246.93 57.084 247.027C57.2676 247.121 57.4922 247.168 57.7578 247.168C58.0898 247.168 58.3828 247.098 58.6367 246.957C58.8906 246.816 59.0918 246.644 59.2402 246.441C59.3926 246.238 59.4746 246.041 59.4863 245.849L59.9492 246.371C59.9219 246.535 59.8477 246.717 59.7266 246.916C59.6055 247.115 59.4434 247.307 59.2402 247.49C59.041 247.67 58.8027 247.82 58.5254 247.941C58.252 248.058 57.9434 248.117 57.5996 248.117C57.1699 248.117 56.793 248.033 56.4688 247.865C56.1484 247.697 55.8984 247.473 55.7188 247.191C55.543 246.906 55.4551 246.588 55.4551 246.236C55.4551 245.896 55.5215 245.598 55.6543 245.34C55.7871 245.078 55.9785 244.861 56.2285 244.689C56.4785 244.514 56.7793 244.381 57.1309 244.291C57.4824 244.201 57.875 244.156 58.3086 244.156H59.5684ZM63.2539 242.656V248H62.1699V241.66H63.2246L63.2539 242.656ZM65.2344 241.625L65.2285 242.633C65.1387 242.613 65.0527 242.601 64.9707 242.598C64.8926 242.59 64.8027 242.586 64.7012 242.586C64.4512 242.586 64.2305 242.625 64.0391 242.703C63.8477 242.781 63.6855 242.891 63.5527 243.031C63.4199 243.172 63.3145 243.34 63.2363 243.535C63.1621 243.726 63.1133 243.937 63.0898 244.168L62.7852 244.344C62.7852 243.961 62.8223 243.601 62.8965 243.266C62.9746 242.93 63.0938 242.633 63.2539 242.375C63.4141 242.113 63.6172 241.91 63.8633 241.766C64.1133 241.617 64.4102 241.543 64.7539 241.543C64.832 241.543 64.9219 241.553 65.0234 241.572C65.125 241.588 65.1953 241.605 65.2344 241.625ZM70.1152 246.769V239H71.2051V248H70.209L70.1152 246.769ZM65.8496 244.9V244.777C65.8496 244.293 65.9082 243.853 66.0254 243.459C66.1465 243.06 66.3164 242.719 66.5352 242.433C66.7578 242.148 67.0215 241.93 67.3262 241.777C67.6348 241.621 67.9785 241.543 68.3574 241.543C68.7559 241.543 69.1035 241.613 69.4004 241.754C69.7012 241.891 69.9551 242.092 70.1621 242.357C70.373 242.619 70.5391 242.935 70.6602 243.307C70.7812 243.678 70.8652 244.098 70.9121 244.566V245.105C70.8691 245.57 70.7852 245.988 70.6602 246.359C70.5391 246.73 70.373 247.047 70.1621 247.308C69.9551 247.57 69.7012 247.771 69.4004 247.912C69.0996 248.049 68.748 248.117 68.3457 248.117C67.9746 248.117 67.6348 248.037 67.3262 247.877C67.0215 247.717 66.7578 247.492 66.5352 247.203C66.3164 246.914 66.1465 246.574 66.0254 246.183C65.9082 245.789 65.8496 245.361 65.8496 244.9ZM66.9395 244.777V244.9C66.9395 245.217 66.9707 245.514 67.0332 245.791C67.0996 246.068 67.2012 246.312 67.3379 246.523C67.4746 246.734 67.6484 246.9 67.8594 247.021C68.0703 247.139 68.3223 247.197 68.6152 247.197C68.9746 247.197 69.2695 247.121 69.5 246.969C69.7344 246.816 69.9219 246.615 70.0625 246.365C70.2031 246.115 70.3125 245.844 70.3906 245.551V244.139C70.3438 243.924 70.2754 243.717 70.1855 243.517C70.0996 243.314 69.9863 243.135 69.8457 242.978C69.709 242.818 69.5391 242.691 69.3359 242.598C69.1367 242.504 68.9004 242.457 68.627 242.457C68.3301 242.457 68.0742 242.519 67.8594 242.644C67.6484 242.766 67.4746 242.933 67.3379 243.148C67.2012 243.359 67.0996 243.605 67.0332 243.887C66.9707 244.164 66.9395 244.461 66.9395 244.777ZM76.9531 243.014V248H75.8691V241.66H76.8945L76.9531 243.014ZM76.6953 244.59L76.2441 244.572C76.248 244.139 76.3125 243.738 76.4375 243.371C76.5625 243 76.7383 242.678 76.9648 242.404C77.1914 242.131 77.4609 241.92 77.7734 241.771C78.0898 241.619 78.4395 241.543 78.8223 241.543C79.1348 241.543 79.416 241.586 79.666 241.672C79.916 241.754 80.1289 241.887 80.3047 242.07C80.4844 242.254 80.6211 242.492 80.7148 242.785C80.8086 243.074 80.8555 243.428 80.8555 243.846V248H79.7656V243.834C79.7656 243.502 79.7168 243.236 79.6191 243.037C79.5215 242.834 79.3789 242.687 79.1914 242.598C79.0039 242.504 78.7734 242.457 78.5 242.457C78.2305 242.457 77.9844 242.514 77.7617 242.627C77.543 242.74 77.3535 242.896 77.1934 243.096C77.0371 243.295 76.9141 243.523 76.8242 243.781C76.7383 244.035 76.6953 244.305 76.6953 244.59ZM86.3809 246.535V241.66H87.4707V248H86.4336L86.3809 246.535ZM86.5859 245.199L87.0371 245.187C87.0371 245.609 86.9922 246 86.9023 246.359C86.8164 246.715 86.6758 247.023 86.4805 247.285C86.2852 247.547 86.0293 247.752 85.7129 247.9C85.3965 248.045 85.0117 248.117 84.5586 248.117C84.25 248.117 83.9668 248.072 83.709 247.982C83.4551 247.892 83.2363 247.754 83.0527 247.566C82.8691 247.379 82.7266 247.135 82.625 246.834C82.5273 246.533 82.4785 246.172 82.4785 245.75V241.66H83.5625V245.762C83.5625 246.047 83.5938 246.283 83.6562 246.471C83.7227 246.654 83.8105 246.801 83.9199 246.91C84.0332 247.016 84.1582 247.09 84.2949 247.133C84.4355 247.176 84.5801 247.197 84.7285 247.197C85.1895 247.197 85.5547 247.109 85.8242 246.933C86.0938 246.754 86.2871 246.514 86.4043 246.213C86.5254 245.908 86.5859 245.57 86.5859 245.199ZM90.2012 242.92V248H89.1113V241.66H90.1426L90.2012 242.92ZM89.9785 244.59L89.4746 244.572C89.4785 244.139 89.5352 243.738 89.6445 243.371C89.7539 243 89.916 242.678 90.1309 242.404C90.3457 242.131 90.6133 241.92 90.9336 241.771C91.2539 241.619 91.625 241.543 92.0469 241.543C92.3438 241.543 92.6172 241.586 92.8672 241.672C93.1172 241.754 93.334 241.885 93.5176 242.064C93.7012 242.244 93.8438 242.474 93.9453 242.756C94.0469 243.037 94.0977 243.377 94.0977 243.775V248H93.0137V243.828C93.0137 243.496 92.957 243.23 92.8438 243.031C92.7344 242.832 92.5781 242.687 92.375 242.598C92.1719 242.504 91.9336 242.457 91.6602 242.457C91.3398 242.457 91.0723 242.514 90.8574 242.627C90.6426 242.74 90.4707 242.896 90.3418 243.096C90.2129 243.295 90.1191 243.523 90.0605 243.781C90.0059 244.035 89.9785 244.305 89.9785 244.59ZM94.0859 243.992L93.3594 244.215C93.3633 243.867 93.4199 243.533 93.5293 243.213C93.6426 242.892 93.8047 242.607 94.0156 242.357C94.2305 242.107 94.4941 241.91 94.8066 241.766C95.1191 241.617 95.4766 241.543 95.8789 241.543C96.2188 241.543 96.5195 241.588 96.7812 241.678C97.0469 241.767 97.2695 241.906 97.4492 242.094C97.6328 242.277 97.7715 242.514 97.8652 242.803C97.959 243.092 98.0059 243.435 98.0059 243.834V248H96.916V243.822C96.916 243.467 96.8594 243.191 96.7461 242.996C96.6367 242.797 96.4805 242.658 96.2773 242.58C96.0781 242.498 95.8398 242.457 95.5625 242.457C95.3242 242.457 95.1133 242.498 94.9297 242.58C94.7461 242.662 94.5918 242.775 94.4668 242.92C94.3418 243.06 94.2461 243.223 94.1797 243.406C94.1172 243.59 94.0859 243.785 94.0859 243.992ZM99.6406 239H100.73V246.769L100.637 248H99.6406V239ZM105.014 244.777V244.9C105.014 245.361 104.959 245.789 104.85 246.183C104.74 246.574 104.58 246.914 104.369 247.203C104.158 247.492 103.9 247.717 103.596 247.877C103.291 248.037 102.941 248.117 102.547 248.117C102.145 248.117 101.791 248.049 101.486 247.912C101.186 247.771 100.932 247.57 100.725 247.308C100.518 247.047 100.352 246.73 100.227 246.359C100.105 245.988 100.021 245.57 99.9746 245.105V244.566C100.021 244.098 100.105 243.678 100.227 243.307C100.352 242.935 100.518 242.619 100.725 242.357C100.932 242.092 101.186 241.891 101.486 241.754C101.787 241.613 102.137 241.543 102.535 241.543C102.934 241.543 103.287 241.621 103.596 241.777C103.904 241.93 104.162 242.148 104.369 242.433C104.58 242.719 104.74 243.06 104.85 243.459C104.959 243.853 105.014 244.293 105.014 244.777ZM103.924 244.9V244.777C103.924 244.461 103.895 244.164 103.836 243.887C103.777 243.605 103.684 243.359 103.555 243.148C103.426 242.933 103.256 242.766 103.045 242.644C102.834 242.519 102.574 242.457 102.266 242.457C101.992 242.457 101.754 242.504 101.551 242.598C101.352 242.691 101.182 242.818 101.041 242.978C100.9 243.135 100.785 243.314 100.695 243.517C100.609 243.717 100.545 243.924 100.502 244.139V245.551C100.564 245.824 100.666 246.088 100.807 246.342C100.951 246.592 101.143 246.797 101.381 246.957C101.623 247.117 101.922 247.197 102.277 247.197C102.57 247.197 102.82 247.139 103.027 247.021C103.238 246.9 103.408 246.734 103.537 246.523C103.67 246.312 103.768 246.068 103.83 245.791C103.893 245.514 103.924 245.217 103.924 244.9ZM109.016 248.117C108.574 248.117 108.174 248.043 107.814 247.894C107.459 247.742 107.152 247.529 106.895 247.256C106.641 246.982 106.445 246.658 106.309 246.283C106.172 245.908 106.104 245.498 106.104 245.053V244.807C106.104 244.291 106.18 243.832 106.332 243.43C106.484 243.023 106.691 242.68 106.953 242.398C107.215 242.117 107.512 241.904 107.844 241.76C108.176 241.615 108.52 241.543 108.875 241.543C109.328 241.543 109.719 241.621 110.047 241.777C110.379 241.933 110.65 242.152 110.861 242.433C111.072 242.711 111.229 243.039 111.33 243.418C111.432 243.793 111.482 244.203 111.482 244.648V245.135H106.748V244.25H110.398V244.168C110.383 243.887 110.324 243.613 110.223 243.348C110.125 243.082 109.969 242.863 109.754 242.691C109.539 242.519 109.246 242.433 108.875 242.433C108.629 242.433 108.402 242.486 108.195 242.592C107.988 242.693 107.811 242.846 107.662 243.049C107.514 243.252 107.398 243.5 107.316 243.793C107.234 244.086 107.193 244.424 107.193 244.807V245.053C107.193 245.353 107.234 245.637 107.316 245.902C107.402 246.164 107.525 246.394 107.686 246.594C107.85 246.793 108.047 246.949 108.277 247.062C108.512 247.176 108.777 247.232 109.074 247.232C109.457 247.232 109.781 247.154 110.047 246.998C110.312 246.842 110.545 246.633 110.744 246.371L111.4 246.892C111.264 247.099 111.09 247.297 110.879 247.484C110.668 247.672 110.408 247.824 110.1 247.941C109.795 248.058 109.434 248.117 109.016 248.117ZM113.832 242.656V248H112.748V241.66H113.803L113.832 242.656ZM115.812 241.625L115.807 242.633C115.717 242.613 115.631 242.601 115.549 242.598C115.471 242.59 115.381 242.586 115.279 242.586C115.029 242.586 114.809 242.625 114.617 242.703C114.426 242.781 114.264 242.891 114.131 243.031C113.998 243.172 113.893 243.34 113.814 243.535C113.74 243.726 113.691 243.937 113.668 244.168L113.363 244.344C113.363 243.961 113.4 243.601 113.475 243.266C113.553 242.93 113.672 242.633 113.832 242.375C113.992 242.113 114.195 241.91 114.441 241.766C114.691 241.617 114.988 241.543 115.332 241.543C115.41 241.543 115.5 241.553 115.602 241.572C115.703 241.588 115.773 241.605 115.812 241.625Z" fill="#020617" fill-opacity="0.5"/>
<path d="M180.348 239.469H181.443L184.238 246.424L187.027 239.469H188.129L184.66 248H183.805L180.348 239.469ZM179.99 239.469H180.957L181.115 244.672V248H179.99V239.469ZM187.514 239.469H188.48V248H187.355V244.672L187.514 239.469ZM190.824 239.469H191.92L194.715 246.424L197.504 239.469H198.605L195.137 248H194.281L190.824 239.469ZM190.467 239.469H191.434L191.592 244.672V248H190.467V239.469ZM197.99 239.469H198.957V248H197.832V244.672L197.99 239.469ZM204.553 239.469L200.996 248.732H200.064L203.627 239.469H204.553ZM208.209 248H206.428L206.439 247.08H208.209C208.818 247.08 209.326 246.953 209.732 246.699C210.139 246.441 210.443 246.082 210.646 245.621C210.854 245.156 210.957 244.613 210.957 243.992V243.471C210.957 242.982 210.898 242.549 210.781 242.17C210.664 241.787 210.492 241.465 210.266 241.203C210.039 240.937 209.762 240.736 209.434 240.599C209.109 240.463 208.736 240.394 208.314 240.394H206.393V239.469H208.314C208.873 239.469 209.383 239.562 209.844 239.75C210.305 239.933 210.701 240.201 211.033 240.553C211.369 240.9 211.627 241.322 211.807 241.818C211.986 242.31 212.076 242.865 212.076 243.482V243.992C212.076 244.609 211.986 245.166 211.807 245.662C211.627 246.154 211.367 246.574 211.027 246.922C210.691 247.269 210.285 247.537 209.809 247.724C209.336 247.908 208.803 248 208.209 248ZM207.031 239.469V248H205.9V239.469H207.031ZM216.084 248H214.303L214.314 247.08H216.084C216.693 247.08 217.201 246.953 217.607 246.699C218.014 246.441 218.318 246.082 218.521 245.621C218.729 245.156 218.832 244.613 218.832 243.992V243.471C218.832 242.982 218.773 242.549 218.656 242.17C218.539 241.787 218.367 241.465 218.141 241.203C217.914 240.937 217.637 240.736 217.309 240.599C216.984 240.463 216.611 240.394 216.189 240.394H214.268V239.469H216.189C216.748 239.469 217.258 239.562 217.719 239.75C218.18 239.933 218.576 240.201 218.908 240.553C219.244 240.9 219.502 241.322 219.682 241.818C219.861 242.31 219.951 242.865 219.951 243.482V243.992C219.951 244.609 219.861 245.166 219.682 245.662C219.502 246.154 219.242 246.574 218.902 246.922C218.566 247.269 218.16 247.537 217.684 247.724C217.211 247.908 216.678 248 216.084 248ZM214.906 239.469V248H213.775V239.469H214.906Z" fill="#020617" fill-opacity="0.5"/>
</g>
<path d="M35.5 234C35.5 229.858 38.8579 226.5 43 226.5H260C264.142 226.5 267.5 229.858 267.5 234V254C267.5 258.142 264.142 261.5 260 261.5H43C38.8579 261.5 35.5 258.142 35.5 254V234Z" stroke="url(#paint0_linear_6063_2798)"/>
</g>
</g>
<ellipse cx="191.599" cy="172" rx="1" ry="0.974419" transform="rotate(-90 191.599 172)" fill="#020617" fill-opacity="0.1"/>
<ellipse cx="202.318" cy="198" rx="1" ry="0.974419" transform="rotate(-90 202.318 198)" fill="#020617" fill-opacity="0.1"/>
<ellipse cx="213.037" cy="172" rx="1" ry="0.974419" transform="rotate(-90 213.037 172)" fill="#020617" fill-opacity="0.1"/>
<ellipse cx="201.344" cy="180" rx="1" ry="0.974419" transform="rotate(-90 201.344 180)" fill="#020617" fill-opacity="0.1"/>
<ellipse cx="216.934" cy="154" rx="1" ry="0.974419" transform="rotate(-90 216.934 154)" fill="#020617" fill-opacity="0.1"/>
<ellipse cx="209.139" cy="132" rx="1" ry="0.974419" transform="rotate(-90 209.139 132)" fill="#020617" fill-opacity="0.1"/>
<ellipse cx="191.599" cy="123" rx="1" ry="0.974419" transform="rotate(-90 191.599 123)" fill="#020617" fill-opacity="0.35"/>
<ellipse cx="182.83" cy="109" rx="1" ry="0.974419" transform="rotate(-90 182.83 109)" fill="#020617" fill-opacity="0.1"/>
<ellipse cx="191.599" cy="96" rx="1" ry="0.974419" transform="rotate(-90 191.599 96)" fill="#020617" fill-opacity="0.1"/>
<ellipse cx="202.318" cy="154" rx="1" ry="0.974419" transform="rotate(-90 202.318 154)" fill="#020617" fill-opacity="0.1"/>
<ellipse cx="191.599" cy="143" rx="1" ry="0.974419" transform="rotate(-90 191.599 143)" fill="#020617" fill-opacity="0.1"/>
<ellipse cx="69.3104" cy="143.5" rx="0.974419" ry="1" fill="#020617" fill-opacity="0.1"/>
<ellipse cx="43.4883" cy="143.5" rx="0.974419" ry="1" fill="#020617" fill-opacity="0.1"/>
<ellipse cx="24.9744" cy="143.5" rx="0.974419" ry="1" fill="#020617" fill-opacity="0.1"/>
<ellipse cx="82.9524" cy="143.5" rx="0.974419" ry="1" fill="#020617" fill-opacity="0.35"/>
<ellipse cx="55.1814" cy="152.5" rx="0.974419" ry="1" fill="#020617" fill-opacity="0.1"/>
<ellipse cx="94.6453" cy="163.5" rx="0.974419" ry="1" fill="#020617" fill-opacity="0.35"/>
<ellipse cx="63.9512" cy="163.5" rx="0.974419" ry="1" fill="#020617" fill-opacity="0.1"/>
<ellipse cx="77.1058" cy="174.5" rx="0.974419" ry="1" fill="#020617" fill-opacity="0.1"/>
<ellipse cx="86.8499" cy="170.5" rx="0.974419" ry="1" fill="#020617" fill-opacity="0.1"/>
<ellipse cx="107.8" cy="178.5" rx="0.974419" ry="1" fill="#020617" fill-opacity="0.1"/>
<ellipse cx="133.622" cy="170.5" rx="0.974419" ry="1" fill="#020617" fill-opacity="0.1"/>
<ellipse cx="142.392" cy="152.5" rx="0.974419" ry="1" fill="#020617" fill-opacity="0.35"/>
<ellipse cx="133.622" cy="143.5" rx="0.974419" ry="1" fill="#020617" fill-opacity="0.1"/>
<ellipse cx="168.701" cy="152.5" rx="0.974419" ry="1" fill="#020617" fill-opacity="0.1"/>
<ellipse cx="168.701" cy="143.5" rx="0.974419" ry="1" fill="#020617" fill-opacity="0.1"/>
<ellipse cx="44.4627" cy="163.5" rx="0.974419" ry="1" fill="#020617" fill-opacity="0.1"/>
<ellipse cx="107.8" cy="163.5" rx="0.974419" ry="1" fill="#020617" fill-opacity="0.1"/>
<ellipse cx="122.903" cy="152.5" rx="0.974419" ry="1" fill="#020617" fill-opacity="0.1"/>
<ellipse cx="107.313" cy="152.5" rx="0.974419" ry="1" fill="#020617" fill-opacity="0.1"/>
<g opacity="0.75" filter="url(#filter1_f_6063_2798)">
<path d="M16 202C16 195.373 21.3726 190 28 190H176C182.627 190 188 195.373 188 202V222C188 228.627 182.627 234 176 234H28C21.3726 234 16 228.627 16 222V202Z" fill="white"/>
<path d="M28 188.5C20.5442 188.5 14.5 194.544 14.5 202V222C14.5 229.456 20.5442 235.5 28 235.5H176C183.456 235.5 189.5 229.456 189.5 222V202C189.5 194.544 183.456 188.5 176 188.5H28Z" stroke="url(#paint1_linear_6063_2798)" stroke-width="3"/>
</g>
<path d="M28 189.5C21.0964 189.5 15.5 195.096 15.5 202V222C15.5 228.904 21.0964 234.5 28 234.5H175.136C182.039 234.5 187.636 228.904 187.636 222V202C187.636 195.096 182.039 189.5 175.136 189.5H28Z" fill="white"/>
<path d="M28 189.5C21.0964 189.5 15.5 195.096 15.5 202V222C15.5 228.904 21.0964 234.5 28 234.5H175.136C182.039 234.5 187.636 228.904 187.636 222V202C187.636 195.096 182.039 189.5 175.136 189.5H28Z" stroke="url(#paint2_linear_6063_2798)"/>
<g clip-path="url(#clip3_6063_2798)">
<path d="M50 200H26V224H50V200Z" fill="#4F868E"/>
<path d="M40.44 208.084C39.9686 208.087 39.5042 208.198 39.0815 208.406C38.6589 208.615 38.2891 208.917 38 209.289C37.7112 208.917 37.3416 208.615 36.9192 208.406C36.4967 208.198 36.0324 208.087 35.5612 208.084C33.8037 208.084 32.375 209.596 32.375 211.458V215.147C32.375 215.346 32.454 215.537 32.5947 215.677C32.7353 215.818 32.9261 215.897 33.125 215.897C33.3239 215.897 33.5147 215.818 33.6553 215.677C33.796 215.537 33.875 215.346 33.875 215.147V211.456C33.875 210.421 34.6338 209.581 35.5663 209.581C36.4988 209.581 37.2575 210.424 37.2575 211.456V215.144C37.2575 215.343 37.3365 215.534 37.4772 215.675C37.6178 215.815 37.8086 215.894 38.0075 215.894C38.2064 215.894 38.3972 215.815 38.5378 215.675C38.6785 215.534 38.7575 215.343 38.7575 215.144V211.456C38.7575 210.421 39.5162 209.581 40.4487 209.581C41.3812 209.581 42.14 210.424 42.14 211.456V215.144C42.14 215.343 42.219 215.534 42.3597 215.675C42.5003 215.815 42.6911 215.894 42.89 215.894C43.0889 215.894 43.2797 215.815 43.4203 215.675C43.561 215.534 43.64 215.343 43.64 215.144V211.456C43.6262 209.596 42.1975 208.084 40.44 208.084Z" fill="#F1F5F9"/>
<path d="M38 202.616C35.5145 202.619 33.1317 203.607 31.3742 205.364C29.6167 207.121 28.628 209.503 28.625 211.988C28.628 214.473 29.6167 216.855 31.3742 218.612C33.1317 220.369 35.5145 221.357 38 221.36C40.4856 221.357 42.8686 220.369 44.6262 218.612C46.3838 216.855 47.3724 214.473 47.375 211.988C47.372 209.503 46.3833 207.121 44.6258 205.364C42.8683 203.607 40.4855 202.619 38 202.616ZM38 220.985C35.6139 220.982 33.3262 220.034 31.639 218.347C29.9517 216.66 29.0026 214.373 29 211.988C29.0026 209.603 29.9517 207.316 31.639 205.629C33.3262 203.942 35.6139 202.994 38 202.991C40.3861 202.994 42.6738 203.942 44.361 205.629C46.0483 207.316 46.9974 209.603 47 211.988C46.9974 214.373 46.0483 216.66 44.361 218.347C42.6738 220.034 40.3861 220.982 38 220.985Z" fill="#F1F5F9"/>
</g>
<path d="M62.8398 207.929L59.5449 217H58.1982L61.9922 207.047H62.8604L62.8398 207.929ZM65.6016 217L62.2998 207.929L62.2793 207.047H63.1475L66.9551 217H65.6016ZM65.4307 213.315V214.396H59.8389V213.315H65.4307ZM72.54 215.291V209.604H73.8115V217H72.6016L72.54 215.291ZM72.7793 213.732L73.3057 213.719C73.3057 214.211 73.2533 214.667 73.1484 215.086C73.0482 215.501 72.8841 215.861 72.6562 216.166C72.4284 216.471 72.1299 216.711 71.7607 216.884C71.3916 217.052 70.9427 217.137 70.4141 217.137C70.054 217.137 69.7236 217.084 69.4229 216.979C69.1266 216.875 68.8714 216.713 68.6572 216.494C68.443 216.275 68.2767 215.991 68.1582 215.64C68.0443 215.289 67.9873 214.867 67.9873 214.375V209.604H69.252V214.389C69.252 214.721 69.2884 214.997 69.3613 215.216C69.4388 215.43 69.5413 215.601 69.6689 215.729C69.8011 215.852 69.9469 215.938 70.1064 215.988C70.2705 216.038 70.4391 216.063 70.6123 216.063C71.1501 216.063 71.5762 215.961 71.8906 215.756C72.2051 215.546 72.4307 215.266 72.5674 214.915C72.7087 214.56 72.7793 214.165 72.7793 213.732ZM78.8359 209.604V210.574H74.8369V209.604H78.8359ZM76.1904 207.806H77.4551V215.168C77.4551 215.419 77.4938 215.608 77.5713 215.735C77.6488 215.863 77.749 215.947 77.8721 215.988C77.9951 216.029 78.1273 216.05 78.2686 216.05C78.3734 216.05 78.4827 216.041 78.5967 216.022C78.7152 216 78.804 215.981 78.8633 215.968L78.8701 217C78.7699 217.032 78.6377 217.062 78.4736 217.089C78.3141 217.121 78.1204 217.137 77.8926 217.137C77.5827 217.137 77.2979 217.075 77.0381 216.952C76.7783 216.829 76.571 216.624 76.416 216.337C76.2656 216.045 76.1904 215.653 76.1904 215.161V207.806ZM79.8477 213.384V213.227C79.8477 212.693 79.9251 212.199 80.0801 211.743C80.235 211.283 80.4583 210.884 80.75 210.547C81.0417 210.205 81.3949 209.941 81.8096 209.754C82.2243 209.562 82.6891 209.467 83.2041 209.467C83.7236 209.467 84.1908 209.562 84.6055 209.754C85.0247 209.941 85.3802 210.205 85.6719 210.547C85.9681 210.884 86.1937 211.283 86.3486 211.743C86.5036 212.199 86.5811 212.693 86.5811 213.227V213.384C86.5811 213.917 86.5036 214.411 86.3486 214.867C86.1937 215.323 85.9681 215.722 85.6719 216.063C85.3802 216.401 85.027 216.665 84.6123 216.856C84.2021 217.043 83.7373 217.137 83.2178 217.137C82.6982 217.137 82.2311 217.043 81.8164 216.856C81.4017 216.665 81.0462 216.401 80.75 216.063C80.4583 215.722 80.235 215.323 80.0801 214.867C79.9251 214.411 79.8477 213.917 79.8477 213.384ZM81.1123 213.227V213.384C81.1123 213.753 81.1556 214.102 81.2422 214.43C81.3288 214.753 81.4587 215.04 81.6318 215.291C81.8096 215.542 82.0306 215.74 82.2949 215.886C82.5592 216.027 82.8669 216.098 83.2178 216.098C83.5641 216.098 83.8672 216.027 84.127 215.886C84.3913 215.74 84.61 215.542 84.7832 215.291C84.9564 215.04 85.0863 214.753 85.1729 214.43C85.264 214.102 85.3096 213.753 85.3096 213.384V213.227C85.3096 212.862 85.264 212.518 85.1729 212.194C85.0863 211.866 84.9541 211.577 84.7764 211.326C84.6032 211.071 84.3844 210.87 84.1201 210.725C83.8604 210.579 83.555 210.506 83.2041 210.506C82.8577 210.506 82.5524 210.579 82.2881 210.725C82.0283 210.87 81.8096 211.071 81.6318 211.326C81.4587 211.577 81.3288 211.866 81.2422 212.194C81.1556 212.518 81.1123 212.862 81.1123 213.227ZM89.8555 217H88.5908V208.961C88.5908 208.4 88.7002 207.926 88.9189 207.539C89.1377 207.152 89.4499 206.858 89.8555 206.657C90.2611 206.457 90.7419 206.356 91.2979 206.356C91.626 206.356 91.9473 206.397 92.2617 206.479C92.5762 206.557 92.8997 206.655 93.2324 206.773L93.0205 207.84C92.8109 207.758 92.5671 207.68 92.2891 207.607C92.0156 207.53 91.7148 207.491 91.3867 207.491C90.8444 207.491 90.4525 207.614 90.2109 207.86C89.974 208.102 89.8555 208.469 89.8555 208.961V217ZM91.3662 209.604V210.574H87.4219V209.604H91.3662ZM93.8545 209.604V217H92.5898V209.604H93.8545ZM97.3066 206.5V217H96.0352V206.5H97.3066ZM100.711 206.5V217H99.4395V206.5H100.711ZM108.087 215.688L109.987 209.604H110.821L110.657 210.813L108.723 217H107.909L108.087 215.688ZM106.809 209.604L108.429 215.756L108.545 217H107.69L105.544 209.604H106.809ZM112.64 215.708L114.185 209.604H115.442L113.296 217H112.448L112.64 215.708ZM111.006 209.604L112.865 215.585L113.077 217H112.271L110.281 210.8L110.117 209.604H111.006ZM118.115 209.604V217H116.844V209.604H118.115ZM116.748 207.642C116.748 207.437 116.81 207.263 116.933 207.122C117.06 206.981 117.247 206.91 117.493 206.91C117.735 206.91 117.919 206.981 118.047 207.122C118.179 207.263 118.245 207.437 118.245 207.642C118.245 207.838 118.179 208.006 118.047 208.147C117.919 208.284 117.735 208.353 117.493 208.353C117.247 208.353 117.06 208.284 116.933 208.147C116.81 208.006 116.748 207.838 116.748 207.642ZM123.242 209.604V210.574H119.243V209.604H123.242ZM120.597 207.806H121.861V215.168C121.861 215.419 121.9 215.608 121.978 215.735C122.055 215.863 122.155 215.947 122.278 215.988C122.401 216.029 122.534 216.05 122.675 216.05C122.78 216.05 122.889 216.041 123.003 216.022C123.121 216 123.21 215.981 123.27 215.968L123.276 217C123.176 217.032 123.044 217.062 122.88 217.089C122.72 217.121 122.527 217.137 122.299 217.137C121.989 217.137 121.704 217.075 121.444 216.952C121.185 216.829 120.977 216.624 120.822 216.337C120.672 216.045 120.597 215.653 120.597 215.161V207.806ZM125.99 206.5V217H124.726V206.5H125.99ZM125.689 213.021L125.163 213.001C125.168 212.495 125.243 212.028 125.389 211.6C125.535 211.167 125.74 210.791 126.004 210.472C126.268 210.153 126.583 209.907 126.947 209.733C127.316 209.556 127.724 209.467 128.171 209.467C128.535 209.467 128.864 209.517 129.155 209.617C129.447 209.713 129.695 209.868 129.9 210.082C130.11 210.296 130.27 210.574 130.379 210.916C130.488 211.253 130.543 211.666 130.543 212.153V217H129.271V212.14C129.271 211.752 129.215 211.442 129.101 211.21C128.987 210.973 128.82 210.802 128.602 210.697C128.383 210.588 128.114 210.533 127.795 210.533C127.48 210.533 127.193 210.599 126.934 210.731C126.678 210.864 126.457 211.046 126.271 211.278C126.088 211.511 125.945 211.777 125.84 212.078C125.74 212.374 125.689 212.689 125.689 213.021ZM136.518 207.047H137.796L141.057 215.161L144.311 207.047H145.596L141.549 217H140.551L136.518 207.047ZM136.101 207.047H137.229L137.413 213.117V217H136.101V207.047ZM144.878 207.047H146.006V217H144.693V213.117L144.878 207.047ZM151.201 217.137C150.686 217.137 150.219 217.05 149.8 216.877C149.385 216.699 149.027 216.451 148.727 216.132C148.43 215.813 148.202 215.435 148.043 214.997C147.883 214.56 147.804 214.081 147.804 213.562V213.274C147.804 212.673 147.893 212.137 148.07 211.668C148.248 211.194 148.49 210.793 148.795 210.465C149.1 210.137 149.447 209.888 149.834 209.72C150.221 209.551 150.622 209.467 151.037 209.467C151.566 209.467 152.021 209.558 152.404 209.74C152.792 209.923 153.108 210.178 153.354 210.506C153.601 210.829 153.783 211.212 153.901 211.654C154.02 212.092 154.079 212.57 154.079 213.09V213.657H148.556V212.625H152.814V212.529C152.796 212.201 152.728 211.882 152.609 211.572C152.495 211.262 152.313 211.007 152.062 210.807C151.812 210.606 151.47 210.506 151.037 210.506C150.75 210.506 150.486 210.567 150.244 210.69C150.003 210.809 149.795 210.987 149.622 211.224C149.449 211.461 149.314 211.75 149.219 212.092C149.123 212.434 149.075 212.828 149.075 213.274V213.562C149.075 213.912 149.123 214.243 149.219 214.553C149.319 214.858 149.463 215.127 149.649 215.359C149.841 215.592 150.071 215.774 150.34 215.906C150.613 216.038 150.923 216.104 151.27 216.104C151.716 216.104 152.094 216.013 152.404 215.831C152.714 215.649 152.985 215.405 153.218 215.1L153.983 215.708C153.824 215.95 153.621 216.18 153.375 216.398C153.129 216.617 152.826 216.795 152.466 216.932C152.11 217.068 151.689 217.137 151.201 217.137ZM158.625 217.137C158.11 217.137 157.643 217.05 157.224 216.877C156.809 216.699 156.451 216.451 156.15 216.132C155.854 215.813 155.626 215.435 155.467 214.997C155.307 214.56 155.228 214.081 155.228 213.562V213.274C155.228 212.673 155.316 212.137 155.494 211.668C155.672 211.194 155.913 210.793 156.219 210.465C156.524 210.137 156.87 209.888 157.258 209.72C157.645 209.551 158.046 209.467 158.461 209.467C158.99 209.467 159.445 209.558 159.828 209.74C160.215 209.923 160.532 210.178 160.778 210.506C161.024 210.829 161.207 211.212 161.325 211.654C161.444 212.092 161.503 212.57 161.503 213.09V213.657H155.979V212.625H160.238V212.529C160.22 212.201 160.152 211.882 160.033 211.572C159.919 211.262 159.737 211.007 159.486 210.807C159.236 210.606 158.894 210.506 158.461 210.506C158.174 210.506 157.91 210.567 157.668 210.69C157.426 210.809 157.219 210.987 157.046 211.224C156.873 211.461 156.738 211.75 156.643 212.092C156.547 212.434 156.499 212.828 156.499 213.274V213.562C156.499 213.912 156.547 214.243 156.643 214.553C156.743 214.858 156.886 215.127 157.073 215.359C157.265 215.592 157.495 215.774 157.764 215.906C158.037 216.038 158.347 216.104 158.693 216.104C159.14 216.104 159.518 216.013 159.828 215.831C160.138 215.649 160.409 215.405 160.642 215.1L161.407 215.708C161.248 215.95 161.045 216.18 160.799 216.398C160.553 216.617 160.25 216.795 159.89 216.932C159.534 217.068 159.113 217.137 158.625 217.137Z" fill="#1E293B"/>
</g>
<defs>
<filter id="filter0_d_6063_2798" x="32" y="223" width="239" height="42" filterUnits="userSpaceOnUse" color-interpolation-filters="sRGB">
<feFlood flood-opacity="0" result="BackgroundImageFix"/>
<feColorMatrix in="SourceAlpha" type="matrix" values="0 0 0 0 0 0 0 0 0 0 0 0 0 0 0 0 0 0 127 0" result="hardAlpha"/>
<feMorphology radius="3" operator="dilate" in="SourceAlpha" result="effect1_dropShadow_6063_2798"/>
<feOffset/>
<feComposite in2="hardAlpha" operator="out"/>
<feColorMatrix type="matrix" values="0 0 0 0 0.392157 0 0 0 0 0.454902 0 0 0 0 0.545098 0 0 0 0.4 0"/>
<feBlend mode="normal" in2="BackgroundImageFix" result="effect1_dropShadow_6063_2798"/>
<feBlend mode="normal" in="SourceGraphic" in2="effect1_dropShadow_6063_2798" result="shape"/>
</filter>
<filter id="filter1_f_6063_2798" x="-7" y="167" width="218" height="90" filterUnits="userSpaceOnUse" color-interpolation-filters="sRGB">
<feFlood flood-opacity="0" result="BackgroundImageFix"/>
<feBlend mode="normal" in="SourceGraphic" in2="BackgroundImageFix" result="shape"/>
<feGaussianBlur stdDeviation="10" result="effect1_foregroundBlur_6063_2798"/>
</filter>
<linearGradient id="paint0_linear_6063_2798" x1="35" y1="226" x2="260.964" y2="287.749" gradientUnits="userSpaceOnUse">
<stop stop-color="#3B5B63"/>
<stop offset="1" stop-color="#4F868E"/>
</linearGradient>
<linearGradient id="paint1_linear_6063_2798" x1="16.1733" y1="190" x2="182.273" y2="249.503" gradientUnits="userSpaceOnUse">
<stop stop-color="#F4B62B"/>
<stop offset="0.5" stop-color="#BC52AD"/>
<stop offset="1" stop-color="#4F868E"/>
</linearGradient>
<linearGradient id="paint2_linear_6063_2798" x1="16.1725" y1="190" x2="181.626" y2="248.974" gradientUnits="userSpaceOnUse">
<stop stop-color="#F4B62B"/>
<stop offset="0.5" stop-color="#BC52AD"/>
<stop offset="1" stop-color="#4F868E"/>
</linearGradient>
<clipPath id="clip0_6063_2798">
<rect width="233" height="300" fill="white"/>
</clipPath>
<clipPath id="clip1_6063_2798">
<rect x="11" y="202" width="281" height="102" rx="32" fill="white"/>
</clipPath>
<clipPath id="clip2_6063_2798">
<path d="M35 234C35 229.582 38.5817 226 43 226H260C264.418 226 268 229.582 268 234V254C268 258.418 264.418 262 260 262H43C38.5817 262 35 258.418 35 254V234Z" fill="white"/>
</clipPath>
<clipPath id="clip3_6063_2798">
<rect x="26" y="200" width="24" height="24" rx="5" fill="white"/>
</clipPath>
</defs>
</svg>
